<?xml version="1.0"?>
<svg xmlns:rdf="http://www.w3.org/1999/02/22-rdf-syntax-ns#" xmlns="http://www.w3.org/2000/svg" xmlns:cc="http://creativecommons.org/ns#" xmlns:dc="http://purl.org/dc/elements/1.1/" id="svg2" viewBox="0 0 578.5 565.43" version="1.1">
  <g id="layer1" transform="translate(-85.75 -249.65)">
    <path id="path2890" d="m368.17 798.77c-56.6-0.04-112.54-18.45-157.85-52.37-83.75-62.4-123.46-177.33-96.81-278.24 7.8859 8.9356 41.183 0.66427 12.791 1.7001-17.711-5.2858-3.5648-9.0844 0.61206-6.8557 3.7918-6.9002-4.0648-21.181-8.5796-7.8536-1.4352-15.129 10.592-24.733 20.743-25.582 3.7988-17.389-23.882 3.98-10.715-12.899 8.705-1.3673 25.723 3.3584 9.7038-6.4366 4.8236 3.1652 34.524 1.3274 16.989 7.5929 17.212 7.0202 15.452-18.792 0.0843-6.9426-17.263 4.1284-14.09-17.235-1.4624-2.377-10.972-10.329 19.748-19.253-5.2367-19.047 10.271-24.464 34.694-43.291 54.278-61.518 25.383-23.808 55.092-42.023 88.731-51.551 31.574-8.2794 65.242-14.528 97.874-9.6275 29.626-4.6088 61.35 4.9722 90.174 14.566 28 15.267 55.255 33.441 76.135 56.999 9.7747 3.5321 24.358 29.467 7.2674 10.365-6.8868-18.214-24.744-2.758-31.12-6.3786 12.08-11.246-30.572-10.568-12.253-29.402-16.785 22.305-38.977-13.237-58.588-15.432-10.827-7.9268-15.508 2.2172-25.786-9.0024-9.0584-0.24487-43.655-2.3916-30.08-10.331 27.518 0.20487-16.112-22.496-13.085 5.0659-6.4418 1.9484-12.256-6.2092-23.094-1.3205-11.566-8.8347 27.02-11.848 2.0492-14.235-11.08 10.215-17.067 28.189-34.382 15.215-14.37 17.302-49.745 1.0071-65.135 25.595-9.0277-8.4581-10.874-19.001-8.7684-0.7462-4.4918 15.469-38.039-4.6855-23.225 17.242-10.679 7.786-29.992 9.3327-25.95 21.416-10.843 13.007-38.419 1.7798-22.618 20.215-10.049-14.345-0.93494 21.391-19.788 16.913-17.464 2.7518 15.953-0.29556 3.3556 9.6978 33.202-0.14094-22.803-0.46089-6.42 12.945 24.132-18.135 40.491 16.434 64.541-1.2418-4.8948-2.6429 12.939-9.513-5.9117-7.3546-3.6917 16.271-50.062-9.2473-29.86-19.322 19.537 14.487 17.599-3.4519 10.137-14.039 4.7326-11.097 32.539 18.881 24.646 12.572-2.0423 8.9892 0.86419 28.902 11.597 10.5 10.852-10.337 1.8924-14.572-1.3617-11.44 0.14707-12.331-23.892-12.995-16.053-20.051-8.1234-19.537 39.605-23.822 21.642-0.23055 19.841 11.881 35.653-27.018 55.537-32.804 37.02-20.233 82.452-23.944 123.14-14.329 29.175 0.83144 30.742 37.551 52.603 35.59 3.9537 12.283-23.868 0.0754-1.921 11.07 13.762 11.506 16.388-27.377 18.672-3.7097-12.707 14.609 9.7323 21.855 17.932 13.126 3.0176-11.469 10.734-12.895 17.889-5.0968-18.185-14.913 19.189-5.0815 0.22881-5.082 3.3377 5.0088 19.119 7.2449 5.7757 12.009 10.983 10.447-25.754-17.535-12.814 0.5573-5.7772 0.30509-28.397 4.0375-13.624 8.6962 13.65-6.9119 30.11 4.4501 7.0512 2.9269-16.085 3.7876 7.4915 15.958-9.8228 19.159 8.8191-2.7822 26.812-21.505 20.498-3.856 5.7027-5.4483 32.173-27.263 19.677-11.784-10.299 1.3692-25.111 25.226-5.3965 13.754 17.068 8.6221-20.368 37.274 5.5278 15.237 18.502-6.4922 12.061-35.32 15.938-27.022 12.294-3.8554 18.507 10.307 4.132 11.672 12.577 6.8622-9.5076 9.9825 9.9986 8.7825 18.446 1.6197 15.895-21.936 5.393-18.013-4.0854-30.667 25.854 18.58 31.829 30.857 44.813 97.84 26.037 221.83-49.626 299.29-50.922 52.954-124.37 83.508-197.84 82.191zm7.3144-4.3872c-3.5695-10.133-6.8397 2.0401 0 0zm7.0601 0.76235c26.214-0.7525-17.52-4.6107 6.1061-5.8832 35.975-14.074-40.604-11.876-6.1061 5.8832zm-15.92-1.5789c13.244-29.071-11.462 0.26103 0 0zm-9.1872 0.23431c-3.9657-4.9375-19.156-0.3583-5.9724 0.36416l5.9724-0.36416zm5.7424-2.8616c7.4312-20.969-38.728-1.1577-8.1336-4.9314 3.5927 0.67984 4.915 13.99 8.1336 4.9314zm40.255 1.6228c7.741-15.521-9.34-4.1278 0 0zm-63.882-3.9513c-2.7262-8.8639-3.6424 7.8446 0 0zm70.163 2.8301c4.5587-18.455-10.491-13.566 0 0zm8.9561-0.78313c-1.0638-6.0786-6.9613 5.7314 0 0zm-88.749-0.96883c16.631-22.438-40.514-10.575-10.361-0.67669 3.233 0.89062 7.0454 2.2349 10.361 0.67669zm-9.4582-1.5362c-25.66-14.311 28.871 1.1809 0 0zm105.95 1.2932c-3.5237-4.1938-8.2397 8.0082 0 0zm-11.056-2.6379c24.909 4.1025-0.56071-22.984-4.7391-1.9648 0.15468 2.0635 3.0663 4.1557 4.7391 1.9648zm-107.39-2.2327c7.8502-29.992-14.1 4.5643 0 0zm128.58 1.7655c3.7362-13.715-11.154-3.8136 0 0zm7.5666-1.5133c-21.454-7.7393 24.016-26.869-1.4355-11.179 5.251 21.529 36.591-17.94 6.568-11.282-11.075-3.7997-57.722-4.1268-24.978 0.37608-10.151 1.0212-41.25 2.196-38.394-0.12964 21.514-3.6804-22.085-4.1755-28.622-3.0825-16.467 0.77138-72.913 1.1241-64.72 2.9346 14.206 1.583 19.365 0.14603 5.0739 4.1378 9.638 3.9438 48.566-0.46197 22.754 5.8742 14.2 1.6305 52.328-9.9432 53.727-3.5605-10.2-0.46839-43.859 4.1328-14.319 3.8909 8.0513-1.3558 35.133 1.4566 13.748 2.4166 10.985 9.4016 38.657-11.222 38.939-1.2875-17.244 6.7533 37.198-2.0674 10.12-5.054-10.229 2.565-38.929-1.8883-12.835-1.9257 17.171-7.3476 30.423 8.4789 34.374 17.871zm-126.43-19.81c9.6854-6.9456 24.67 2.6335 5.5968 0.0817l-5.5968-0.0817zm24.633-0.74706c9.3373-5.8975 45.945 1.0578 15.369-0.44972-5.1203 0.16373-10.245 1.228-15.369 0.44972zm90.985-1.8683c2.0248-1.4302 1.2376 1.5934 0 0zm-133.84 19.848c11.273-15.485-11.536-2.0663-0.10769 0.20014l0.10769-0.20014zm74.92 0c2.935-6.2057-6.8459 4.4195 0 0zm-32.749-1.2027c1.5545-7.7929-5.1082 5.9106 0 0zm115.14-0.0367c-1.6228-2.4438-0.45215 4.0093 0 0zm-169.48-1.6023c-21.256-10.406 21.762-1.9958-0.11294-13.32-15.964-0.0396-16.805 15.74 0.11294 13.32zm171.97-0.12226c-2.1143-1.7204-0.97129 2.8257 0 0zm-121.75-1.68c-1.5927-3.9616-1.5927 3.9616 0 0zm28.833 0.0355c-13.735-9.4823-22.806 6.144 0 0zm-19.203-0.98707c-3.2782-5.1358-8.2631 4.196 0 0zm119.15-2.1345c-0.82602-12.127-2.8257 9.5408 0 0zm-195 0.57262c18.609-20.723-7.7909-10.653 0 0zm198.73-0.92592c-4.5434-4.5374-0.23991 4.3368 0 0zm6.4365-1.7841c4.3172-9.2966 28.878-9.5666 4.4266-15.409-7.9819-0.8784-17.759 15.909-4.4266 15.409zm-209.76-2.8591c1.8623-8.8291-8.3795 6.9559 0 0zm-4.766-3.9286c9.3632-10.022-22.257-21.143 0.15903-13.858 41.697 7.9266 83.816-2.2376 125.73-1.2237-26.725-18.511-58.935 3.2544-87.835 2.6551-18.592 1.0988-44.437-17.12-57.903 2.4323 9.6283-11.009 2.3418 14.795 17.065 6.3831 1.8995 3.175-7.4429 11.715 2.7826 3.611zm205.59-0.75516c-2.1143-1.7204-0.9713 2.8256 0 0zm-221.15-2.023c-1.3924-2.8573-0.98464 2.6863 0 0zm25.107-2.7253c-1.2813-8.9106-5.9956 6.589 0 0zm228.65 0.40821c-5.9129-10.574-3.3465 6.8328 0 0zm-96.445-0.21646c-3.2583-2.2541-0.55282 1.8191 0 0zm59.028-1.6673c-3.4212-9.4747-57.766-23.125-32.774-5.6192 12.059-4.6398 19.149 9.3698 32.774 5.6192zm-179.53 0.0736c-8.1479-4.7568-3.3491 3.1861 0 0zm18.83-0.0826c4.2489-2.3764-14.603 1.4002 0 0zm12.812-0.69926c-3.1748-5.1142-11.696 5.1656 0 0zm177.45-2.4341c-6.7867-16.797-41.719-30.063-46.924-29.556 12.897 13.366 28.891 24.52 46.924 29.556zm10.192 1.626c1.7001-8.3318 26.265-8.5222 8.9368-16.688-4.7186 1.1937-19.071 13.603-8.9368 16.688zm-174.89 0.16835c-3.673-4.7862-8.1965 5.1862 0 0zm52.37-0.111c34.976-1.1188-11.367-2.6472-22.353-2.4696-31.181 1.9122 5.4214 3.4089 17.624 2.5738l4.7291-0.10429zm-142.46-3.4631c11.748-27.144 47.732 8.2544 70.181-5.7604 17.844-4.2829 57.248-0.28391 62.297-13.2-14.956-23.898-41.873-36.282-69.505-34.733-14.251-0.029-57.048-1.2984-33.784 19.695-16.456 18.563-12.654-18.637-19.745-15.504 11.315 29.628-10.445-13.526-23.704-17.474-8.4967-10.321-12.418-43.039-29.204-20.421-20.767 19.372 19.799 34.646 20.731 34.743-14.827-7.0176-14.16-32.585-2.2179-7.1269 24.66 15.143-15.073-16.118-4.6397-28.948 1.0803 27.032 41.029 37.148 33.753 66.189 9.909-4.014 46.852-9.2322 42.659-4.1663-14.679 0.84223-57.926 6.2173-46.82 26.706zm45.14-7.1757c11.644-9.5654 38.954-7.3323 55.305-9.4467-22.86 3.7426 0.28014 2.0577-3.8572 4.4485-17.087 2.1889-34.096 5.8997-51.448 4.9981zm29.919-3.6822c17.151-5.283-24.074 3.1832 0 0zm-44.329-4.8391c10.121-3.4649 54.743-6.4137 22.894-0.95619-7.5834 1.0049-15.255 1.2373-22.894 0.95619zm90.109-1.4913c6.4334-5.0869 8.2788 5.9811 0 0zm-40.065-7.3442c-4.178-4.665 16.3 5.7718 0 0zm-7.0507-1.9273c-18.841-0.42754 0.82328-5.2104 0 0zm-61.947-2.0024c-0.94749-4.2564 3.7379 1.8005 0 0zm46.29-3.69c14.429-7.6778 28.325-3.3048 5.3781 0.63579l-2.7278 0.0103-2.6504-0.64604zm-100.65-45.85c-6.0368-8.8177 6.2157-0.35593 0 0zm5.4915-4.8266c-3.7436-8.932 4.9257-3.6529 0 0zm296.01 84.138c19.804-15.192-6.4469-27.219-12.758-15.347 3.5049 4.6657 15.017 8.1477 12.758 15.347zm-73.24-0.47664c-4.0737-13.616-40.978-36.399-40.625-19.717 7.2669 14.625 25.38 20.063 40.625 19.717zm50.94-1.3455c-5.3833-11.163-44.275-35.873-27.16-7.4198 7.1382 7.0461 17.853 6.912 27.16 7.4198zm-243.22-2.7515c14.543-16.098-29.814-14.078-4.2836-2.943-2.0309 3.9399-1.5809 4.1467 4.2836 2.943zm290.7-3.2531c-3.7448 0.14962 2.7408 3.2901 0 0zm-305.26 0.0426c-2.0285-5.3613-2.1721 4.3051 0 0zm225.37-2.8896c-1.6409-15.416-17.249-11.769-5.7872-20.419-2.176-9.2344 0.2918-19.705-3.6224-22.5 2.389-0.34119 6.8163-12.164-3.6132-13.318 29.166-4.4018-34.025-7.5591 2.7649-7.6584 15.581-3.9978-19.629-5.1226 2.5954-7.3006-3.3753-8.6299-28.161-3.5877-6.0933-5.692 14.881-5.2787-20.738-5.9391 2.3845-6.4481 15.044-6.4674-23.9-4.0314 0.75374-7.4495 10.876-3.8317-14.531-3.8997 4.1859-6.1197-3.3615-4.6565-13.246-4.3168-1.6122-6.2909-17.261-6.5715 16.901-6.181-7.5866-9.8889 15.202-7.5349 62.553-1.5762 59.019-4.4284-21.419-1.4746 19.896-5.1379 7.7468-7.4428 12.474-1.5837 46.063 3.0557 15.248 3.1857 8.361 8.4782-16.321 4.7734 4.7188 7.2808 12.58 8.9613 47.403-2.3427 15.975-2.2994-23.82 1.3905 44.276-1.904 12.787-5.9618-22.94-2.1953 48.524-3.514 9.8568-5.8851-20.13-0.49578-52.816 10.524-55.503-18.488-11.121-6.3196-14.106-10.884 1.0461-8.5083-13.241-9.4411 26.792-11.162-0.34574-14.413 19.307 3.2302-31.513 8.8258-4.3298-5.581 12.665-9.2193 21.898-15.61 2.3706-21.358-12.551-14.2 5.7344-17.025 13.048-6.4604 38.01 7.482 5.5036-39.388-0.4114-56.438 4.9-14.471-21.211-17.472-0.28442-20.912-13.915-12.446-41.07 0.96101-46.979 6.0432 8.6125-16.827 39.607-14.327 45.6-17.963-12.69-2.6788 10.441-2.9873-6.5742-3.8442 1.6507-4.5978 8.102-2.8609-5.3074-4.9799 18.93-6.0699-18.328-3.1773-24.695 8.6909-22.346 23.726-53.408 35.801-66.375 67.992-6.7483 16.378-24.401 24.707-35.321 18.688 10.976 12.008-23.146 9.5473-3.6233 20.043 8.6382 3.5724 17.473-8.1733 12.883 11.09 0.95669 27.248-14.777 63.098 4.8349 84.938 18.743 10.267 3.0844 13.175-7.7551 17.06-4.2378 23.147 3.8692 56.699 31.371 60.502 12.116 4.4497 24.569 7.9257 36.629 12.534zm-3.7545-3.1456c0.97128-2.8256 2.1143 1.7204 0 0zm-22.36-38.2c0.98467-2.6863 1.3924 2.8573 0 0zm5.8469 0c2.9411-3.5624 2.5193 3.3234 0 0zm-0.68788-14.445c1.5801-2.9063 1.5802 2.9063 0 0zm-2.0636-13.07c2.5193-3.3234 2.9411 3.5624 0 0zm12.554-47.261c-4.2239-7.9542 8.7556 2.5337 0 0zm-7.9679-0.661c-0.40031-5.2083 6.0699 3.1486 0 0zm24.649-3.6686c0.98464-2.6863 1.3924 2.8573 0 0zm19.993 0.0721c1.1652-5.3039 5.3149 5.1455 0 0zm-48.883-0.57051c-16.961-7.9775 23.29 0.9323 0 0zm34.05-0.14884c0.97128-2.8256 2.1143 1.7204 0 0zm-10.318-1.113c2.3534-2.7441 0.74535 3.8872 0 0zm-11.006-0.30334c1.5802-2.9063 1.5802 2.9063 0 0zm-19.776-4.9292c-10.631-9.5445 11.912 3.463 0 0zm6.4962 0.36214c0.24934-5.2278 4.8107 2.5631 0 0zm23.363-9.5706c5.9172-5.2916 7.049 6.6546 0 0zm45.634-14.409c1.5927-3.9616 1.5927 3.9616 0 0zm-5.7956-7.1396c3.217-5.7187 10.538 3.6247 0 0zm19.299-6.2949c4.4837-2.5469 2.0878 3.0084 0 0zm-58.215-2.741c-9.2301-17.753 15.149 0.41167 0 0zm-4.8151-11.042c-7.0548-6.5193-45.823-9.1436-18.217-11.165 6.4604 1.3957 17.915 2.325 18.217 11.165zm-69.702-13.31c4.0469-6.3286 6.9938 5.0654 0 0zm88.009-0.70137c3.187-3.4254 1.2346 3.6995 0 0zm-5.5079-4.2269c-1.0596-7.0507 6.4283 2.8068 0 0zm6.4612-1.3699c2.6003-3.8143 2.4443 4.5589 0 0zm7.5666-0.98138c0.98465-2.6863 1.3924 2.8573 0 0zm-34.078-4.8609c-0.0399-5.417 3.1887 4.4429 0 0zm21.008-0.6421c0.98462-2.6863 1.3924 2.8573 0 0zm-10.82-5.9186c2.0248-1.4302 1.2376 1.5934 0 0zm6.6924-0.27228c1.5801-2.9063 1.5802 2.9063 0 0zm7.108-0.34394c1.3251-3.8385 1.3251 3.8385 0 0zm7.6812-1.0318c0.98464-2.6863 1.3924 2.8573 0 0zm-24.918-4.8151c1.7299-4.7959 1.316 5.0199 0 0zm15.638 0.70598c-0.91127-7.6608 6.3952 5.1696 0 0zm-7.8081-1.0837c4.6491-4.5586 1.9875 4.8447 0 0zm14.681-0.99804c1.5802-2.9063 1.5802 2.9063 0 0zm-17.885-3.7833c1.5927-3.9615 1.5927 3.9616 0 0zm6.8787 0.38454c0.74533-3.8872 2.3534 2.7441 0 0zm41.351-21.376c-14.331-10.264-13.426-4.1479-16.494-5.1133-11.157 0.35055-24.757 4.4392-10.716-9.5084 8.5622-10.933 46.609-23.121 25.427-1.2689-2.2753 4.7827-3.8602 12.671 1.7822 15.891zm-19.511-9.7912c-2.5655-4.8217-2.7412 3.7726 0 0zm12.424-2.2274c2.3207-13.656-7.3506 2.9684 0 0zm-5.6726-0.63196c-1.6196-15.266-11.274 8.2073 0 0zm15.604-37.339c4.2613-2.3423 1.7892 1.6304 0 0zm35.294 292.43c-0.60003-12.198-14.095 0.14545 0 0zm-8.6888-2.4848c-8.5626-16.984-1.0317 6.759 0 0zm-134.74 0.17405c-21.423-33.32-14.832-74.558-22.365-111.67-21.357-20.73-15.626 32.591-17.878 36.965-11.698-12.238 3.8274-40.41-2.7933-41.253-10.342-0.22117-31.216-18.359-9.5626-7.7342 35.381 6.7013 26.408-39.08 21.012-59.355-8.8428-21.741 7.5725-57.224 3.8082-68.163-17.759 0.55447-43.195-30.368-47.526-3.5863-7.2712-6.4938-35.147 10.034-17.136-5.66 16.708-14.014 45.158-3.1961 53.597-2.5748 6.9626-9.8725 17.442 2.0836 2.7603 3.088 17.724 14.568 42.788-8.4502 40.118-20.564 10.558-12.699 2.2361 14.502 14.755-1.2878 24.553-17.176 51.207-31.276 77.685-44.737-22.005-4.7436-57.016 2.2345-76.075 20.531-6.5645 11.791-39.445 17.79-14.106 4.6763 9.9845-1.7764 40.063-32.973 15.504-17.505-8.0798 12.002-40.154 26.231-19.015 3.2639 18.546-21.398-11.366-59.337-19.494-21.077 0.63189 12.439 4.1451 39.235-2.6969 12.565 0.75908-18.038-23.267-34.177-24.857-7.7768 6.9711 11.351 29.54 30.151 16.806 4.0049 6.1556 10.919 8.6837 30.755 3.5724 30.085 9.2491 11.815-40.363 9.8476-17.858 12.974-6.5952 9.425-40.248 17.357-17.216 0.58628 18.375-10.816-17.807-63.244 5.9401-29.388 3.8679 25.905 32.856 3.7572 11.42-8.181-18.379-14.285-0.0522-38.26 18.634-24.907 12.994-10.836 38.886-20.021 34.09 7.9452 7.6865 12.082 30.58 2.8965 4.952 9.4476 10.912 8.1339 25.084-1.1039 13.358-13.043 4.9852-13.328 19.249-24.525 28.356-5.4771 5.7939-8.8683 17.109-30.401-2.6778-27.933 20.742 1.0862 9.4512-7.7143-2.5433-4.1721 11.679 2.3316 35.993-10.054 10.477-8.4668-7.7463-4.4728-38.735 3.5945-34.051-1.8957-2.3747-0.33033-38.457 2.0933-53.745 2.5408-15.6-4.9319-58.6 15.146-55.025 12.804 4.9288-9.2401 56.397-19.315 26.67-23.977-25.578-0.34291-59.547 32.639-64.644 42.635 9.4043 0.27664-22.645 6.9556 1.1228 4.5617 23.408-0.0838-5.3578 6.996-3.7674 4.3082 9.0631 1.7374 38.742-0.66903 13.295 3.428-20.749 7.8278-29.52-20.138-6.4537-23.508 23.071-21.354 49.969-39.786 82.483-40.301 17.229-2.9195 21.138 4.1035 0.80083 2.5557-24.782 9.5761 8.752 25.122 19.037 11.919-26.04-8.709 10.592-6.3819 19.838-1.1598 15.047-0.7727 56.276 7.0825 54.656-7.4028-10.322 1.3251-53.321 0.31978-22.845-1.1762 10.814 1.4491 34.67-4.7454 10.316-3.5936-12.529 1.5281-26.719-2.4005-5.8937-1.647 10.939 2.4197 25.586-5.2548 6.2165-3.8294 8.3635-3.0896 16.283-3.2289 1.9209-4.076-3.097-21.28-43.861-11.032-50.198-17.373-29.148 2.4608-61.602 0.39115-82.653 25.462-13.868 23.599-50.337 27.421-56.076 55.674 4.9989 19.738-6.1015 64.875-10.105 67.577 1.051-5.6987 8.831-30.675-4.3558-19.856-4.2757-11.414 17.254-46.542-1.603-20.878-8.4322 22.171-4.6148 47.005 3.7126 68.603 3.5871-29.975 28.035-45.571 56.117-43.128-1.0336-4.0572-35.86-1.8018-10.165-3.1172 27.009-2.4455-1.144-7.2434-12.434-5.4074 12.76 1.8968 43.749-6.1675 11.981-4.7068-26.906 0.8444 39.924-4.7134 3.4604-5.2147-30.542-1.9363 9.7794 1.7917 14.094-5.4012-28.278-3.7313 33.289-2.5642 6.71 4.8557-5.7013 14.464 11.366 59.413-11.204 49.449-4.0328-6.3531-19.745 21.3-32.502 20.746-11.525 9.7658-42.416 13.302-45.174 18.194-0.74671 17.806-34.534 11.82-41.702 7.1435-2.706 11.858-40.42-7.4856-42.772 3.5303 10.062 2.2677 23.74 3.4617 5.3946 3.457-25.715 3.7427 20.553 3.4516 27.595 2.2555 24.75 7.5195 55.727 12.828 70.263-13.443 17.81-15.636 42.542-32.439 66.142-17.3 18.19 11.936-1.8147 7.568-8.8966 0.216-9.5357-4.5078-32.83 5.0144-10.096 3.4175 9.5798 4.8925 37.63 15.886 34.522 19.404-10.745-4.991-51.101-23.176-45.775-14.785 20.136-0.55305-31.891 5.2924-4.0472 3.8897 20.991-5.5328 11.52 16.354-2.9115 4.8837-34.721-19.246-17.397 51.292 2.6725 29.557-27.183-19.037 34.074 9.4015 17.087-18.903-4.5613-15.787 21.295 24.023-3.0532 18.522-16.816 6.3961 6.7109 33.566 8.2692 48.823 11.794 23.361 17.604 48.893 23.715 73.779 15.753 19.975 37.494 34.799 49.775 57.824 5.6176 7.4487 11.81 15.743 21.235 18.441zm-43.424-74.901c-7.4297-7.6349 5.6031 2.319 0 0zm-4.627-7.5687c-7.1967-25.08 5.3243-4.5436 0 0zm-0.12898-25.196c0.9713-2.8256 2.1143 1.7205 0 0zm-40.509-41.91c-0.8154-4.6441 4.1116 2.6152 0 0zm-2.3679-5.708c3.4633-5.7206 9.4633 6.2527 0 0zm33.563-0.27505c3.8636-8.4606 8.3581 5.3906 0 0zm-35.016-5.3746c6.1541-6.7747 8.9706 5.6366 0 0zm13.205 0.13107c4.3518-4.7842 19.455-0.0694 5.9364 0.4555l-5.9364-0.4555zm-13.414-4.8958c3.8022-8.5479 11.621 5.846 0 0zm15.305-1.5088c3.1907-3.5231 3.7816 3.7663 0 0zm-19.289-4.8609c5.8237-5.3035 20.365 1.9236 5.8424 1.1584l-5.8424-1.1584zm22.107-0.46022c-0.74141-4.3849 4.9534 2.0766 0 0zm-23.026-4.5501c12.951-4.113 20.151 1.3187 2.1992 0.59436l-1.104 0.32155-1.0952-0.91591zm2.4941-5.0854c-3.9609-5.5882 26.936 3.3574 0 0zm-6.3628-6.2957c21.656-5.6427 16.003 5.1086 0 0zm-4.4712-5.7731c17.464-5.5102 20.766 4.4622 0 0zm24.626-2.0027c3.6902-3.048 0.57736 3.6624 0 0zm-11.556-5.3654c4.2345-3.3904 9.0665 6.0889 0 0zm-19.69-5.331c-20.289-11.43 2.0996-16.372 2.8453-4.5294-1.4093 0.60359-4.1392 2.518-2.8453 4.5294zm-18.513-5.1521c-15.881-9.0051 5.1678-14.414 0 0zm-69.449-1.938c16.123-3.1968-5.2649 2.8254 0 0zm130.18-17.903c-2.1031-5.4145 7.5896 7.7386 0 0zm-95.442-0.63055c9.3077-4.0874-1.6333 3.0279 0 0zm102.12-6.2333c-12.272-13.08 6.4729-15.174 0 0zm52.476-28.96c-0.01-27.192-43.964-6.1497-28.121-2.4202-33.635 1.236 25.162-31.594 28.465-10.824-6.5214 8.4272 13.963 15.816-0.34402 13.244zm-59.76-11.41c5.7628-9.6948-4.2729-4.658 0 0zm70.435-3.0524c1.8347-4.3174 2.4745 3.5276 0 0zm-66.827-7.7242c0.39804-3.4634 0.71892 2.4193 0 0zm-79.465-7.3418c-1.7129-8.3245 4.5711-0.26968 0 0zm80.749-2.3802c-3.5835-7.8242 4.0885-4.8459 0 0zm19.113-3.5122c3.4304-2.5087 1.7225 1.7366 0 0zm-5.1316-11.658c2.0248-1.4302 1.2376 1.5934 0 0zm134.65-7.5116c4.1363-3.402 0.45585 4.0198 0 0zm-192.61-1.557c-19.758-3.4746 29.414-0.68891 0 0zm-12.734-1.5218c2.9411-3.5624 2.5193 3.3234 0 0zm19.942-4.0193c-16.405 0.43042-25.184-2.5401-3.5084-2.4292 8.7582-0.71216 40.993 1.8376 15.291 1.9536l-5.8922 0.2123-5.8903 0.26339zm71.889-5.611c-2.6711-6.1396 3.8681 3.9983 0 0zm-86.844 0.2098c5.8988-6.1999 10.54 5.4822 0 0zm20.636-0.0364c-19.571-4.4384 37.347-0.38784 4.2458 0.0936-1.4153-0.0312-2.8306-0.0624-4.2458-0.0936zm114.17-1.3125c3.4304-2.5087 1.7225 1.7367 0 0zm-125.01-3.7667c-22.338-3.638 44.779-1.7391 9.6108 0.36749l-4.8064-0.15678-4.8044-0.21071zm-17.885-0.73529c6.3353-2.0953 5.228 1.4888 0 0zm155.46-8.1163c1.5802-2.9063 1.5802 2.9063 0 0zm-125.88-2.023c3.0535-4.9133 4.5611 4.5885 0 0zm-5.0639-5.8875c5.1356-7.051-0.29119 5.2341 0 0zm161.9-8.9902c2.9513-4.2291 4.3046 5.1826 0 0zm-115.77-2.67c-20.377-19.985 48.516-15.815 5.1792-7.7409-13.884 6.3769 27.362 1.8613 3.7379 6.8994l-4.547 0.59937-4.3701 0.24209zm2.6193-8.6324c-5.5392-3.7541-4.4851 3.6308 0 0zm106.28 6.9292c2.6376-5.9418 2.9562 4.7411 0 0zm-90.42-0.97167c-2.182-4.1613 5.0174 2.1813 0 0zm80.102-3.8939c2.3276-3.2511 2.3276 3.2511 0 0zm-88.392-0.50921c12.093-4.0232 7.6125 3.3254 0 0zm11.35-0.5226c2.3724-4.862 2.5877 4.0308 0 0zm6.5348-1.0318c2.1173-3.2006 1.7976 3.0336 0 0zm-1.8916-1.8378c-3.3417-6.2093 10.381 4.0189 0 0zm66.896-0.91366c2.1173-3.2006 1.7976 3.0336 0 0zm-63.098-2.4792c2.0248-1.4302 1.2376 1.5934 0 0zm11.508-2.3359c1.5802-2.9063 1.5801 2.9063 0 0zm55.469-0.34393c4.8096-4.4169 8.3626 5.9206 0 0zm10.778 0.0497c15.177-6.0066 23.281 4.911 0 0zm-37.206-2.5635c4.6051-5.9974 1.0437 3.9041 0 0zm-77.536-1.9574c3.2577-11.787 12.996 6.9959 0 0zm1.7197-5.503c2.962-2.5817 3.0778 3.5522 0 0zm8.2545 0.38453c1.299-2.8728 2.5308 2.0561 0 0zm-12.21-0.8587c4.2613-2.3423 1.7892 1.6304 0 0zm83.061-1.8928c0.74534-3.8872 2.3534 2.7441 0 0zm38.452 0.11178c-0.0179-6.7598 9.1701 5.8276 0 0zm-14.219-0.62529c1.8346-4.3173 2.4745 3.5276 0 0zm7.5922-0.84037c8.335-6.3613-1.7931 4.3148 0 0zm-56.245-1.7822c0.98464-2.6863 1.3924 2.8573 0 0zm25.982-5.9186c2.0248-1.4302 1.2376 1.5934 0 0zm-20.679-2.086c6.8359-4.8633-0.34267 4.757 0 0zm9.487 0.0941c1.5927-3.9616 1.5927 3.9616 0 0zm34.566-4.2575c4.2613-2.3424 1.7892 1.6305 0 0zm-1.7981-4.689c3.2795-4.5345 8.0476 5.8948 0 0zm1.0529-4.467c1.7747-3.5381 2.2545 3.1098 0 0zm-14.101-4.5858c0.85903-5.563 7.4564 5.0765 0 0zm-71.997-0.84357c1.3158-4.1986 2.8433 2.7962 0 0zm66.036-0.0736c0.98462-2.6863 1.3924 2.8573 0 0zm-54.342-3.0954c2.4324-4.2044 2.7686 4.3586 0 0zm8.2545 0.38453c0.7454-3.8872 2.3534 2.7441 0 0zm-148.15 428.68c11.733-7.5065-1.0087-11.883 0 0zm317.04-1.5778c1.2743-8.8943 28.252-18.248 15.147-15.488-16.072 0.43651-41.303-6.1362-60.398 2.3445 14.551 4.6091 40.287-8.0985 45.25 13.144zm-7.2413-15.103c1.5802-2.9063 1.5802 2.9063 0 0zm-311.71 9.9883c1.8885-7.9448-11.125 11.185 0 0zm301.08 1.7576c-12.426-5.7748-57.97-16.729-52.065-13.088 16.379 7.2818 33.822 13.967 52.065 13.088zm9.8204-1.6568c-2.4277-5.6171-2.9619 5.7981 0 0zm-39.259-0.63087c-10.89-10.168-37.56-6.4156-11.253 0.25207 3.6949 0.67462 7.6322 1.0801 11.253-0.25207zm-276.01-1.4371c6.6389-17.449 43.791 13.51 31.077-18.316-5.7188-10.722-39.352 6.5267-26.065-6.7236-13.031-3.5652-34.2 16.892-9.6527 7.3248 10.392-3.7698 31.015 2.2619 9.2089 7.198-17.789-11.149-24.277 7.4878-4.5686 10.517zm11.596-10.429c9.8655-7.4974-0.52055 5.4242 0 0zm-19.1 7.7666c-5.7502-3.686 1.2101 3.4854 0 0zm322.14 0.57183c-17.179-6.6996-22.41 5.3657 0 0zm-70.741-8.7229c-11.21-8.2867 8.7438 11.098 0 0zm104.79 0.32814c-5.1467-14.09-13.218-0.005 0 0zm-61.39-1.71c12.75 1.3599 50.741-0.3774 33.742-6.2797 7.2804 0.32367 15.404-4.8655 3.1915-5.3864 20.165 0.26603 13.566-6.5429-2.5935-4.6247-16.925 12.303-45.925 2.2981-72.404 6.4765-30.211 6.8966 19.458 4.496 30.318 4.0111 10.361-1.077 37.986 1.847 13.576 2.2779-11.277-2.8378-52.37 1.8654-19.943 4.4973 4.7196-0.0514 9.4175-0.54222 14.113-0.97207zm-236.28-2.4756c-4.4185 0.24159 2.9964 4.3038 0 0zm-47.226 1.2009c8.4042-7.3835-13.846 1.1364 0 0zm350.91-2.7386c-5.0717-7.1609 14.594-27.531-5.2482-15.77-7.643 4.5101-6.7298 21.966 5.2482 15.77zm-373.21-3.1003c20.014-15.975-7.105-8.0058-3.5611 1.5807 1.187-0.52691 2.374-1.0538 3.5611-1.5807zm-7.1307-2.6338c19.976-24.596-31.174-12.278 0 0zm-2.7258-9.9897c-6.418-12.865 11.009 10.754 0 0zm78.245 9.6109c1.4194-12.817-6.4733 0.89618 0 0zm198.88-2.7797c29.614 1.9444 58.91-2.4749 88.041-5.8089 27.966-8.8608-48.689-2.1088-11.293-11.06 9.7456-2.7341-30.584-7.9174-7.726-4.8263 22.192-3.6607-11.181-4.2923-6.9913-15.926-6.5721-10.049 20.719-22.626 7.8683-2.7258 0.77964 3.3726 13.9-15.119 14.92 2.6452 23.079-0.69561-8.884 29.453 13.81 13.047 14.077-15.938-32.615-29.933 1.2883-28.168 24.286-3.9661-39.482-1.4334-11.136-6.0148-8.8604-13.208-36.719-5.346-57.674-7.3578-7.0876-1.2935-47.531 5.6335-33.957 6.65 8.3939-3.9128 50.594 0.37687 21.367 1.1865-8.8973-3.6857-43.712 5.5956-15.879 4.2405 10.527-0.5596 46.65-4.5598 40.66-1.1728-19.756 0.19563-3.6298 3.3116 1.4198 3.8034-12.774 1.836-53.729-4.2017-49.8 3.181 8.1851-3.5006 49.102 1.3312 20.893 2.7124-9.0426-5.1002-38.805 4.4787-13.176 2.9324 8.7564-3.1707 36.746 0.51697 12.275 2.2269-10.597-3.2689-36.121 4.932-10.757 4.1091 12.526-3.9605 53.709 2.8239 19.017 0.71341-12.411-2.7297-46.824 5.8956-15.476 4.19 12.14-1.5288 28.638 2.208 6.4974 2.0414-9.4469-2.2144-32.883 5.491-10.79 5.8569 9.6096-7.808 61.99 1.5344 26.791 0.29773-10.778-3.7978-54.821 5.0932-21.851 4.2711 11.046-1.2278 33.813 0.63701 9.307 2.6552-12.96-3.5938-39.979 7.4075-11.383 3.662 10.66-2.5031 39.783 2.4783 13.046 2.4334-9.4114-2.9008-43.937 5.6284-15.42 4.1594 9.5082-2.2934 48.03 1.3338 17.521 2.4433-7.3817-4.5856-53.956 4.9515-21.412 3.6023zm42.396-4.7104c10.368-7.4601 55.686-3.7186 21.31-1.9889-7.1019 0.67806-14.197 1.4372-21.31 1.9889zm5.1556-5.8886c4.6916-5.3046 2.7191 4.2733 0 0zm-6.1874-1.6892c-5.6058-4.8362 7.3398 1.3499 0 0zm16.337-2.5643c5.2327-5.2902 3.5184 4.3389 0 0zm-13.07-0.38962c6.1961-3.4893 6.1961 3.4893 0 0zm-0.68787-4.0725c10.283-3.2246 27.24-0.59963 5.8003-0.19574l-5.8003 0.19574zm-5.503-8.1496c11.532-3.9504 7.6307 3.3218 0 0zm16.165-0.84746c3.8441-3.6236 4.6356 3.8191 0 0zm-16.165-3.581c14.879-2.6947 21.321 2.7174 0 0zm11.192-4.4012c2.0248-1.4302 1.2377 1.5935 0 0zm3.597-0.27228c3.7816-3.7664 3.1907 3.5231 0 0zm-25.107-2.4133c8.8891-6.4206 32.77 4.0876 0 0zm7.7388-4.6421c11.72-5.0776 10.272 2.9634 0 0zm2.4073-3.771c12.586-5.2112 28.502 1.0004 6.9446 0.254-2.3099 0.17321-4.6328-0.20145-6.9446-0.254zm18.745-5.3587c12.43-3.9989 16.838 5.2232 0 0zm-14.961-6.3304c13.581-6.6812 29.607 2.1161 5.4972 0.32946l-5.4972-0.32946zm27.515-0.61424c-1.1589-6.862 12.648 5.8579 0 0zm-39.252-2.879c11.086-4.1374 14.785 2.2469 0 0.00001v-0.00001zm-12.338-0.58605c0.74491-5.2831 8.6774 4.721 0 0zm29.551-0.50829c11.086-2.1352 5.4957 3.0338 0 0zm-158.7 61.831c-7.7566-4.5148-11.711 2.7239 0 0zm-113.84 0.009c-1.8363-4.5404-1.7963 3.7468 0 0zm109.09-3.7833c-13.227-8.1218-21.982 0.55127-3.0618 0.47567l1.6274 0.55844 1.4343-1.0341zm-78.819 0.0504c3.5042-4.1561-6.4165 1.9346 0 0zm313.67-1.7295c-1.1136-8.6917-2.6785 5.77 0 0zm-330.87-1.0867c-13.954-3.7626-26.333-39.778-25.088-37.223-0.26038 15.736 35.71 34.97 9.6751 12.934-11.972-7.4928 8.4448-48.558-7.7694-26.129 9.2688-28.225 54.211-17.805 60.062-50.113 3.2551-18.009-12.879 20.75-4.8647-7.8134 12.45-30.957-14.791 29.536-13.692 7.8986 18.99-7.406 13.947-55.668-7.514-42.467 23.339 6.3845-35.726 42.994-8.4194 20.308 14.491-16.401-6.5647-19.455-12.376-4.0121-12.067 10.709 8.5599-20.312-6.8382-8.5165-13.062 5.7616 4.3749 44.824-10.767 21.749 1.7421-27.779-29.878-27.93-47.561-24.851 12.272 1.0873 49.408 8.2892 16.503 7.3195-8.0563 0.82679-17.917-2.6608-2.6142-2.2085-8.942-5.6807-50.673-1.9898-19.97 2.8604 10.721-1.3558 49.655 5.9105 18.849 2.8378-17.707-3.5706-16.609 6.9619-0.0866 3.3747 15.794-0.98829 15.531 7.8411 0.36847 4.2393 29.372 0.18237 1.6972 41.106 22 48.56-0.76978-4.9872-6.9368-37.923 0.33881-28.019 3.9276 13.729 11.541 28.044-5.9103 38.662-8.771 19.986 13.485-15.623 24.851-11.634 26.143-10.801-31.527 15.628-10.321 21.724 1.1623 6.9616 3.6399 35.839 21.56 43.292 3.1036 2.5275 6.3248 4.9063 9.5844 7.2272zm-30.14-60.346c8.7413-11.885 55.971-21.205 22.256-8.5472-7.5078 2.5974-15.158 4.9202-22.256 8.5472zm0.56105-15.993c1.5802-2.9063 1.5802 2.9063 0 0zm4.2992-5.241c-11.548-6.5391-11.809-34.75-3.3575-9.6247 0.68274 1.3823 13.35 17.001 3.3575 9.6247zm10.218-0.67261c-16.011-3.269-13.099-28.585-3.5076-5.9124 8.1619 13.296 48.262-9.0529 21.053 4.9706-5.5141 1.674-12.163 5.0426-17.546 0.94178zm6.291-3.4843c-6.0689-4.5211 6.542 1.0229 0 0zm3.6595-0.84224c4.5858-5.435 10.958 4.2585 0 0zm3.5632-3.285c2.7918-2.2258 1.4615 1.6328 0 0zm-44.54-1.952c1.5927-3.9616 1.5927 3.9616 0 0zm42.863-0.89748c3.4485-13.746 40.016-44.673 18.469-17.254-5.5767 6.344-13.417 10.501-18.469 17.254zm5.474 0.82582c2.0248-1.4302 1.2376 1.5934 0 0zm-17.555-0.74645c6.9083-6.1702 10.281 5.1111 0 0zm-31.44-3.2188c-2.6002-14.16 4.64 5.5371 0 0zm35.547-2.9198c4.985-7.8663 11.272-0.84067 0 0zm-21.819-8.4798c0.9713-2.8256 2.1143 1.7205 0 0zm-7.5336-2.9641c1.8696-12.093 8.7238-2.7515 0 0zm-5.536-1.5087c-0.95292-13.242 5.2653 1.619 0 0zm27.013-4.2379c2.0248-1.4302 1.2376 1.5934 0 0zm-52.315-9.3209c2.0276-3.9895 1.9114 2.9711 0 0zm5.5343 0.30054c3.6384 0.0153 4.9846 0.021 0 0zm-6.8883 118.28c-11.008-2.941-0.45582 14.182 0 0zm99.191 5.3052c-9.9615-4.3914-14.391 4.4535 0 0zm12.072 0.0424c9.9235-4.2507 40.391 3.4987 15.272-4.5614-1.287-1.2863-24.982 5.4599-15.272 4.5614zm-89.423-0.0617c-4.8894-10.563-11.899 6.0168 0 0zm56.406-0.17697c-1.1835-4.3941-4.0197-0.51332 0 0zm85.814-1.0171c-7.9372-10.372-32.668 1.6234-9.6732-0.073l4.843 0.47331 4.8303-0.40031zm220.64-0.81587c2.2673-6.2282 18.491-2.5822 1.622-5.4879 2.7194-6.1057 11.412-7.2919 10.751-12.786-5.2845 0.5967-31.513 20.058-12.373 18.274zm22.61-0.3619c-2.7921-17.421-17.653-6.2719 0 0zm-306.36-1.3497c-3.2815-4.4486-7.209 5.0483 0 0zm12.917-0.0948c9.1298-5.6221 59.546-1.5134 25.676-6.7894-11.048-0.4322-25.657-3.5649-5.6498-2.2534 24.061 1.7675 2.8083-5.6237-6.3686-5.5408 12.294 0.38529 22.681-3.1519 4.3746-6.0412 22.174-2.1159-27.349-15.763-25.493 6.4862-1.357 4.6801-0.41766 19.041 7.4604 14.139zm6.5298-15.11c2.0248-1.4302 1.2376 1.5934 0 0zm3.425-4.8922c6.1519-5.987 3.8499 3.2084 0 0zm264.83 20.673c-2.7918-2.2258-1.4615 1.6328 0 0zm-295.96-0.84561c-4.6097-5.2765-6.9429 4.1262 0 0zm281.17-1.284c-16.241-9.5211 1.0619 5.4983 0 0zm-357.18-1.542c-14.203-4.6914-16.81 2.9253 0 0zm394.33-1.2395c-5.1198-7.9399 9.5966-27.04-7.7005-12.508-2.333 4.4213 0.86442 17.149 7.7005 12.508zm-417.58 1.0879c11.494-2.6071 22.194-17.668 8.3874-9.9132 0.54071 4.2479-18.282 8.3998-8.3874 9.9132zm109.82-0.88017c-2.9124-4.7122-5.5594 4.4824 0 0zm-11.36-0.73825c2.267-7.285-13.307 6.5022 0 0zm6.2965 0.39432c-2.3276-3.2511-2.3277 3.2511 0 0zm-21.26-3.65c-3.9155 1.0836 4.7916 4.7374 0 0zm8.19 0.89851c24.094-13.315-18.534 0.68074 0 0zm-69.131-0.68787c-9.9436-5.6273-6.1027 3.4648 0 0zm80.825-0.76147c-2.9076-2.8646-0.73193 4.3694 0 0zm-101.84-2.162c5.661-8.4046-19.206-4.1836-6.4989-15.918-20.578-9.44-4.7476 29.51 6.4989 15.918zm105.27-1.7055c-3.0292-1.8113-0.61737 5.3114 0 0zm271.33 0.34869c-2.9206-9.404-7.7116 6.514 0 0zm47.846-1.3039c-2.7564-1.4522-0.21712 3.5459 0 0zm-338.63-0.45c-2.3704-4.2263-3.6663 6.8825 0 0zm7.9071-2.3852c10.62-17.679-2.92-11.12-4.645 2.5732l0.76294 0.1138 3.8821-2.687zm4.6431 0.49359c11.535-9.7171 2.1641-21.481-0.59107-1.7738l-0.92597 2.4765 1.517-0.70271zm-16.116-1.0673c-9.946-7.0928-28.406-9.5063-8.9864 0.66103 2.9483 0.82039 6.2007 0.65115 8.9864-0.66103zm25.698-1.5122c-3.9257-0.81468 1.7608 6.1766 0 0zm262.53 2.2356c17.167-6.2153-26.491-4.3574 0 0zm-5.5299-1.3282c3.1712-4.4872 6.1935 4.5219 0 0zm38.403 0.1559c8.4235-4.8528-17.313 2.3152 0 0zm-386.15-0.81674c-11.008-8.3776-16.356 6.2626 0 0zm4.1272-1.8184c-3.7919-3.819-2.2292 6.8268 0 0zm84.32 0.72057c5.3619-9.9469-6.7054 4.9385 0 0zm323.15-0.69637c-3.4523-8.156-29.284-14.199-7.6786-14.907-14.207-5.708-47.428 11.452-15.13 12.289 1.5887-5.0037-7.1975-4.1739 6.9068-4.3379 5.7901 0.0589 13.152 0.95488 15.902 6.9558zm-347.04-2.1914c13.508-0.13179 13.141-30.735 5.6608-9.0027-5.3184 3.5393-25.568 3.6785-7.3946 6.7115-10.697-0.24088-9.0263 5.1014 1.7338 2.2912zm10.422-1.2885c-2.3534-2.7441-0.74535 3.8872 0 0zm275.71-0.4832c-4.6071-5.9302-6.0134 6.2759 0 0zm-355.78 0.0755c-9.9764-9.1782-16.01 5.7515 0 0zm416.86-3.2247c-9.171-9.956-5.3512 1.8281 0 0zm-407.68-2.1739c9.9497 0.65327 20.407-20.024 3.5767-10.737-9.108-11.334 5.2581-23.443-9.9379-13.219-16.749-1.5092-7.6972 34.797 6.3611 23.956zm-9.6698-4.9871c-14.445-33.774 27.86 8.6672 0 0zm5.5814-4.6431c-2.0857-5.8483-1.7732 6.4574 0 0zm91.522 12.21c6.3289-12.458-5.4326-5.6658 0 0zm36.422-1.5071c-8.8331-10.137-42.513 1.8163-12.903 0.13892 4.213 0.02 9.38 4.0634 12.903-0.13892zm-163.54-0.29733c-2.0751-4.031-2.4886 5.7659 0 0zm239.76-0.60311c-8.2192-5.7017-25.842-20.405-12.055-2.1191 3.0976 2.7494 8.2756 5.1747 12.055 2.1191zm-212.96 0.13215c-7.7988-11.371-16.238 7.3161 0 0zm423.7-0.0861c-3.2583-2.2541-0.55289 1.8191 0 0zm-370.23-1.0778c1.0707-8.8386-4.4438 1.5831 0 0zm367.69-0.52633c18.07-14.052-4.5186-25.982-4.4986-4.1801 0.0651 2.2981 2.1413 4.5407 4.4986 4.1801zm-363.54-0.67745c-1.3924-2.8573-0.98464 2.6863 0 0zm-84.397-0.99785c4.1444-4.9386 26.755-11.551 7.4311-11.815 4.293 7.9956-24.374 10.676-7.4311 11.815zm100.32-0.70994c9.0149-2.9571 11.806-34.629 14.246-11.789 4.873-11.791 7.7672-26.159 6.2803-5.4949 7.1574-6.8702 17.766-43.885 10.077-12.271-8.1 11.358-9.9834 36.577-0.39273 11.064 2.2989-8.6031 11.189-47.476 9.7674-19.605-15.043 8.9764-3.3189 42.219 13.223 29.143-14.784 0.14445-14.153-3.9552 0.60304-3.6271-34.184-1.17 2.7872-33.814-15.978-49.225-2.5374 18.948-40.082 29.105-30.476 47.402 1.404 19.012-43.706 5.6825-13.28 16.18l3.0492-0.5463 2.8809-1.2301zm312.27-0.35583c-6.0081-11.058-22.636 5.2301 0 0zm-253.54-0.9c-9.1599-10.974-35.532 2.34-9.7912 0.46145l4.9349 0.36292 4.8563-0.82437zm-136.76-1.1434c-7.9722-7.0695-11.819 5.9802 0 0zm400.32-2.4076c16.826-10.541-6.9306-25.774-15.05-10.649-5.7356-6.5203 5.4602-25.925-7.7845-11.402-13.003 30.199 38.222-2.318 22.834 22.051zm-421.91-1.6538c-4.9884-20.859-23.513-10.083-6.4496 1.9368l3.3994 0.13713 3.0502-2.0739zm130.5 1.3099c-1.7976-3.0336-2.1173 3.2006 0 0zm304.73-1.7197c-5.1206-5.2541-6.8167 5.8432 0 0zm-346-0.11784c0.5893-20.42-14.022-4.579 0 0zm3.8019-0.19609c-3.2479-2.1356-2.0554 2.8868 0 0zm3.4208-0.03c-1.3924-2.8573-0.98464 2.6863 0 0zm343.59-0.34393c-2.6882-4.4932-4.0975 4.2394 0 0zm-339.81-2.51c2.0158-10.345-11.785 8.1061 0 0zm29.312-1.7753c-1.5934 1.2376 1.4302 2.0248 0 0zm311.74 0.364c-7.3518-7.4669-11.315 5.221 0 0zm-20.805-1.2981c-0.61996-5.5788-5.3264 4.0886 0 0zm-401.76-1.31c-15.951-6.8697-15.985 5.8394 0 0zm76.698 0.55154c18.089-0.95721-3.2488-7.6517-0.86968 0.22592l0.86968-0.22592zm367.32-2.813c-2.9698-13.332-43.571-5.2717-17.53-4.5715-24.696 5.1322 0.0625 3.8559 10.693 3.465l2.9287 0.16955 3.9082 0.93702zm-410.88 1.4017c7.321-10.961-8.07 5.5154 0 0zm-52.056-0.51591c-3.1211-5.2315 0.28569 4.5928 0 0zm218.99-13.939c4.4979-26.778-9.1585-0.52676-0.36143 9.6003 2.1824-2.6679-0.0898-6.7687 0.36143-9.6003zm-60.093 11.588c-9.8709-6.1931-24.979 3.3438-5.0524 0.58705l5.0524-0.58705zm-139.3-0.4c-6.8995-10.791-23.885 3.0795-5.0206 0.50467l5.0206-0.50467zm73.916-0.0512c11.921-6.5069-18.161 3.6288 0 0zm223.15-0.28c-17.925-3.0824-21.329 5.2107 0 0zm93.992-1.7257c-2.3276-3.2511-2.3276 3.2511 0 0zm54.928-1.0834c-7.1311-5.5999-23.916-22.384-23.435-7.1158-10.642-2.8947-37.672 1.7943-11.682 0.71302 11.965-0.39863 24.269 1.0708 35.117 6.4028zm-468.34-0.29239c-1.5802-2.9063-1.5801 2.9063 0 0zm389.1-0.17623c9.9515-7.946-30.497-3.633-26.077-2.5092-30.56 3.3032 21.099 4.1514 26.077 2.5092zm-234.73-0.33965c22.039-1.7186-13.675-4.3523-3.7698-0.58178l3.7698 0.58178zm162.04-0.0127c13.256 1.9539 30.34-2.1688 7.1778-2.8326-9.3928-0.41502-29.461 4.0137-7.1778 2.8326zm-284.09-1.5429c-3.9003-11.645-44.51 1.7709-12.222 0.29123 4.0659 0.26537 8.1891 0.47154 12.222-0.29123zm387.6 0.0281c-7.2556-5.4405-11.681 3.7982 0 0zm-431.93-0.99055c8.0026-7.537-8.7274 2.908 0 0zm108.3 0.28252c-1.7976-3.0337-2.1174 3.2006 0 0zm250.39 0.0422c-7.8192-6.2966-7.3913 4.075 0 0zm-249.18-2.2412c23.718-6.8809-9.9239 4.7035-7.9067 1.0629l2.9131-0.30174 4.9936-0.76118zm-98.194-1.1668c-5.4755-5.0723-8.4551 4.9687 0 0zm358.26-0.22834c16.947-2.1729-20.476-0.45388 0 0zm-367.38-2.0494c13.644-9.6015-19.031 7.1541 0 0zm167.23 1.2811c-6.8205-5.0908-9.0397 5.4179 0 0zm311.52 0.48958c7.4752-14.418 6.0552-29.564-13.601-23.417-22.653 3.4074-4.1797 3.4814 6.5739 0.86993 2.6935 7.3256-10.847 28.081 7.027 22.547zm-425.81-1.396c-19.794-8.1197-15.93 5.9105 0 0zm-31.865-0.64679c-5.5007-11.575-12.953 7.7371 0 0zm422.71-1.4729c-3.4232-8.9708-26.627 4.1313-5.9571 0.61432l5.9571-0.61432zm-412.32-2.0841c26.082 7.2757 8.004-43.875 8.3363-10.994-19.007-0.6966 0.22224-0.0401-15.348 9.583-4.7408 4.5957 6.3681 1.4952 7.0121 1.4108zm23.044 0.53035c6.5532-8.4904-13.921 3.7532 0 0zm-56.862-1.6752c2.2473-21.974-20.117-12.611-5.6342 0.98158l2.9043 0.34573 2.7299-1.3273zm165.55 0.29949c-3.0662-3.4852-3.0662 3.4852 0 0zm-146-1.1214c-6.4056-10.719-14.071 5.6336 0 0zm426.41-1.0232c-14.026-8.9836-25.423 5.7766-4.2332 0.69746 1.4111-0.23249 2.8222-0.46497 4.2332-0.69746zm9.4002-1.8698c-1.8776-13.645-38.208-15.103-13.007-4.9198 3.7407 1.4154 9.0407 10.797 13.007 4.9198zm-392.99 1.2629c-1.5802-2.9063-1.5801 2.9063 0 0zm406.53-0.67667c-3.504-10.063-13.529 7.2394 0 0zm-464.31-1.3464c-0.83832-6.2449-3.1584 6.0754 0 0zm158.9-1.4163c-1.3924-2.8573-0.98464 2.6863 0 0zm-143.98-1.1253c-12.163-12.564-16.728 7.2325 0 0zm3.8056-4.5496c-0.0798-12.508-4.4559 9.7322 0 0zm202.58 2.1577c22.108 2.0918 7.576-57.186 9.0633-19.754 1.6622 3.339-21.506 25.757-9.0633 19.754zm245.76-0.26607c-7.6246-4.3598-11.57 4.5237 0 0zm-15.133-0.76146c-3.4146-2.5042-2.664 2.7058 0 0zm-71.874-0.28489c9.8456 2.1984 49.187-1.5124 18.239-4.1414-4.4749-0.61025-39.035 0.21027-18.239 4.1414zm-367.17-2.531c-3.8602-4.859-16.481 0.74219-5.0128 0.72622l5.0128-0.72622zm39.392-1.1815c0.54591-8.9684-5.3126 3.3875 0 0zm392.34-0.0563c-2.632-5.0299-7.042 4.9968 0 0zm-56.66-1.8c19.299 5.6437 39.085-10.999 57.359-5.1419-25.139 3.7174 31.76 5.0362 35.737 0.69079-10.248-2.3263-37.232 0.69657-13.571-6.3791-23.306-2.6405-48.33 4.0461-72.452 1.1562-13.686-1.3939-39.671 3.6526-12.369 4.125 12.168-3.1265 47.798 3.2566 18.637 2.1602-9.5592-4.0821-40.803 3.4976-13.341 3.3888v0.00003zm-377.3-1.2768c15.454-7.5554-33.808-1.2903-4.2973 0.35673l2.2011 0.19215 2.0962-0.54888zm25.773-0.59609c-8.9265-7.4198-13.09 5.6217 0 0zm-49.62-3.0152c10.572-3.3146 53.468-2.1909 21.073-5.7315-2.2608-0.61566-30.887 3.7988-21.073 5.7315zm64.087-0.56226c-3.6544-4.8522-3.0465 5.6066 0 0zm437.49-0.29759c-3.116-5.1048-4.1998 4.5111 0 0zm-8.153-3.9553c-10.321-12.477 1.347 9.7696 0 0zm-490.21-2.4373c21.821 3.0563 12.895-7.1585-2.6454-1.996-11.291 3.6028-6.1337 4.9319 2.6454 1.996zm497.38 1.9948c0.94528-16.284 8.5924-31.35-10.486-15.269-13.506 6.2068 4.8667 11.08 10.486 15.269zm-436.17-0.99362c-2.7255-8.9279-9.1415 4.5364 0 0zm-11.664-1.1952c-11.746-8.0619-34.203 3.3119-8.9267 1.0769 2.9155 0.48585 6.5172 1.3916 8.9267-1.0769zm363.98 0.90858c18.768-2.0095 59.403 0.92175 64.523-5.0628-26.641 6.319-47.919-6.2494-72.779-4.9167-11.36-1.2912-34.547 5.0863-9.7211 4.3538 8.921-1.9123 37.901 1.2139 12.791 2.2043-10.402-2.0806-42.896 1.3099-15.133 3.5608 6.7622 0.45519 13.567 0.53556 20.319-0.1394zm-415.88-5.42c-3.727-10.962-14.505-26.813-11.442-4.8786 0.75992 5.1126 7.0883 10.182 11.442 4.8786zm45.349 0.3473c13.355 0.86714 22.534-6.0508 3.8935-3.2129 0.40745-2.3845-13.382 3.7572-3.8935 3.2129zm101.81-0.63975c-2.3534-2.7441-0.74534 3.8872 0 0zm15.821-0.36065c-2.5467-3.5405-1.7857 4.3674 0 0zm-137.57-0.28662c6.7021 1.441 29.773-11.173 10.739-9.22 0.0118-28.071-34.329-0.60564-10.739 9.22zm-1.5472-5.2892c-14.115-25.68 21.917-1.3042 0 0zm5.3442-7.7181c-4.4917-13.445-2.2103 12.424 0 0zm-10.676 12.369c-11.683-9.8152-16.802 5.617 0 0zm435.08-1.5577c24.454 8.154 19.831-19.27 2.9438-25.072 10.663 0.83738 54.049 0.52102 22.037-2.862-16.207 0.076-22.728-2.8146-2.9538-1.5657 33.4-3.0913-17.147-3.0916-26.353-3.734-15.5-0.50556-51.483-4.7404-52.814 2.4173 22.6 1.5055 56.444-9.5358 61.447 19.973-3.992 5.6987-21.375 14.407-4.3078 10.844zm7.7873-6.0007c3.983-14.444 11.508 9.6776 0 0zm3.9065-0.74519c-2.5193-3.3234-2.9411 3.5623 0 0zm-398.76 3.9897c-10.284-10.85-18.047 3.1557 0 0zm358.38-1.0253c24.099-0.97644 0.74532-4.5497-9.4288-4.3956 10.074-0.45175 56.305-1.8332 22.504-4.1537-12.845 1.4189-23.259-3.5259-4.4315-2.8909-11.996-1.0395-44.749-11.225-43.98 6.3848 21.54 0.24827 7.8178 3.176-5.4803 4.8417 13.539 2.0058 27.221 0.38656 40.817 0.21372zm-34.383-8.5461c4.5354-5.0048 10.961 4.1661 0 0zm20.448 0.099c-21.666 2.2472 0.61326-5.5869 2.4098-0.94267l-1.407 0.55038-1.0028 0.39229zm-394.52 7.6922c-7.7852-9.6315-14.221 7.0236 0 0zm473.82-1.0057c-11.64-8.8614-13.045 7.882 0 0zm-38.476-0.096c-5.708-6.2912-8.1583 6.5573 0 0zm38.596-4.3561c-10.669-9.7439-16.483 6.4679 0 0zm-474.78-0.66c-10.781-9.1045-15.661 6.9305 0 0zm29.018-0.51591c-5.4406-4.7441-7.7214 5.8921 0 0zm462.71-2.8088c-11.108-12.966-50.592 3.2006-15.599-0.84396 5.1013-0.90731 10.825-2.0716 15.599 0.84396zm-60.765-0.96514c9.7854-3.6999-17.768 1.1357 0 0zm-430.98-1.9804c-16.732-6.2738-19.584 6.0168 0 0zm137.92-0.78048c-6.4046-10.097-1.2902 5.5529 0 0zm-163.96-0.4c-2.4975-5.3064-6.1579 4.8257 0 0zm248.89-0.0222c3.0588-20.687-16.118-7.8479 0 0zm143.94-0.59825c-0.98634-4.7223-5.0786 4.6041 0 0zm-387.09-1.1209c-5.0657-3.3879 1.161 4.3007 0 0zm427.51-0.3446c15.04 5.3536 20.976-6.782 2.5065-2.0924-13.111-3.3611-46.854 1.9596-15.978 2.67 4.4942-0.0938 8.9854-0.30286 13.472-0.57764zm66.195 0.0898c-11.8-8.5232-36.051 2.5353-9.7128 0.92555 3.2381 0.28987 6.663 0.46008 9.7128-0.92555zm19.26-0.0573c-2.5467-3.5405-1.7857 4.3674 0 0zm-416.86-1.1465c-1.8274-3.0997-0.66289 6.1817 0 0zm-73.871 0.0676c-18.63-4.5387 7.6394-4.7323-7.6918-6.5839-21.379-1.5289-0.69269 8.9691 7.6918 6.5839zm482.48-0.44551c-3.3961-8.8658-5.8819 2.6093 0 0zm-509.03-0.75c-3.6202-4.9128-9.6987 3.3796 0 0zm394.84 0.0143c-8.7032-6.5941-13.425 5.1432 0 0zm-292.4-4.5849c7.9141-12.498 43.642-1.221 21.552-23.647-0.87038-12.403 0.8975-28.265-9.9644-9.1758-2.8466 12.882-15.137 30.833-11.813 10.528-16.63-4.1641-40.347 11.259-16.515 18.065 15.584-16.032 12.647 11.415 16.741 4.2294zm6.7449-8.2973c0.36501-14.922 17.474-20.384 3.7255-4.1567-0.96726 1.6236-2.4225 2.8217-3.7255 4.1567zm10.157-1.651c1.8783-3.322 1.251 2.9413 0 0zm7.6236 0.0923c-1.8754-4.059 2.6606 0.96542 0 0zm-46.434-5.194c0.39808-3.4633 0.71891 2.4194 0 0zm17.885-4.8151c0.39806-3.4634 0.71893 2.4194 0 0zm19.894-13.093c3.8844-10.837 6.7147-0.0762 0 0zm42.648 35.351c-2.1143-1.7205-0.9713 2.8256 0 0zm356.54-1.0415c11.931-19.426-17.714-20.003-18.347-17.371-17.886 11.024 12.774 4.5279 11.576 19.564l2.788 0.15285 3.9829-2.3462zm-7.7041-2.0789c1.4584-16.445 19.822-1.3114 0 0zm-92.607 2.3234c13.63 3.1615 47.219-3.1728 14.14-2.9067-11.271-2.6532-41.382 2.2453-14.14 2.9063v0.00038zm-21.982-0.68277c-3.4266-3.2054-4.7227 4.5046 0 0zm-393.15-0.54323c7.1441-25.946-23.665-8.4899-2.6041 0.81506l2.6041-0.81506zm157.58-3.6607c-3.7272 2.7064 4.4028 4.7386 0 0zm-134.88 0.90924c30.164 11.565 28.743-42.703-0.65647-23.738 17.645 0.27311 33.747 18.458 7.6552 20.523-3.3046-0.49948-12.722-3.8128-6.9987 3.215zm-17.885-1.0724c-2.1143-1.7205-0.9713 2.8256 0 0zm12.726-1.3351c-9.4191-7.4653-13.447 5.6994 0 0zm55.374-1.6158c-17.097-9.0279-22.013 4.6857 0 0zm-54.639-3.0274c-6.4676-10.604-15.743 6.9143 0 0zm460.48 1.0127c-10.539-8.2706-13.949 7.5391 0 0zm-59.519-1.4995c11.983 2.5338 49.719-2.1236 16.975-2.7892-12.301-1.5532-52.897 2.292-19.295 2.9465l1.5073-0.10221 0.81273-0.0551zm43.298-0.44661c-14.307-19.682 28.652-27.809 22.232-4.0649 18.322-18.947-34.217-28.342-6.8083-21.773 18.137 6.1554 29.651-5.671 7.4592-5.0144-21.927-5.4785 23.31 0.49841 29.414 4.105 15.943-15.499-16.663-32.489-18.646-22.392 17.828 0.21042 6.5534 15.866-0.37067 3.3282-21.288 15.483-71.504 4.9668-79.275 12.548 13.9 3.7376 43.435-3.3032 47.527 2.9975-14.264 2.8258-35.843-4.9103-45.95 3.123 12.242-2.475 54.082 3.4659 20.074 1.996-14.842-4.0222-30.19 7.1313-6.9136 3.5854 10.276-4.7562 41.815 2.9714 16.606 6.7711 16.518 13.964-18.786 6.4032 5.5683 10.536 2.866 1.1822 7.5636 0.78966 9.0819 4.2531zm22.584-27.572c4.2613-2.3424 1.7892 1.6305 0 0zm16.853-7.5666c-12.18-0.27267-38.732-2.2304-12.686-1.8146 2.3717 0.50265 19.068-4.9798 12.686 1.8146zm-472.63 33.966c-6.7296-4.6656-9.1275 5.1406 0 0zm31.184-1.0661c5.8129-8.306-14.269 4.0568 0 0zm328.78 0.0168c-0.10906-9.0084-9.9238 7.4516 0 0zm84.845-0.9272c11.319-6.5685-18.849 2.1638 0 0zm-435.12-1.2392c-13.202-5.0707-31.862-6.3445-43.558-4.6479 14.362 2.4489 28.847 7.297 43.558 4.6479zm399.14-0.39393c-3.4267-2.5511-2.5736 2.5744 0 0zm-6.8787-0.48492c-3.9757-9.3721-29.653 3.8206-5.2449 0.54458 1.7483-0.1815 3.4967-0.36315 5.2449-0.54458zm87.36-0.23036c-7.1575-15.238-38.471 2.0471-9.5604-4.0387 3.4001 0.93139 5.8426 4.0129 9.5604 4.0387zm-444.24-3.1994c-3.2532-15.868-32.538-2.7824-5.6971-3.6396-27.095 6.2199-2.439 4.0519 5.6971 3.6396zm406.23 0.0129c-11.744-9.7017-20.816 7.5632 0 0zm-442.43-1.5825c-7.6604-5.573-9.8878 5.4844 0 0zm384.82 0.27097c19.7 3.1713 19.486-7.7245 0.79908-4.0454-6.5336 0.1661-11.655 6.641-0.79908 4.0454zm-406.65-1.7968c-9.6544-11.286-36.269 0.30338-8.9487-2.6309 2.437 1.4568 6.0014 5.769 8.9487 2.6309zm226.56 0.73389c-3.2583-2.2541-0.55289 1.8191 0 0zm255.78-1.85c-6.0548-6.7636-10.976 4.7621 0 0zm-20.338-1.1661c-8.5139-5.1853-13.404 4.9869 0 0zm29.479-0.45524c-6.6554-13.14-27.624-0.37724-6.0555-1.5761 0.33355-1.1291 6.3772 5.4982 6.0555 1.5761zm-81.939-1.6206c16.074-5.9984-25.438 0.23577 0 0zm-317.4-1.7234c4.2614-18.808-12.949 10.251 0 0zm154.26 1.7557c-2.1143-1.7204-0.9713 2.8256 0 0zm181.91-1.6791c-9.6879-11.128-13.163 12.531 0 0zm12.433 0.96257c-1.8118-8.2858-5.5371 6.2987 0 0zm59.57-0.036c1.53-13.869-14.721 9.7232 0 0zm-393.55 0.10522c-1.5802-2.9063-1.5802 2.9063 0 0zm-106.6-1.7488c-7.6793-7.9455-11.433 5.5772 0 0zm244.17 0.37308c34.001-9.3895-26.983-7.0897 0 0zm-260.96-1.0991c4.7456-17.144-12.522-28.355-10.565-5.5857 1.029 4.39 6.2943 8.123 10.565 5.5857zm248.58-1.5778c5.4668-7.2739 36.538-6.3186 22.805-17.509-2.5892 7.522-43.631 15.426-22.805 17.509zm19.604-9.0169c1.7976-3.0337 2.1174 3.2006 0 0zm-225.11 5.0474c-2.7918-2.2258-1.4615 1.6328 0 0zm31.814-2.9838c-2.1173-3.2006-1.7976 3.0336 0 0zm171.62-1.7197c28.779-6.842 46.631-31.868 70.909-45.504 21.968-14.966 39.91-38.083 59.984-53.337-7.6253 17.148 14.569-7.1997 4.7094 9.2342-12.002 14.864 7.6345-2.754 10.724-9.667 11.715-0.19863 32.12-6.8495 10.994-15.985-16.776-3.3648-9.3934 5.4064 2.0451 6.4114-26.576-2.7199-55.736 9.2242-78.741 24.595-19.141 16.734-45.02 24.691-61.953 43.977 27.038-15.97-28.593 21.416 2.5812 6.8664 9.558-8.093 31.367-16.735 10.958-1.4413-14.426 5.7926-27.586 12.016-19.719 12.145-18.784 12.607 21.723-5.9404 26.422-14.076 23.994-10.48-20.706 31.299-34.658 29.806-2.2814 1.1907-5.2272 4.0022-4.2542 6.9759zm55.261-48.197c15.062-12.413-4.7583-9.1227 3.0765-9.7717 19.179-8.7637 51.9-35.518 61.42-35.278-20.662 16.46-44.713 26.9-64.496 45.049zm-21.555-0.88905c10.542-8.6456 35.037-26.569 40.109-24.338-11.316 11.156-26.842 16.114-40.109 24.338zm35.081-4.2727c10.869-10.896 17.497-8.5482 1.2648 0.009l-1.2648-0.009v0.00007zm19.176-14.465c6.3564-5.2067-2.5096 4.8853 0 0zm4.8993-2.5757c0.96534-6.1104 4.8108 1.1541 0 0zm-2.7515-16.616c0.9846-2.6863 1.3924 2.8573 0 0zm3.4394-1.8678c9.6598-4.7981 20.568-6.041 0 0zm44.54-13.535c-12.256-7.0475 18.716 4.5328 0 0zm15.993-10.507c-14.664-3.2606 10.895-0.48468 0 0zm-319.26 111.46c-10.181-3.4949 4.6047-5.5028 7.1091-5.6829 24.303-6.896-47.011-13.252-13.468-5.3898 13.345 4.3761-27.68-0.33182-3.8024 8.3659 3.2198 1.0817 6.5553 3.4928 10.162 2.7068zm-77.616-2.3433c-2.4796-3.7785-0.61567 5.0974 0 0zm45.267-3.5707c17.4-27.254-55.889-22.827-26.095-3.4933 5.1083 12.131 17.037 3.762 26.095 3.4933zm-10.893-3.7272c-6.9826-26.107 22.938 4.6156 0 0zm-9.2674-0.73983c-15.928-7.7795 15.197-8.9815 0 0zm-10.662 5.7255c-10.052-6.7292-15.002 4.8058 0 0zm230.44-2.8062c9.7091-1.0311 40.887-22.233 14.078-9.2322-2.4063 2.0507-25.517 3.9301-14.078 9.2322zm34.002-1.1087c7.151-8.1342-4.5762 1.573 0 0zm141.79 0.70303c14.102 3.2725 43.311-2.9646 11.801-3.548-12.013-1.6693-41.909 4.6128-13.249 3.6772l1.4482-0.12927zm-271.77-1.8988c-3.0606-0.38743-0.64911 3.5814 0 0zm-134.12-0.1c-11.889-6.7619-35.253-1.5327-9.2832 1.0561 3.114 0.46572 6.3597 0.13349 9.2832-1.0561zm39.367 0.21172c-3.5107-2.2136-1.6154 1.6362 0 0zm413.15-3.0433c21.289 4.9852 12.245-13.928-4.0111-7.557 13.846-9.6386 18.572-33.668-4.9803-22.718-20.928 11.467 31.6-3.5711 6.4539 15.328-8.1198 8.0932-20.584 21.63 2.5375 14.947zm-410.97-1.7194c-8.977-7.3252-0.13896 7.0589 0 0zm381.84 1.1257c27.107-0.92968-13.669-7.0712-23.31-3.6631-30.265 3.2052 18.056 4.8598 23.31 3.6631zm-422.35-1.79c-20.524-9.959-21.286 6.221 0 0zm78.326-0.78822c32.857 6.7581 14.505-34.255-7.7097-34.128-23.209-2.5686-28.995 30.521-55.06 18.588-12.787-2.8383-28.918-0.72438-6.6912 2.3566 24.087 4.3418 38.661 0.45412 60.332 4.9084 19.689-3.3058 7.1631-2.055-4.6485-4.5318 14.602-5.2277-15.789-2.8276 4.2421-4.6487 3.525-0.37002 26.692-0.6739 11.306 2.7795 14.796-1.7618 19.495 14.852 2.2349 6.8253-9.0596-6.3631-17.442 8.5465-4.0059 7.8507zm1.2951-3.4447c3.0618-7.1128 12.737 5.3373 0 0zm-21.152-16.611c3.9434-7.578 10.638 7.0748 0 0zm13.467-0.035c-0.46397-6.587 24.11 3.7612 0 0zm-15.875-4.1724c7.3138-3.7468 10.465 3.4146 0 0zm14.445 0c2.5912-7.5595 11.497 6.6156 0 0zm-6.1908-3.4394c9.357-3.3508 6.7209 3.4424 0 0zm3.0954 26.901c-2.2327-5.2964-3.4565 3.7301 0 0zm-9.1797-1.3315c-8.1412-11.029-30.442 2.2863-8.4592 0.6486 1.5118-1.1421 7.9261 3.2902 8.4592-0.6486zm-12.832-2.1814c2.3276-3.2511 2.3277 3.2511 0 0zm-69.475 2.3325c-0.98833-8.8122-6.7158 0.38658 0 0zm443.59-1.3642c14.593 5.0978 22.281-9.3998 3.5951-4.2571-9.458 1.6462-44.459-1.6061-15.045-1.8317 13.326 3.8541 49.902-6.1595 16.878-3.5582-10.921-1.9056-55.605-4.6992-37.658 10.585 10.752 0.006 21.478-0.96344 32.23-0.93829zm-436.02-3.1755c-3.9246-10.449 3.8628-26.321-9.3989-9.2207-5.3594 6.882 3.0877 12.169 9.3989 9.2207zm473.94 1.5521c19.498-2.1145-9.9157-3.0674 0 0zm39.209-3.0542c-8.7601-10.385 10.151-12.297-9.0491-17.501-10.927-1.7673-15.885 8.4057-16.72 6.1693-10.593 2.0257 17.766 9.1484 21.89 12.647 1.2931-0.43861 2.5861-0.87723 3.8792-1.3158zm-17.885-12.496c2.3534-2.7441 0.74536 3.8872 0 0zm2.3124 12.422c-3.2237-4.1702-3.0349 5.4024 0 0zm-464.84-0.69483c-4.9624-7.6973-5.1997 3.5318 0 0zm91.065-0.14592c21.78-2.9027 46.44-45.666 19-42.338-16.332-5.2482-30.643 29.827-19 42.338zm2.917-14.077c1.2081-4.8627 2.214 2.7705 0 0zm7.065-8.8395c9.2671-12.288 0.46361 2.8734 0 0zm5.159-6.5086c4.786-17.971 12.748-10.359 0 0zm-11.006 29.922c-2.3277-3.2511-2.3276 3.2511 0 0zm-107.7-1.1468c-9.6895-10.96-16.662 8.2718 0 0zm138.38 0.45896c5.3247-4.9948-15.721 4.5607 0 0zm338.54-1.9858c-12.671-9.2301-25.754 6.3324-5.0064 0.52835 1.6688-0.17612 3.3376-0.35223 5.0064-0.52835zm-361.99-1.4536c1.4672-3.3732-13.622 4.9787 0 0zm275.19-2.822c11.71-0.16947 52.651-2.5518 20.473-4.4928-10.585-5.5373-58.483 6.8631-20.473 4.4928zm-363.03-1.7293c-12.99-7.3326-51.789-5.1183-16.21-0.91593 5.2999 1.0631 10.818 2.1637 16.21 0.91593zm412.51 0.42399c4.1576-2.4868-14.546 3.877 0 0zm-308.51-2.7515c-3.0662-3.4852-3.0662 3.4852 0 0zm-99.916-4.2992c6.2008-6.6063 0.55539-21.478-1.7173-5.0416-8.9077 2.8061-34.482-0.69089-11.539 6.2704 4.0344 0.84747 10.823 3.9763 13.256-1.2289zm362.87 1.5434c14.139 3.8512 43.129-6.6477 11.751-4.5039-11.112-3.0222 27.188-4.8233 35.652-3.6763 25.256-0.91657-6.7013-3.7336-5.1603-3.5241 10.342 0.11026 49.011-4.0824 17.298-5.5208-22.412 1.2045-62.042 12.215-73.313 4.7794 10.352 3.2063 57.812-3.8683 22.678-5.4299-5.1793-0.16167 26.807-6.9069 2.967-6.8601-11.816 0.80964-34.198-0.57711-10.263-0.3531 12.122 4.1405 40.394-10.765 11.451-6.5564-15.82-7.2453-49.849 10.381-17.718 13.438-17.181-3.7901-29.135 14.623-4.8944 13.939 17.257-3.3188-34.646 3.8799-3.337 4.8359 4.2745-0.002 8.6899 0.55046 12.89-0.56811zm-352.37-0.29904c1.8906-10.251-7.5588 2.2798 0 0zm96.558-0.74697c-7.0259-7.4301-8.3982 7.5928 0 0zm-139.38-2.5575c-12.41-9.6458-19.668 7.5416 0 0zm141.93-1.6237c-4.8606-4.7427-9.2636 6.9099 0 0zm292.97 0.46682c2.3507-4.9723-9.0961 4.5842 0 0zm30.954-0.13929c16.317 5.7343-5.7469-7.5409 0 0zm-490.11-1.9748c10.182-3.7665-8.9124-0.22789 0 0zm515.95-0.0769c-7.5919-5.0815-17.641 2.2207-3.3268 0.40556l3.3268-0.40556zm-348.11-1.98c0.79247-5.0204-8.0579 5.6027 0 0zm-113.98-1.802c-15.587-8.334-21.649 8.1081 0 0zm437.77 1.1235c-1.6022-7.8855-7.2631 4.9103 0 0zm13.495-0.35629c-11.72-6.2832-14.398 4.2795 0 0zm-437.38-1.0289c-1.5802-2.9063-1.5801 2.9063 0 0zm444.96-1.183c-7.0428-9.1032-1.7263-35.672-20.118-23.017-7.393 10.061-35.835 7.7049-8.7014 9.662 18.455-3.7001 16.467 16.615 28.819 13.355zm-9.3495-23.996c2.0248-1.4302 1.2376 1.5934 0 0zm-313.91 23.368c-4.4569-2.3152-9.7604 3.8154 0 0zm-87.302-0.25241c15.807-1.3025-13.866-4.5904 0 0zm68.65-0.13758c0.80705-7.6934-7.2338 4.4484 0 0zm-89.974-0.52246c-2.2888-12.702-19.74 7.0755 0 0.00006v-0.00006zm-33.362-0.71571c4.1382-10.907-45.134-0.52556-14.242-0.30279 4.7484 0.04 9.4962 0.14393 14.242 0.30279zm140.84-1.8621c4.8488-7.5445-15.604 7.433 0 0zm-91.585-0.92903c20.635-0.74858-9.196-4.2598-0.47991 0.15428l0.47991-0.15428zm354.14-2.196c21.089-0.85256 7.4108-38.913 28.969-25.399 25.7-3.2832 13.086-31.377-7.6664-20.03-8.8207 2.4565-39.699 1.1785-14.155-0.44728 18.946-2.6183 11.5-7.9329-2.366-6.1891 37.654-5.227-24.842-12.175-20.296 12.342 7.8798 2.7912 28.2-0.55134 7.8155 1.8871-8.9019 0.45559-56.601-4.223-26.981 4.883 32.858-3.2488-36.256 2.9392-4.2345 5.9422 20.748-2.306 60.393-11.78 69.372-5.9559-7.9111-1.037-52.051 0.83161-25.371 6.107-17.333-6.8075-14.655 10.811-2.3898 12.813 0.75716 4.3149-13.155 13.746-2.6971 14.048zm6.5586-14.864c-9.3913-14.655 17.374-1.4366 0 0zm3.8041-24.132c13.407-3.2376 9.5588 2.3071 0 0zm16.509-0.72847c-0.0631-7.9197 6.8544 4.9913 0 0zm-305.82 40.855c1.0962-6.529-10.623 6.5781 0 0zm38.239-0.0984c11.085 0.44775 4.8483-7.6722 0 0zm261.39 0c16.688 3.1647 27.104-9.0191 4.3052-5.8696-13.709-0.67952-30.5 9.5904-4.3052 5.8696zm-387.96-1.792c16.527 1.8182 25.437-9.0127 3.5968-3.9646-12.082 0.0846 35.289-8.2356 3.901-6.7077-21.952 10.097-45.885 1.1197-67.845 7.8434 19.668 0.38462 40.483 5.0122 60.347 2.8289zm102.12-0.0378c10.25-6.513-17.767 4.1262 0 0zm-5.7667-3.7953c16.081-8.5022-30.955 2.5286-3.3418 0.19181l3.3418-0.19181zm214.56-1.1569c-6.0665-4.7014-8.1612 6.2879 0 0zm-344.11-2.3528c17.033 2.4756-15.276-13.587 6.3172-4.8819 28.249 8.3046-23.826-23.075-16.704 1.9448-22.681-4.6746-14.732 6.8476 2.7051 3.0556l3.8399-0.11218 3.8419-0.006zm115.73-0.0476c17.628 0.94319 23.591-6.8861 2.3281-3.5758-6.2827-0.30092-13.863 4.2424-2.3281 3.5758zm55.722-2.0785c22.183-4.1191-17.037-2.6626 0 0zm-130.7-3.4721c40.45-10.948-47.722 2.1877 0 0zm393.83 0.77085c1.0386-23.2-25.034 10.706 0 0zm-242.49-0.65c15.992-5.7869-13.983-2.3289 0 0zm176.1-0.24284c14.937 5.9495 23.784-10.665 3.6146-5.458-11.256-3.0104-33.512 8.2036-9.8416 5.6821l3.1133-0.11618 3.1136-0.1079zm-382.65-0.617c-10.966-17.801-27.224 3.8374 0 0zm150.6-0.30706c-10.442-9.6982-36.666 4.8115-9.9965 0.61246l5.0053-0.19653 4.9912-0.41593zm-168.96-1.5463c-3.7747-8.5005-1.2264 4.5878 0 0zm204.62-0.0357c7.5812-5.3402-5.9574 4.5129 0 0zm8.6 0.072c18.131-5.6591 0.38829-13.609 0 0zm-148.92-2.8349c12.289 3.6648 28.661-9.3713 7.1669-4.056-12.021-1.016-39.76 5.6818-11.092 4.4943 1.3084-0.14609 2.6169-0.29219 3.9253-0.43828zm411 0.70975c12.214-6.294-9.9978 0.23925 0 0zm-75.482-1.6792c18.46 4.3922 17.163-12.143-0.51013-6.2358-12.752-4.0994-28.182 9.6506-6.8419 6.6438l3.6746-0.22622 3.6774-0.18182zm-402.62-2.3225c-5.506-9.2129-2.5682 4.1142 0 0zm24.351-1.7234c-13.899-10.51-18.893 13.199 0 0zm453.41 1.5848c17.587-6.8647-3.5318-12.898-0.5868-0.18945l0.5868 0.18945zm-425.67-0.81c12.502-9.096-36.9 0.70595-6.9396 0.58289l3.4727-0.25663 3.4669-0.32626zm173.73-1.7344c-3.6926-6.6144-1.1241 4.4508 0 0zm128.46 0.10413c-2.1143-1.7204-0.97128 2.8256 0 0zm-290.01-1.81c0.0922-10.576-3.3347 7.7879 0 0zm16.758 0.65613c26.009-8.0417-29.127-0.31829 0 0zm175.21-0.0113c14.454-5.1443-4.0125-5.2246 0 0zm-232.93-2.6839c30.189 2.4022-5.2692-15.868-6.9777 1.402l2.5117 0.0354 4.4661-1.4374zm356.86-0.95667c10.17-12.669-7.1517 0.63818 0 0zm-319.46-1.3465c29.455-4.768-24.648-44.986 2.0091-16.149 7.3572 24.884-42.058-3.0022-16.156 18.353 4.7802 1.2947 9.8212-0.13101 14.147-2.2036zm27.913-2.2546c3.7644-12.893-29.298 5.6985-1.5086 0.15092l1.5033-0.15036c-0.00061-0.00034 0.007-0.00017 0.005-0.00056zm25.887-4.3597c-10.569-0.29938 1.4545 9.5754 0 0zm149.95 4.477c1.2093-9.0995-10.099 5.7094 0 0zm-232.5-3.4642c-4.5253-12.215-22.123 6.273-0.84898 0.0687l0.84898-0.0687zm24.479-0.19763c12.804-6.5477-13.92 0.8473 0 0zm211.47-2.0423c7.017-6.6694-13.581 4.4057 0 0zm-178.11-1.1587c17.401-11.687-22.438 2.6926 0 0zm24.419-2.385c-3.4808-3.8342-0.37637 10.443 0 0zm-57.65 0.87286c19.631-3.528-19.701-14.481-0.63174-5.7961-9.0418 2.1348-14.01 8.0307 0.63174 5.7961zm21.766-4.4491c2.7742-8.4998-12.038 11.655 0 0zm192.03 2.2356c-4.3355-9.3094-12.19 7.4793 0 0zm27.515-3.0548c3.0188-10.875-7.9002 0.16558 0 0zm-203.84-0.39c19.393-6.1829-21.176-3.759-1.1144 0.0758l1.1144-0.0758v0.00002zm207.96-0.69726c10.969-11.356 45.587-26.193 40.189-36.817-2.4307-1.5056-19.329 13.643-19.104 13.247 10.848-12.326 3.8594-20.043-2.9401-3.1221-5.4125 9.3258-10.552 18.896-18.145 26.692zm29.309-29.868c8.6431-6.2335 5.7571 3.1779 0 0zm-14.864 28.543c-2.3455-9.3222-7.955 7.7037 0 0zm93.545-1.4262c13.829-20.076-21.941 1.1176 0 0zm59.35 0.68787c17.474-6.5863-13.914 1.32 0 0zm-4.1088-2.5795c13.907-7.9638 2.865-6.5914-3.4839 0.84609l3.4839-0.84609zm-349.77 0.008c-2.7824-6.8426-1.8938 4.1233 0 0zm220.18-0.25967c-7.1653-6.7492-11.171 6.6478 0 0zm17.771-0.97217c14.453 8.7402 39.95-17.665 10.416-8.7405-19.007 10.149 19.036-21.164-6.1351-7.8641-6.1736 3.487-27.348 23.458-4.2809 16.605zm17.381-7.7039c9.4048-4.6867 9.4163 1.5386 0 0zm-65.404 6.7482c19.685-21.577-14.372 1.971 0 0zm19.759-0.3999c15.57 0.50802 42.512-29.32 13.537-14.959-4.3328 2.0106-22.658 8.7957-13.537 14.959zm2.3093-3.7833c1.5801-2.9063 1.5802 2.9063 0 0zm7.3186-1.1652c-1.8005-3.7379 4.2564 0.94749 0 0zm-0.62908-5.4442c1.9499-5.6318 8.551 3.8134 0 0zm-33.555 5.7495c15.323-6.6672-16.389-7.858 0.55832-10.571-5.068-25.493-21.747 25.494-0.55832 10.571zm167.05 0.34393c9.0493-27.376-13.032 8.3998 0 0zm-78.963-1.9373c-3.4683-4.7197-5.6807 6.2572 0 0zm5.632-0.76814c-3.2583-2.2541-0.55286 1.8191 0 0zm-313.52-3.631c32.101 6.7588-11.184-51.038 7.5285-17.666 3.6002 24.552-39.505-3.7098-17.679 13.674 2.6474 2.5822 6.379 4.447 10.151 3.992zm-43.611-3.8163c-4.2181-12.47-19.158-10.944-4.7725-0.84471l4.7725 0.84471zm403.09-2.736c-4.0222-9.564-11.622 7.0094 0 0zm-355.83-0.51668c8.4704-11.893-16.94 3.1017 0 0zm293.05-1.6885c-3.5107-2.2135-1.6154 1.6362 0 0zm-20.967-1.6132c4.5321-9.9058-16.186 8.0148 0 0zm14.617-0.66157c-4.4851-3.6308-5.5392 3.7541 0 0zm4.695-3.8964c-6.6285-5.436-8.2593 5.3861 0 0zm-344.03-3.3029c-2.7221-16.772-3.9644 9.6602 0 0zm324.99 2.0402c14.032-4.4641-8.4702-1.7064 0 0zm15.382-1.0318c-1.3924-2.8573-0.98464 2.6863 0 0zm-5.159-2.7515c-3.8131-3.6077-3.8131 3.6077 0 0zm-10.156-0.84844c17.573-5.8051-13.191 1.4935 0 0zm-318.32-3.4508c21.889-9.6307-9.8687-15.621-3.4867 2.5057l1.4786-0.44833 2.0081-2.0574zm304.86 1.4601c19.635-0.58183-7.2874-4.2766-0.0675 0.0107l0.0675-0.0107-0.00005-0.00005zm-230.64-1.27c10.829-2.5743 18.862-18.733 4.0376-6.0058-10.598-0.682-1.4874-19.342-11.846-16.628 19.559-21.731-21.202 1.9648-1.5566 12.984 2.8526 3.471 6.1563 6.5198 9.3647 9.6492zm220.27-1.5228c5.3968-4.7729 16.987-15.506 0.82306-8.9109 14.245 1.4902-19.764 5.2588-0.82306 8.9109zm20.737-3.2763c8.7691-11.397-18.435 1.779 1.1383-2.6495-4.1565-0.17891-13.297 7.3501-1.1383 2.6495zm-303.18-0.70391c-1.3924-2.8573-0.98464 2.6863 0 0zm87.501-7.7386c7.1932-7.5538 37.616-31.114 27.068-29.475-11.036 7.5756-21.731 16.876-27.068 29.475zm217.47 0.24743c-2.4985-5.2001-9.391 5.6076 0 0zm-15.852-2.1391c16.591-4.863-19.848 1.7492 0 0zm-294-1.1084c-1.6926-3.3612-2.4968 4.2528 0 0zm89.145 0.0766c-4.3772-6.8072-2.2631 5.2628 0 0zm-72.011-7.9105c28.017-12.472-20.255-11.347-3.1769 3.248 1.059-1.0826 2.1179-2.1653 3.1769-3.248zm261.3 2.9695c-3.2583-2.2541-0.55285 1.8191 0 0zm-12.511-0.48169c-2.9152-2.7182-4.1098 1.9638 0 0zm19.791-2.6168c-1.8347-4.3173-2.4745 3.5276 0 0zm-91.768-3.6543c-3.4886-4.824-7.5822 5.068 0 0zm92.614-0.72847c-5.6598-5.609-2.5261 5.8636 0 0zm81.169-8.9478c-4.0176-3.2557-1.956 6.6614 0 0zm-13.158-3.1399c-8.8215-11.734-16.627 0.48934 0 0zm11.877-1.1544c1.5892-9.8967-6.7768 11.321 0 0zm3.3442 2.6207c-1.5802-2.9063-1.5802 2.9063 0 0zm-330.1-1.3273c20.411-13.139-2.2964-20.191-2.4853-1.4078l2.4853 1.4078zm319.44 0.6394c16.168-17.228-35.611-14.747-9.1129-6.8886 2.7178 2.6099 5.0571 6.2296 9.1129 6.8886zm-325.71-2.586c-0.89722-9.7241-5.4807-0.79148-1.0392 1.7695l1.0392-1.7695zm25.718-9.3902c1.4206-16.767-14.39-7.2035 0 0zm275.65-4.2112c-4.4812-7.0062-4.9296 10.187 0 0zm-262.85-2.3512c1.156-9.2721 13.19-20.952-5.055-12.839-4.463 4.178-2.4993 14.932 5.055 12.839zm260.3-2.1752c9.5642-24.09-44.676-10.377-11.811-3.1468 3.8924 1.2087 7.8468 2.2042 11.811 3.1468zm6.9824-3.1898c-2.4514-5.5136-2.3543 4.7518 0 0zm-35.766-6.6576c7.0502-7.45-5.6239 2.3376 0 0zm-3.9442-2.2286c18.722-22.462-34.395-14.12-13.466-9.5194 5.2891 0.25207 12.708 3.6261 13.466 9.5194zm-197.31-0.57199c0.43367-10.275 19.461-18.346-2.8192-13.089-6.2296 2.993-5.4196 14.225 2.8192 13.089zm-9.9741-5.5972c-3.8356-13.995-0.45223 11.038 0 0zm219.5-2.127c-1.5934 1.2376 1.4302 2.0248 0 0zm-3.685 0.33575c-0.5782-8.5181-4.9975 2.5736 0 0zm-35.313-3.3405c2.6193-9.1642-7.2201 10.195 0 0zm-139.82 0.4109c-6.7228-9.1496 26.858-13.095 2.7756-15.278-6.3597 1.701-14.61 14.713-2.7756 15.278zm132.32 0.34394c-1.5801-2.9063-1.5802 2.9063 0 0zm-122.59-3.3253c-3.0935-3.7248-3.1177 5.5453 0 0zm7.2732-0.19429c8.0414-6.8866-4.4524-5.803 0 0zm-26.149-2.4993c3.4617-12.128-7.4135-2.3217 0 0zm157.11 0.48389c7.5992-9.9344-9.4938 4.6182 0 0zm-36.724-0.31192c-1.8211-4.2113-2.4548 4.4983 0 0zm-126.05-3.9755c-6.3742 0.9445 4.7297 5.5675 0 0zm118.23 3.3612c-2.2976-6.6533-4.7018 5.4801 0 0zm31.642-1.1506c-15.001-22.661-23.769 7.8722 0 0zm-90.681 0.28255c5.0834-11.692-7.051 3.6564 0 0zm97.434-1.8381c-3.236-6.8784-1.2655 6.6501 0 0zm-113.13 1.0814c-0.72202-8.2699-6.5026 1.2841 0 0zm40.949-1.4779c-2.0424-6.2899-11.501 8.4026 0 0zm-33.106-3.7088c14.031-15.397-26.007 2.1943 0 0zm-6.2482-4.3828c-0.8118-4.8092 4.9369 2.9869 0 0zm84.15 1.8749c-1.542-6.8556-3.2102 6.4852 0 0zm-97.678-0.0812c-2.1143-1.7204-0.9713 2.8256 0 0zm33.231-2.7635c-1.305-3.993-2.0139 7.6864 0 0zm27.302-0.97921c-1.4217-6.203-0.51745 5.9892 0 0zm-165.98 485.74c2.3089-3.2428 2.0054 5.5532 0 0zm-26.26-356.06c2.5193-3.3234 2.9411 3.5623 0 0zm358.96-0.14658c-25.994-12.983 19.561-16.17 0 0zm3.0434-3.4648c-0.98417-10.727-10.071 5.7426 0 0zm21.416 3.3533c7.1184-6.8427 7.258 3.3303 0 0zm-343.69-9.78c2.0248-1.4302 1.2376 1.5934 0 0zm337.39-8.1618c-10.185-6.967-8.7174-22.462-0.26312-4.3818 1.4687-0.008 8.3639 9.0559 0.26312 4.3818zm-12.21-1.0122c0.97128-2.8256 2.1143 1.7204 0 0zm3.2674 0.19171c2.7918-2.2258 1.4615 1.6327 0 0zm-361.65-1.61c1.7976-3.0336 2.1173 3.2006 0 0zm7.3815-0.45121c3.4303-2.5087 1.7225 1.7366 0 0zm362.52-4.5331c-11.563-15.321 10.641 8.4465 0 0zm-13.585 0.51312c3.3156-5.5122 3.4066 3.9501 0 0zm-329.49-5.503c6.6225-10.436-0.48517 5.6438 0 0zm4.4498 0.30939c-0.90161-3.9258 3.529 1.9849 0 0zm317.82-1.3412c8.3927-16.559 18.705-0.95316 0 0zm-51.246-4.2234c4.3687-8.2254 5.0276-10.502 4.9033-11.423 23.036-17.383 4.4025 8.4155-4.9033 11.423zm66.724-2.3295c3.9808-9.1802 3.7746 3.4468 0 0zm-369.39-1.7232c1.9618-2.8741 2.6264 1.8994 0 0zm354.6-2.7299c-19.933-13.956 15.201-1.0742 1.1862 1.0899l-1.1862-1.0899zm-68.673-4.5858c3.7424-1.9167 2.9404-1.5059 0 0zm71.431-0.21807c1.2268-2.9012 2.5321 2.0601 0 0zm-4.6126-2.8567c-13.463-11.497 11.368 1.9661 0 0zm-294.62-1.3346c9.6516-3.1403 15.504 2.9074 0 0zm247.29-1.3228c3.0662-3.4852 3.0662 3.4852 0 0zm17.655 0.22929c-2.3464-3.8611 3.7578 1.323 0 0zm-16.655-6.143c9.7603-5.717-1.6402 4.7118 0 0zm-241.07-0.96499c2.3276-3.2511 2.3276 3.2511 0 0zm-35.76-2.08c2.3277-3.2511 2.3277 3.2511 0 0zm25.451-5.7716c6.3353-2.0953 5.2281 1.4888 0 0zm11.006-0.4192c3.0662-3.4852 3.0662 3.4852 0 0zm8.3359-0.63753c4.2293-5.2013 11.169 3.6725 0 0zm191.43-0.63774c7.8634-5.5197 10.705 2.842 0 0zm-179.47-1.4762c2.8722-5.1234 6.7145 3.7178 0 0zm-30.795-5.2663c3.4304-2.5088 1.7225 1.7369 0 0zm8.8562-0.11894c15.257-2.6734 14.435 2.1363 0 0zm22.627-0.84333c-1.7111-2.8574 7.0796 2.9307 0 0zm176.44-0.65014c3.0662-3.4852 3.0662 3.4852 0 0zm-186.41-6.3138c7.5652-3.5077 15.143 0.85948 0 0zm13.757-6.7558c1.5802-2.9063 1.5802 2.9063 0 0zm4.1272-1.3758c5.3016-4.6366 0.35555 3.4627 0 0z"/>
  </g>
  <metadata>
    <rdf:RDF>
      <cc:Work>
        <dc:format>image/svg+xml</dc:format>
        <dc:type rdf:resource="http://purl.org/dc/dcmitype/StillImage"/>
        <cc:license rdf:resource="http://creativecommons.org/licenses/publicdomain/"/>
        <dc:publisher>
          <cc:Agent rdf:about="http://openclipart.org/">
            <dc:title>Openclipart</dc:title>
          </cc:Agent>
        </dc:publisher>
      </cc:Work>
      <cc:License rdf:about="http://creativecommons.org/licenses/publicdomain/">
        <cc:permits rdf:resource="http://creativecommons.org/ns#Reproduction"/>
        <cc:permits rdf:resource="http://creativecommons.org/ns#Distribution"/>
        <cc:permits rdf:resource="http://creativecommons.org/ns#DerivativeWorks"/>
      </cc:License>
    </rdf:RDF>
  </metadata>
</svg>
