<?xml version="1.0"?>
<svg xmlns:rdf="http://www.w3.org/1999/02/22-rdf-syntax-ns#" xmlns="http://www.w3.org/2000/svg" xmlns:cc="http://creativecommons.org/ns#" xmlns:dc="http://purl.org/dc/elements/1.1/" id="svg2916" viewBox="0 0 600.07 591.96" version="1.1">
  <g id="layer1" transform="translate(-58.859 -269.71)">
    <path id="path3000" d="m338.69 861.37c-79.85-6.14-158.73-42.54-209.78-104.97-23.9-26.83-39.126-59.9-52.997-92.55-21.666-57.38-21.788-121.23-5.456-180.02 5.395-19.54 16.572-41.32 26.291-60.85 16.852-31.84 41.022-59.21 68.002-82.17 25.345-23.818 57.497-39.519 89.408-52.969 11.227-4.6167 42.837-10.849 14.373-2.18-23.592 9.0749-47.496 17.948-68.441 32.274-85.218 52.265-139.07 151.09-137.95 251.13 0.41625 78.005 35.682 153.8 91.101 207.98 13.076 10.461 26.173 22.804 40.879 29.056 7.4284 9.4715 25.655 18.042 35.878 20.373 7.6464 7.5921 15.828 4.7325 24.848 12.263 12.635 7.3994 33.647 4.8107 33.145 9.5365 22.78 5.8233 28.073 2.1834 46.931 7.7783 30.928 2.3892 62.466 0.65358 92.462-7.0065 13.18-5.456 25.332-8.108 42.309-12.66 35.032-15.408 69.309-34.591 95.874-62.712 47.494-46.39 79.875-109.52 86.516-176.06 0.92921-12.463-0.50487-17.061 0.10634-22.833 3.678-13.458 5.0761-49.224-4.8836-52.627-7.0204 7.6284 11.085-18.172-2.6123-7.0616 8.2974-16.595-4.4989-3.6823 2.3184-18.604-2.474-18.451-10.328-13-8.6293-24.638 0.65073-10.989-10.016-2.8921-5.7397-16.081-9.9811 7.9613 2.8361-16.98-9.5852-10.216 10.085-14.657-12.763 1.1613-0.44979-13.342-7.5551-2.528-3.3033-14.565-11.785-11.728 8.2741-15.317-13.44 4.5455-2.1621-13.012-9.4825 4.2012 0.21035-13.158-10.902-4.4414 4.286-14.669-8.7968 2.6562-1.4732-13.921-12.829 9.6805 2.8384-14.132-12.256-9.638-6.3979 5.0285 6.7062-14.768-7.2032-4.1222 12.34-13.588-19.394-17.43-10.234-19.698-20.816-18.903-5.7523 14.699 6.478 20.04 9.0983 13.339 14.648 3.7964 15.766 19.302 23.683 31.356 40.21 68.583 49.27 106.63 9.6384 50.033 10.087 103.64-8.5466 151.55-18.583 57.166-56.197 108.78-105.87 143.09-48.444 32.488-106.48 52.19-165.4 51.373-33.58 1.4541-68.264-5.6992-100.02-17.093-41.14-15.12-78.67-38.91-108.84-70.75-19.39-23.53-41-47.8-50.451-76.97 17.071 27.88-1.593-25.51-3.78-5.64-21.476-48.96-29.413-103.81-19.536-156.75 8.3391-44.337 24.813-87.357 52.536-122.84 34.128-47.311 83.875-81.327 138.44-100.24-1.9716 3.3082-14.308 16.483 3.2189 3.847 5.2637-14.6 39.61-12.014 56.083-17.381 28.669-2.7843 57.076-3.8297 85.443 2.9181 51.237 8.1064 99.058 32.478 138.82 65.345 21.305-11.277-21.389-15.188-8.9756-19.196-15.515-12.174-34.493-24.632-52.135-30.54-8.5872-5.9381-28.138-13.955-41.953-18.023-51.877-15.804-107.55-15.197-160.2-3.4413 13.4-9.5613 49.588-10.186 71.896-11.079 31.876-0.91716 63.295 4.7532 93.717 13.626 36.489 9.5444 70.254 28.629 99.785 52.131 67.214 54.322 107.17 140.42 106.52 226.98 0.70033 39.663-8.1383 78.859-23.214 115.24-9.0526 22.396-21.187 44.395-35.722 63.387-38.766 51.976-94.614 90.642-156.9 108.37-33.638 10.301-69.253 13.146-104.37 11.831zm3.8621-16.462c19.641-9.4637-34.254-1.2674 0 0zm29.897-0.4379c3.3082-9.4406 14.66-8.8189 8.0022-15.185 12.791-4.6869-2.6013-3.2632 4.075-12.271-4.4849 12.363-15.424 0.89385-18.195 7.3402 2.3378-11.431 9.7205-19.431-5.3981-4.8916 2.7484 9.5962-7.6275 11.412-5.9749-1.2983-9.8014 6.7774-9.2212 10.908-2.2139 7.4835 4.3536 11.532 23.405-2.4778 10.242 9.2844 10.212 9.1344-24.732-11.45-19.947-9.6376 12.182-6.4231 22.619-23.65 4.8537-6.9865-29.148 14.471 8.2726 20.689 7.8224 23.442-10.171 5.7776 14.694 3.5848 16.734 2.7204zm24.757-1.6289c16.46-13.021-35.46-0.41604-7.3709 0.91981l4.9361-0.35575 2.4348-0.56406zm-71.913-0.63915c3.4377-12.16-36.544-1.822-9.0715 0.34454l5.2404 0.0669 3.8311-0.41143zm83.548-1.3633c11.601-4.521 32.01-6.0165 7.5285-8.392-2.7571-0.53543-17.142 11.297-7.5285 8.392zm-108.14-3.1694c-13.901-17.402-33.835 2.1209 0 0zm35.478-0.1054c0.4471-5.1525-17.407-11.584-16.067-16.32-13.978-11.359-24.977 2.6589-11.266 5.0059 3.3298-11.373 9.2471 23.077 27.333 11.314zm-19.736-10.503c1.7542-2.535 2.6311 2.4537 0 0zm88.288 9.5817c6.5421-11.444 40.605-1.6844 28.341-16.853 2.1225-1.2272 34.253 9.6647 25.043-5.1028-11.53-0.19879-26.261 4.7703-6.4032-2.0865 10.36 0.10408 38.612-19.13 18.983-13.319-8.5033-6.8622 5.3982-18.059-11.041-5.3577-15.691 17.003 12.515-20.602-9.7783 3.0887-16.802 13.347 19.991-25.829-5.2718-1.7849-13.141 11.814 13.69-23.412-0.66575-4.8436-4.7117 5.2304-28.465 24.338-15.273 10.607-21.706 0.9632-8.9602 24.377-26.446 20.384-14.684 4.2287 6.104 5.2059-12.226 9.1967 3.52 2.7554 9.7822 7.9283 14.738 6.07zm4.6197-7.3343c-13.622-5.5558 18.783-4.6346 9.0683-17.685 25.248-3.9886-6.5444 15.416-9.0683 17.685zm15.228-12.901c-2.0288-8.0275-7.4245 2.4093 0 0zm1.5657 3.74c8.2348-0.76512 0.10707 2.1701 0 0zm8.3427-6.1155c-5.4913-22.927 21.949 2.0159 0 0zm14.742-4.5876c-6.9582-6.5045 8.4352-7.2251 6.7254-5.6646 1.462 3.4012-3.3136 7.6949-6.7254 5.6646zm-17.807-3.2339c5.9689-5.6184 1.3128 1.6822 0 0zm28.817-3.2968c-1.7757-18.8 15.329 9.1938 0 0zm-152.89 31.929c-10.371-8.0791-11.216-15.328-12.461-18.923-2.9378 6.6027-4.27-9.2442-9.9649 4.2323 10.491-1.1956 5.9856 17.379 22.426 14.691zm135.02-1.6011c17.178-18.766-26.869 5.1657 0 0zm-132.16-1.12c-3.3372-2.6903 1.2024 4.3339 0 0zm-35.525-0.94914c-6.5924-13.804-33.648-5.2152-8.555-0.68441 2.1219-0.48938 6.2491 2.8908 8.555 0.68441zm7.8198-1.9709c-0.71816-15.147-30.152-16.102-7.8519-2.3218 1.4323-0.55907 5.5859 4.7313 7.8519 2.3218zm176.5-1.4348c27.64-22.517-19.355 2.9058 0 0zm-122.37-3.08c19.817-15.089-14.481 5.691 0 0zm-6.8281 0.25769c-1.4278-4.8333-6.7656 4.1069 0 0zm-76.177-2.4428c-7.929-15.091-27.602-2.2634-3.8313 0.66773l3.8313-0.66773zm138.99-1.9676c8.8901-9.979 15.169-19.201-0.2567-4.4272-5.2375 0.39953-5.3677 11.432 0.2567 4.4272zm-129.14 0.0127c-6.9808-6.0297-28.951-24.91-12.065-3.3949 3.1218 3.3719 7.5084 6.468 12.065 3.3949zm137.48-0.59302c6.348-11.688-7.8656 1.9829 0 0zm-68.798-0.7671c11.903-12.722-36.507-18.88-32.542-5.133 12.054-2.8669 20.571 6.6676 32.542 5.133zm-6.1597-3.5437c-16.332-6.6836 9.2607-2.1786 0 0zm48.62 0.51755c8.4908-11.508-12.071 9.2209 0 0zm7.5018-0.25629c14.076-8.8844 19.181-21.65 1.7028-6.2759-4.863 0.31012-10.408 13.916-1.7028 6.2759zm-94.867-2.1928c12.258-1.7829 44.421-38.496 18.898-17.466-22.698 22.518 4.0396-5.5916 6.4964-11.536-11.418 11.045-32.72 29.097-10.827 6.2397 20.469-28.789-50.02 45.194-13.3 14.892 0.56333 2.2324-16.736 19.376-1.2675 7.8707zm188.43 3.4814c26.491-17.706-27.383-7.2158-6.2868 0.4705 2.0214 0.38639 4.4843 0.90422 6.2868-0.4705zm11.732-2.5104c18.999-15.599-14.974 0.25752 0-0.00003v0.00003zm-96.149-0.28656c18.678-13.902 2.2654-11.827-1.6743 0.97756l1.6743-0.97753v-0.00003zm-161.75-0.61c-7.7532-16.729-26.193-4.3439 0 0zm113.45-0.28626c-2.3011-3.0454-2.487 3.5904 0 0zm21.714-0.1222c-0.66445-6.8245-6.1459 5.2009 0 0zm44.016-0.77175c5.6247-11.024-11.78 5.3593 0 0zm-142.11-2.2406c6.6369-5.4888 35.67-34.842 11.855-16.316-0.66653 2.5331-26.297 25.005-11.855 16.316zm11.063-3.3245c10.536-7.5895 34.381-37.177 9.9394-14.483-4.5757 4.1943-30.236 32.106-9.9394 14.483zm-37.187 3.2416c-2.4462-16.615-24.181-13.318-6.6141 1.0341 0.27706 0.38704 8.0706 3.3487 6.6141-1.0341zm101.29 1.0359c10.182-5.5049 26.382-4.2484 40.002-7.6111-0.0986-0.2882 30.718-24.084 30.491-16.343-20.534 2.4989 22.784 14.952 7.8188 3.0531 17.477 7.1851 16.155-8.7485 2.1648-3.1092-17.696-0.20164 5.4626-7.4987 4.1696-7.3668-1.7612-17.025 25.439-23.579 36.322-35.3 18.378-2.907 10.276-16.429 23.66-25.655 7.0027-16.976-13.175-38.674-14.938-23.623-8.953 5.1684-18.772 20.029-21.656 22.815-5.3989-10.494 3.7408-1.6853 6.2602-15.475 21.224-5.095 4.7994-22.573-8.7856-8.1808-12.003 15.555-11.831 39.514-17.814 61.041-12.155 18.587-33.073 4.3175-41.229 28.995-6.5312 2.0318 19.514-23.835-0.22947-6.7767-9.7644 9.1295-15.858 18.182-14.675 0.19307 9.4204-8.8365 6.7876-15.964 1.1213-14.86 10.494-8.9989 10.11-20.279 3.3499-19.58 3.6342-25.649-30.977-22.504-28.417 2.9581-8.2435 3.8459-13.214-22.746-29.518-15.227-19.563 3.4755 1.3962 9.3136 5.7832 25.303 8.6355 8.5719 42.602 10.988 35.976 19.467 11.195 14.911-6.3517 2.5468-7.2252 0.32981 5.2604-7.8546-10.285 6.2818-3.9663-5.4292-4.8131 4.5069-14.817-9.3649-4.7834 7.8794 8.907 9.7618 36.978 13.378 8.1686 11.797-12.849-9.779-18.244-6.6414-33.659-24.253-7.6736-12.576-13.487-15.78-17.981-29.655-10.143-2.7051 7.0491-25.118-10.135-24.644-7.722-12.49-4.6177-18.026 3.1175-16.21-6.5496 13.68 9.994 17.304 19.571 20.051 31.102 10.727 66.415-1.8065 90.684-22.332 21.539-15.847 49.852-25.049 75.598-13.26-6.2582-21.169-11.691-47.329-8.4079-71.944-2.5422-17.459-2.772-66.964 24.126-42.206 1.9004 17.236 34.993 49.259 20.4 14.749-4.3716-15.392 5.4785-51.481-6.6173-55.942-4.0496 28.979-47.902 24.732-38.386-6.1725-4.8054-23.564-2.2042-69.253 33.077-48.998 11.458 12.459 21.031 32.584 31.532 41.749 13.208 14.87 24.945 8.9901 9.5814-5.9551-6.8269 10.301-1.0098-14.944-7.1322-23.945-6.2786 4.5037 6.0208-27.852 3.2724-38.284-22.866 3.3996-50.109 6.9944-75.104 7.5713-14.413-0.92825-37.51 5.9598-45.855 1.7538-14.211 5.5812 21.498 13.91 20.078 30.456 11.324 18.111 7.4709 39.268-6.3205 51.981 24.275-33.252 12.188 21.853 14.113 37.146-1.6224 34.387-8.5727 71.377-36.203 94.865-15.404 11.261-33.123 42.172-54.837 28.003-34.571-19.198-56.859-52.702-73.051-87.775-5.896-21.15-34.339-42.107-33.496-58.859 16.671-6.8813 28.406-22.429 35.636-37.053 9.1257-10.283 9.6362-22.092 20.607-28.231 5.1782-21.678-35.326-31.011-54.48-28.307-15.783 2.7268-58.965 8.4486-28.438-10.14 28.49-28.746-16.707 14.356-18.9 12.658-18.291-11.369-30.028-0.85036-13.781 16.328 7.8552 22.928 14.997 58.588 0.0928 78.664 14.787-5.1784 3.7242 44.306 7.5039 62.916 1.4061 24.892-0.65754 53.487-13.424 72.336 17.509-4.9243 43.368-1.3412 59.329-2.7496-23.855-18.665-23.46-51.351-22.494-78.931-3.2917-15.958-0.5291-55.859 21.318-31.244 24.137 26.403 38.068 63.365 35.149 99.232-3.918 24.706 37.574-1.5462 51.299 17.416 12.236 7.1868 38.08 19.616 7.216 20.544-27.421 6.4566-8.2772-35.34-39.74-24.32-18.959 12.602-24.978-10.543-24.517-16.485 10.708-20.355-9.9642 0.88731-19.277 9.2187 8.0347-7.1311 35.831-40.582 10.191-17.215-19.241 4.9717-9.6073 28.476-23.511 29.429-13.007-4.5886 4.3787 39.953 10.749 10.608 14.535 12.232 21.166-27.149 30.524-4.1064-14.424-14.513-7.3516 6.5384-19.775 8.3535 14.609 14.605-6.1708 9.4023 3.0281 24.076 19.351 3.1921 6.291 20.893 27.15 25.061 28.602 15.378-5.241 10.599-18.991 6.5018-8.2655 0.69309-37.232-0.847-29.324 2.3954 3.5818 0.70366-33.542 25.348-3.7715 28.232 18.15 7.1672 31.593-8.6729 46.78-10.544 6.891-2.5058 34.16-16.425 21.776-4.6026 12.926 2.6756 22.505 11.145 29.602 17.371 14.061-0.21801-19.861 11.347 2.4566 15.399l0.00044 0.00002zm58.175-30.759c9.7446-15.915 32.132 1.0458 0 0zm-30.114-0.38101c2.399-3.6222 1.6273 3.6956 0 0zm-115.66-1.4646c-17.894-1.5088 15.92-5.5024 0 0zm9.2231 0.46446c10.974-6.596 7.8169 1.5179 0 0zm10.363-4.1449c7.9884-4.7922 2.266 2.5529 0 0zm92.006-4.3961c-8.6261-5.3577-17.508-28.576-7.4831-24.404-1.4689-7.1111 9.2585 11.477 2.0502-7.1433 2.9766 0.12448 9.4606-11.189 7.7422 5.8196-0.52908 10.756-0.90558 20.8-2.3093 25.728zm0.49462-18.214c-2.0041-16.443-1.8406 17.866 0 0zm-0.0794-9.7294c-1.2439 0.82316 1.2485 4.561 0 0zm-47.4 27.286c-9.3601-7.8912 5.7477 2.4648 0 0zm112.65-10.962c8.2998-9.2383 6.2582-40.014 19.383-35.733-9.4224 4.9577-7.0604 31.798-19.383 35.733zm-83.84-1.4488c-15.394-10.172-16.54-16.899-1.3338-3.2264 1.7835-1.0161 10.073 10.689 1.3338 3.2264zm103.63-12.334c7.7871-6.8759-3.2577 7.5393 0 0zm-159.86-3.055c-5.3514-12.693 5.3697 5.36 0 0zm36.957-0.35748c0.48844-6.7882 4.2233 5.8707 0 0zm128.54-0.36109c4.8901-16.94 16.793-12.718 0 0zm-171.46-2.8603c-8.6121-13.745 9.0456 9.6927 0 0zm174.35-9.5817c0.83729-10.361 2.0462 5.487 0 0zm-174.6-1.711c-9.3712 5.8786-10.187-37.63-3.2755-12.421-4.1557 0.6793 8.3154 16.302 3.2755 12.421zm181.21-5.0868c-2.5946-14.391 9.9017 0.25573 10.972-18.012 1.9509 3.4671-8.8268 32.144-10.972 18.012zm-164.35-16.66c-16.944-0.69266 27.644-25.228 4.9524-9.3435-3.5706 0.13959-0.48101 18.167-4.9524 9.3435zm146.56 1.3688c1.6969-3.6061 1.6969 3.6061 0 0zm-206.01-5.0523c1.1294-3.1953 2.3753 1.1798 0 0zm218.82-4.6079c-2.4575-5.1275 3.6279-3.0616 0 0zm-198.12-8.6477c7.9999-6.6392-2.2162 6.1291 0 0zm1.8838-10.608c7.6246-9.3773 6.2829-1.006 0 0zm28.366-9.8124c0.47493-8.7786 4.8022 5.67 0 0zm-0.98975-8.7539c2.4664-5.123 4.4463 2.3974 0 0zm168.82-8.753c-0.73089-6.0045 5.7709 0.94473 0 0zm-167.12-2.2652c6.3283-3.4912-3.0888 4.8604 0 0zm-4.434-3.8466c4.0047-12.001 6.5739 0.0397 0 0zm-3.422-5.3029c7.1289-10.976 6.824 1.657 0 0zm175.21-0.44828c1.7486-2.4552 1.7486 2.4553 0 0zm-7.5285-1.3903c5.3457-5.8682 1.4035 3.8236 0 0zm-170.4-2.545c5.9988-8.0786 7.1106-1.567 0 0zm0.39393-8.2803c4.9694-10.861 2.7498 3.4303 0 0zm-2.1173-6.2633c2.4559-2.6057 0.84993 2.6982 0 0zm179.66-3.7238c1.5972-2.3508 1.9712 1.3042 0 0zm-8.2129-2.4358c1.7486-2.4552 1.7486 2.4553 0 0zm-182.99-14.85c0.30231-6.0425 5.0683-1.2513 0 0zm185.94-3.3296c1.0418-3.2436 1.779 2.4504 0 0zm1.8251-2.3653c1.7486-2.4553 1.7486 2.4553 0 0zm-190.95-0.62843c1.8467-7.2892 6.0404 1.1345 0 0zm189.4-4.9318c3.6745-2.0391-1.6677 2.1034 0 0zm-190.44-3.0764c7.2423-3.3047-4.024 4.4061 0 0zm-3.3551-4.9531c9.3-7.5456-3.8721 8.2101 0 0zm197.17-3.5205c5.7002-7.1998-2.2884 6.8827 0 0zm-201.31 0.7149c1.8735-8.8365 8.5456-1.1297 0 0zm-5.1519-4.8868c4.8552-12.384 5.1822 2.5218 0 0zm203.29-0.79c4.2807-7.0504 4.0632 1.5189 0 0zm-208.77-0.89182c6.4809-12.533 8.0251-2.4358 0 0zm-3.422-4.4239c3.3093-9.9454 9.7379-5.4388 0 0zm210.41-0.73879c4.1756-9.189 9.8077-5.5329 0 0zm-215.2-3c5.418-10.608 10.932-2.9396 0 0zm216.27-3.9976c11.589-17.793 5.2945 0.35727 0 0zm-245.02-1.1355c4.5347-4.2469-0.0228 4.8754 0 0zm16.426 0.6844c2.6714-2.5002 2.6713 2.5002 0 0zm267.64-0.007c5.2106-9.7884 6.1499-1.8316 0 0zm-5.5007-0.84852c1.0896-6.8055 2.7793 3.1851 0 0zm-251.19-0.7768c4.14-6.8923 4.1185 1.1907 0 0zm242.96-0.91243c7.664-10.944 4.097 3.1458 0 0zm-255.28-2.1638c8.7308-12.119 8.6457-5.5905 0 0zm266.23-0.042c1.2987-3.4463 2.1259 2.482 0 0zm-38.327-0.6325c6.5436-13.376 13.2-8.504 0 0zm21.901-0.0923c1.7486-2.4553 1.7486 2.4553 0 0zm24.726-1.1898c8.4886-10.916 0.76431 3.9924 0 0zm-266.32 0.30424c5.3858-7.2964 6.6899-2.4004 0 0zm-21.901-2.4074c5.5147-10.792 2.6344 2.0953 0 0zm11.442-1.0253c5.3358-8.5834-0.44972 6.039 0 0zm9.7741-2.445c1.1293-3.1953 2.3753 1.1798 0 0zm12.319 0.19597c9.0634-14.709 13.841-9.1535 0 0zm262.15-0.79006c1.3221-6.5115 3.0658 1.8787 0 0zm-297.24-1.3537c6.3865-9.1318 1.949 2.7281 0 0zm244.52 0.19129c13.625-24.322 4.8366 1.8432 0 0zm-213.53-0.0593c4.5874-8.2682 8.1028-3.6739 0 0zm-16.73-5.0777c-3.4897-18.102-16.089-62.719 11.555-65.917 25.011-8.8384 55.079 7.3694 33.564 35.772-8.3655 15.348-25.929 34.724-45.119 30.145zm10.489-3.5833c5.646-6.3711-11.953 3.1011-0.12101-6.9985-9.3633-0.0497-7.7728 13.335 0.12101 6.9985zm8.7951-1.9233c19.842-16.294 2.482-6.886 0 0zm-3.7069-2.8074c15.519-11.524-6.9402-2.275 0 0zm-9.7228-3.0728c12.163-13.799 33.596-30.759 39.533-43.217-14.328 13.497-26.134 28.978-41.863 41.197-4.5603 1.8706 0.005 8.107 2.3301 2.0194zm26.795-5.4402c16.715-18.457-14.517 7.5235 0 0zm-24.872-4.421c11.698-8.9944 22.264-25.957 2.604-5.9708-11.851 1.0019 33.953-33.491 25.483-32.344-11.223 12.744-35.551 25.276-33.486 40.646l0.56442 1.7754 4.8343-4.1064zm20.243 1.364c9.9312-7.3494 25.167-27.905 6.4638-8.959 2.4061 0.58559-15.118 12.77-6.4638 8.959zm-5.6094-1.3702c8.9054-6.4309 36.719-39.77 13.019-15.649-0.816 0.51341-20.898 21.963-13.019 15.649zm-0.2195-29.423c26.02-23.377-9.8451 2.8673-19.629 12.935-4.023 14.306 16.889-12.563 19.629-12.935zm4.1208 10.88c10.085-5.2829 26.961-32.277 8.1064-10.86-1.3582 1.7142-15.065 13.411-8.1064 10.86zm-20.429-4.036c12.588-7.5905 27.17-27.695 5.3722-9.6053-17.686 15.803 18.125-21.316-4.1171-2.2007-4.5922 2.2883-7.4374 13.081-1.2551 11.806zm1.1873-14.064c3.9426-7.7667-9.6058 6.7081 0 0zm27.455 56.497c11.496-15.605 4.0982 2.5126 0 0zm-50.903 0.1378c3.8832-10.469 3.8973 2.1936 0 0zm5.7323-4.546c1.5972-2.3508 1.9713 1.3042 0 0zm-4.7908-4.1564c5.6392-13.654 4.4344 1.1601 0 0zm54.753-3.7142c1.5972-2.3508 1.9712 1.3042 0 0zm-55.113-5.3446c8.7635-15.703 6.1326 1.6662 0 0zm-2.3768-6.1666c5.778-13.671 14.19-9.4738 0 0zm-1.4925-5.9912c4.0908-12.96 15.158-15.769 0 0zm327.95-5.9196c3.6919-9.1452 7.8463-2.5256 0 0zm-327-4.9053c9.6407-18.954 6.8243-0.12896 0 0zm326.31-3.3668c2.1023-5.1379 1.1127 2.5036 0 0zm-328.52-1.4058c8.9152-16.735 8.8214-3.7476 0 0zm331.94-1.8049c1.5972-2.3508 1.9712 1.3042 0 0zm-5.4753-2.6453c1.5386-3.5602 2.9931-0.67377 0 0zm-7.5132-2.0148c3.5075-6.3396 9.2392-5.7329 0 0zm-315.53-4.6198c2.399-3.6222 1.6273 3.6956 0 0zm320.99-1.3487c10.904-14.029 6.2419-2.0709 0 0zm-4.3759-4.0693c2.2166-3.7857 1.3092 3.209 0 0zm-316.61-6.2383c2.4557-3.3859 2.8628 2.4227 0 0zm308.67-0.32072c3.887-5.079-0.79064 4.9248 0 0zm-244.33-2.0532c4.535-5.055-2.172 4.9115 0 0zm-46.968 0.14016c3.4948-3.2727 3.1489 1.8191 0 0zm285.14-0.20567c4.2128-11.175 6.2789 0.19114 0 0zm15.741 0.0655c1.7486-2.4553 1.7486 2.4553 0 0zm-273.76-0.66255c6.3815-7.7836 7.2392-1.0333 0 0zm204.04-1.6249c12.521-15.947 5.3756-1.0983-1.5753 1.701l1.5753-1.701zm-193.7 1.2609c1.7351-5.4586 11.68-5.1961 0 0zm-42.509-1.0108c6.3156-7.9903 4.0104 3.2593 0 0zm314.83 0.068c5.1118-7.4207 1.4658 3.1086 0 0zm-291.11-2.137c8.9802-7.5616-4.0666 7.2371 0 0zm207.61 0.84736c5.5477-8.8052 0.90373 1.7357 0 0zm48.42 0.12009c1.8673-8.7326 8.1789-5.3233 0 0zm6.3329-0.89397c12.363-17.562 11.704-6.4777 0 0zm23.27 0.30911c1.5972-2.3508 1.9712 1.3042 0 0zm-62.281-1.01c6.5187-10.193 9.3876-1.4957 0 0zm47.228-0.91254c6.7357-8.6051 2.8346 4.119 0 0zm10.669-1.3667c15.758-20.131 8.0248-4.8574 0 0zm-79.06-0.11612c0.30533-2.9507 0.9877 1.8228 0 0zm28.691-0.057c11.203-9.7427 4.7828 3.1845 0 0zm62.965 0.0404c1.2988-3.4462 2.1258 2.4821 0 0zm-51.292-2.1343c6.1747-3.53-3.8447 5.1848 0 0zm9.5435 0.72511c4.4355-3.3677-1.4174 3.5416 0 0zm37.642-0.3148c3.613-7.7516 3.1079 1.8888 0 0zm-14.373-0.64336c7.0404-10.828 7.3581-2.5068 0 0zm18.636-4.3032c2.1891-3.7656 1.3937 3.1567 0 0zm-204.85 355.74c-5.5872-2.8735-2.7658 0.62713 0 0zm165.68 0.33701c7.423-5.2305-5.2701 0.003 0 0zm-235.43-3.54c17.651-15.251-9.0667-4.4008-3.7642 3.4051l3.7642-3.4051zm233.72 1.4059c-1.7542-2.535-2.631 2.4537 0 0zm-170.42-0.6844c-5.7758-2.5449-4.2152 2.5904 0 0zm80.662-2.3954c25.763-5.8986-18.973-17.866 0 0zm89.413-0.10943c28.332-13.512-9.0732-15.777-7.7563 0.31558l3.3077 0.37565 4.4486-0.69123zm-284.03-0.57497c-5.8974-14.478-29.142-13.044-8.8973-2.4498 1.1283 0.79269 10.71 5.5256 8.8973 2.4498zm39.696-3.9168c-7.1959-1.1227-3.6494 9.301 0 0zm66.33 3.8205c-4.4506-3.7582-9.8421 3.2128 0 0zm191.25-0.71984c21.93-18.858-13.995-2.4793 0 0zm-249.54-2.2323c3.901-10.917-12.421 10.583 0 0zm71.904 1.2562c7.8644-15.488-15.223 8.5115 0 0zm150.76 0.25231c10.394-9.129 37.796-34.072 11.529-12.49 0.65194 1.1223-27.657 19.742-11.529 12.49zm-260.81-0.89c-3.1095-16.512-23.997-18.518-7.5129-1.8087 1.2022 1.6589 6.7421 5.2839 7.5129 1.8087zm101.33 0.32434c21.64-15.105-12.608-2.849 0 0zm-6.3438-1.9082c18.81-13.976-10.275-3.9611-3.7334 1.8772l3.7334-1.8772zm-72.4 0.58453c-2.3141-3.66-2.3141 3.66 0 0zm191.88-7.3369c-2.9863 0.17275-0.48032 3.8289 0 0zm49.713-0.876c2.9608-6.2822-6.8079 5.915 0 0zm-5.7967-1.5762c-3.8338 0.86073-2.6359 4.7545 0 0zm41.386 0.5496c33.422-13.774-14.685-20.169-9.2922-1.0703 2.9196 0.95372 6.2049 2.7522 9.2922 1.0703zm-298.31-1.9433c5.8976-10.8-7.1623 3.7451 0 0zm252.06 0.84349c3.4242-5.5534-4.9032 0.78012 0 0zm-285-0.95339c-5.0726-10.215-23.417-18.243-9.4759-3.7487 2.8527 0.2659 6.0857 6.2777 9.4759 3.7487zm10.599-2.2243c-2.679-32.549-28.371-3.8941 0 0zm241.25 0.038c3.3738-6.4128-6.896 5.4412 0 0zm-223.79-1.9202c12.374-7.6005 23.393-26.875 4.5587-7.9974-0.75623-0.13008-7.7261 10.314-4.5587 7.9974zm250.01-1.129c14.965 1.8702 27.495 2.1239 36.924-7.9067 22.201-8.3411-8.6522-18.107-16.859-18.341-14.076-11.739-34.591 35.361-43.161 16.023 18.988 4.4901-3.4601-1.2094 8.6424-5.0722 6.6776-5.8928 28.117-15.069 41.893-23.636 17.825-4.7361 26.071-8.8079 35.82-2.093 18.661-2.5136 34.508-8.8544 40.565-27.626 4.2885-26.868-31.887 1.8319-30.48 8.3553 9.5019-17.112 7.3938-14.408-4.7698-3.0465-10.019-3.6027-22.036 17.193-8.4742-1.2206 16.094-9.0593 25.59-33.29 46.685-31.8 1.0131-11.932 20.537-5.5045 19.111-18.878 15.819-4.4994 5.6433-17.098 17.61-27.338 5.294-18.718-21.614-17.52-22.242-2.0456-5.0414 4.816-7.8649-13.742-11.28 6.3036 3.111 13.06-14.28 7.9984-15.057 15.223 12.95-15.06 20.033-34.49 20.531-54.968 15.087-27.317-12.357 37.287 8.887 12.552 18.487-11.592 28.871-27.686 32.142-49.313 8.7763-24.64-13.669-20.932-18.739-17.122-1.8323-19.719 3.334 14.497-8.941 6.5512-8.0088 6.7007 1.2269 29.028-9.241 13.678 6.9872-18.971-4.5719-38.212-4.4847-58.654-8.8149-12.698 6.4702-14.502 4.2059-20.335-2.6926 15.431 0.69145 33.439 11.087 43.692-0.76049-13.424-8.0677-28.507-1.9903-32.459-11.656-21.219 2.6935-17.48 11.628-5.4882-7.8086 14.01-10.263-19.805-9.4416 2.8159-9.0562-23.313 2.416 23.418 5.4668 5.7797-1.8533 14.254-6.2663 57.137 3.4622 22.237 7.6331-16.594 10.106-56.461-7.5297-58.883-26.752 18.887 21.127-28.709-6.3037-2.8743-13.286 10.205-5.0004 13.351-1.466 12.259-9.4586 8.733-16.91-4.1675-6.6282-9.0074 2.5841-23.187 3.9062-45.84-15.077-64.489-20.319-11.367 0.65229 32.152-15.066 20.517 0.88973 20.366 20.597 35.519 20.557 55.916-10.87-18.446-21.144-41.262-26.542-59.418-11.917-21.178 0.70611-11.339 9.8797-29.282-13.62 25.517-14.155-0.68056-11.036-8.3149-13.982 13.64-3.8545-22.593-17.362-16.597-1.6805-12.638-21.421-22.291-28.171-19.819-1.0075 20.799-7.0848 14.569-18.471 5.2016 1.9295-15.861-40.353-28.11-41.18-10.162 14.413 16.782-3.5923 14.499-9.3987 28.338 5.4033 0.54657 14.213-20.075 23.429-5.2657 6.4447 1.6465 4.7541 16.386 20.305 10.502-3.3846 6.4455 41.732 23.036 22.64 0.2177-2.3808-13.47 15.898-29.041 16.358-7.8301 2.2063 3.347 16.432 20.177 0.0207 6.1744-14.697-15.72-17.905 11.18-5.467 15.682-4.8223 3.0154 6.9243 11.174-9.0019 2.4355-8.4391 8.497-28.95 1.1935-16.949-6.2408-16.608 12.917-29.979 15.56-46.335 30.899-15.641 12.829-14.474 19.125 0.34812 3.7642 9.0686-17.048 27.218-4.8495 34.289 1.0234 14.146-0.76839 13.11-3.4419 23.384 0.28009 10.591-16.682 12.897-3.6067 24.454-5.6041-9.4439-16.022-6.4796-3.5222-25.031-9.3344-4.2863-2.1321-9.9614-4.2243-18.771-3.1206 17.015-1.2453 30.165-2.4595 46.337 5.0666-4.3908-7.6176-16.165-24.172 0.68734-14.897 2.4996 13.813 29.225 26.289 2.6346 18.658 1.2156 14.061 26.022 23.64 26.74 40.608-16.295-12.38 20.923 25.121 18.104 38.068 3.0291 11.864-10.062 14.246-0.39814 23.871 14.507-3.5861 1.549 35.392 8.6034 29.943 3.6288 15.068-3.5999 52.554-6.1007 22.982 0.64099-16.97 0.0214-21.616-10.373-27.508-2.0302-16.967-17.372-10.808-28.058-16.348-7.0034 14.779 2.6458 32.62 12.403 37.721-3.606 13.217 24.875 19.481 5.5156 6.1951-4.9839-5.6774 3.1914-11.373-4.2673-18.239 22.557 8.5972 1.711 45.635 26.392 41.639 8.8759 12.101-3.978 52.5-12.053 49.34 4.2924-14.297 2.4892-35.209-4.2395-49.249-14.331-8.8788-10.043-18.481-17.977 1.8652-3.841 10.764-8.2 30.155-22.177 13.37-7.4398 6.0305-30.12-7.6113-18.938 13.004 9.8009 10.729 5.3292 24.976 20.26 26.814 10.53 3.225 21.345 9.1765 10.35 25.085 5.4083 8.9807-8.8126 24.389 5.4129 5.5793 18.715-8.5078 0.60771-2.1384 0.5448-10.04 15.548-7.015-17.206-44.168 3.7527-22.675-6.928-22.659 15.027 13.459 3.5856 19.78 7.0107 8.1198 5.5638 25.841-4.3567 15.526 5.2914 20.44-23.19 38.484-26.343 52.423 18.797-5.0071-24.89 11.761-2.8494-4.06 5.918-5.7792 20.445-30.351 15.4-27.672 6.974 3.1235-0.13687-13.061-2.4364-16.106 4.0046-15.946-15.397-27.56-23.374-8.1399-16.325 9.0218 11.56 4.3423-4.6573 18.853-2.4694 19.623 12.607 43.7-16.364 47.142-16.203 9.274-33.766 14.112-48.692 25.323-13.127 13.436 18.006 11.089 28.395 10.853 10.629 0.94264-14.875 5.1017 6.6959 3.3479l2.4631-0.95752 0.00063-0.00006zm10.506-6.0335c-5.731-6.8467 15.751-16.249 10.506-7.8944 18.297-5.9752 12.17 3.5547-7.8926 3.9014-7.4193 1.8028 5.363 6.2751-2.6132 3.993zm-9.5495-2.2788c-0.0566-5.7119 11.99-1.4707 0 0zm7.7359-7.2862c1.2988-3.4463 2.1258 2.4821 0 0zm56.806-31.108c3.4642-4.3684 4.7262 2.9747 0 0zm-3.6581-1.07c10.022-18.219 5.1462 1.5797 0 0zm-1.8172-3.1096c1.7486-2.4553 1.7487 2.4553 0 0zm16.198 0.22813c0.5415-11.646 13.61 2.4623 0 0zm-43.296-1.768c11.331-9.0798-3.2054-32.785 0.29669-29.374 4.7133 17.358 11.878 1.4108 14.933-0.8265-3.3487 8.17-10.728 29.211-15.23 30.2zm44.722-8.4405c8.6284-15.004 21.717-18.64 0 0zm14.543-2.0608c3.5304-3.2385 2.2152 2.5967 0 0zm0-8.8332c3.2988-7.3147 3.484 4.1843 0 0zm4.1064 0.34221c2.6713-2.5002 2.6714 2.5002 0 0zm-52.224-20.019c2.8504-24.465 1.0216 19.854 0 0zm38.31 3.3083c2.1728-7.6224 4.3613 0.6183 0 0zm-41.776-5.3615c-1.9643-14.861 4.2701 4.9144 0 0zm56.374-9.2798c5.9554-5.413-1.0477-15.132 7.5506-15.264 1.8046 2.3063-3.6256 23.136-7.5506 15.264zm-8.5243-0.30191c4.3-8.456 0.81597 6.3395 0 0zm3.049-5.5628c0.29841-18.926 10.044-1.815 0 0zm15.402-7.3587c4.8169-17.765 0.78911 11.375 0 0zm4.9362-2.8602c-4.776-24.159 23.045-7.7102 0 0zm3.4993-8.3437c-0.77197-2.5465-1.5446 7.9732 0 0zm-32.467 6.2124c-2.9064-20.206 6.4886-7.0599-0.00001 0h0.00001zm40.797-7.2483c2.0026-7.7025 9.326-29.174 6.9363-12.156 12.034-17.323 1.5859 9.0747-6.9363 12.156zm-43.607-9.4013c12.698-11.721-21.384-30.613-7.7233-28.49 9.419 2.2223 19.113 36.66 7.7233 28.49zm-17.305 0.5537c4.0176-0.0992 2.0394-0.0742 0 0zm-8.5148-5.1952c-5.6845-2.5769-0.87534-16.068 8.1529-3.621-3.8933 0.81163-3.334 7.3051-8.1529 3.621zm12.374-4.9018c-1.4892-3.4701 4.0224 0.32641 0 0zm20.095-1.5784c2.6085-7.1366 2.0312 6.9026 0 0zm0-4.2924c-10.982-15.703 0.3633-21.791 1.1977 0.70879l-1.1977-0.70878v-0.00001zm-5.6464-19.883c-5.6698-7.8447 8.5144 5.093 0 0zm42.831-4.6565c-1.0003-9.1417 12.528-1.1602 0.21324 4.9461l-0.21324-4.9461zm-43.269-2.9852c-6.1498-18.714 8.4698 10.313 0 0zm45.699-2.9162c-4.8375-23.14 6.8615-7.3383 6.5886-12.148 0.83039-16.141 1.8492-32.815 3.9863-7.5689 5.2295-37.175 6.5862 21.208-10.575 19.717zm-8.4408-5.5405c0.0194-33.798 8.348 1.5686 0 0zm-14.514-11.397c-18.623-20.085 14.145 8.0619 0 0zm38.78-13.32c8.6787-26.575 1.6126 11.618 0 0zm-44.735 0.47114c-8.1567-10.919-11.536-22.298-0.86137-5.6669 4.3879-5.6445 2.718 12.531 0.86137 5.6669zm-24.409-16.655c-12.535-22.652 12.493-2.0893 0 0zm0.008-9.3105c-2.4097-2.0345-1.2432 5.2375 0 0zm36.284-35.035c0.40335-3.3728 2.0998 2.4263 0 0zm31.538-16.02c-2.907-9.7506 4.4592 3.8819 0 0zm-32.223-9.0009c0.8277-2.5023 1.6879 2.4381 0 0zm2.7376-16.01c-5.419-15.881 9.1133-19.661 0.85351-0.0732l-0.2532 3.0798-0.6003-3.0066h-0.00001zm-4.0654-10.51c-9.8668-9.4383-6.488-22.593-8.2539-36.382 6.8458 3.6259 5.017-13.911 7.2504 5.6539-5.2987 5.5372 5.3428 36.173 1.0035 30.728zm-3.6932-14.244c-2.5415-8.3182-4.8353 2.1404 0 0zm-5.9296 1.7538c1.7486-2.4552 1.7486 2.4553 0 0zm-50.418-32.509c1.3907-3.5793 1.3907 3.5793 0 0zm-29.658-3.0798c4.5015-2.5333 4.5016 2.5333 0 0zm-17.667-1.5947c14.729-4.0814 0.67412 3.8048 0 0zm70.537-5.3282c-10.456-0.0218-11.465-12.678-4.6809-5.0543 12.587 8.6011-15.678-26.184 3.4467-6.4841 3.3766 0.2053 6.9089 16.167 1.2342 11.538zm-18.65-12.93c-13.008-0.56462-9.8386-14.738 0.54753-5.3384-0.40118 1.5432 5.1124 8.3426-0.54753 5.3384zm7.1863-1.3688c0.82769-2.5023 1.688 2.4381 0 0zm-0.47097-8.0418c-5.0585-13.005 6.365 7.9294 0 0zm-30.59-0.9275c-21.589-18.604 10.537-0.0743 0 0zm-18.435-11.255c-15.886-5.9429-8.3182-11.771-6.9675-16.195-5.1091-6.6479 22.553 30.569 6.9675 16.195zm-18.26-11.942c-13.786-7.5549 7.8606-3.2632 0 0zm13.802-2.5095c-2.1757-7.8297-3.2073 2.4456 0 0zm-12.539-1.2843c-0.002-4.8626 5.3904 3.9679 0 0zm4.8969-0.40855c-9.7572-9.025-0.47783-6.426 0 0zm-7.1863-2.2781c2.8193-2.4253 1.4863 3.4107 0 0zm80.908 430.13c21.793-15.702-0.43952-10.055-5.0878 3.4836l2.4832-1.3709 2.6046-2.1127zm-321.65-1.5399c34.064-36.46-23.115 17.058 0 0zm164.52 1.8972c9.8521-7.663-6.5666 3.0465 0 0zm-44.911-2.0525c0.7547-11.755-21.326-10.203 0 0zm-127.99-0.68885c9.8546-5.4204 18.501-22.58 2.7946-5.1268-0.821 0.64511-10.284 10.849-2.7946 5.1268zm168.16-0.68512c15.776-10.614 22.853-19.369 38.191-28.899-2.1591-8.5915 28.096-16.649 2.4723-19.758-13.258-6.6093-42.815 12.786-28.16 18.361 5.261-4.783 20.146-23.591 6.3779-3.5894 28.145-15.422-20.734 12.745-15.058 25.743 1.2092 0.95406-11.043 14.529-3.8234 8.1421zm14.976-37.906c3.2384-7.0746 6.0261-3.3814 0 0zm128.67 36.527c21.267-15.962-9.8985 0.88824 0 0zm-335.08-1.21c-3.0603-18.211-22.051-15.693-4.7046-0.55441l3.3977 1.2749 1.3069-0.72049h0.00003zm21.814-1.8004c19.244-20.261-12.269 6.8442 0 0zm-32.076 0.33368c-7.937-4.6221-7.4003 2.3691 0 0zm340.43 0.53947c12.427-9.6882-7.3994 0.20962 0 0zm24.87-0.93647c19.321-18.793-27.901 5.1457 0 0zm-373.74-1.22c3.4588-16.926-28.054-11.702 0 0zm34.453-0.15855c11.756-9.5678 3.1454-12.523 0 0zm-5.3122-3.422c19.025-13.745 42.248-6.9211 65.54-8.8973-5.9248-7.1698 8.5407 0.20218 8.0034-2.5686-15.637-8.0079-26.401-27.423-30.633-39.951-3.5333-19.001-23.154-40.975-33.316-14.371-3.4933 11.173 18.996 37.402 14.174 19.408 11.347-3.0357 4.4125 14.838 15.883 22.945 0.61699-7.9549-4.2268-7.6019 5.1868-0.90482-5.5384-14.2 16.23 13.95-0.49406 5.78-16.633-4.6908-25.212-11.094-39.431-24.557 5.8386-13.574-15.087-22.066-23.655-38.853-9.8024-17.336-12.535-14.21-13.32-38.179-5.5578-19.201 15.592-45.217 10.18-18.986 1.2063 9.0419-8.8391 53.59 4.328 27.599 2.2028-10.456 11.216-15.927-0.80943-19.525 9.8836-8.4772 18.86-18.072 8.512-24.514 2.6638-27.908-35.645 6.7275-27.956 22.014-9.0572-2.4125 6.4652 32.815-7.9987 8.5331-0.81159-12.358-7.6572-23.549 0.59982-35.298 6.622-19.659 24.275-20.789 32.685-36.82 7.8199-9.2196 5.3032-21.018-2.1889-5.1451-12.538 8.8476-33.499 35.256-33.571 35.732 5.751-20.189 22.484-28.708 33.73-42.699-12.361-8.1988 22.1-41.355-2.5249-40.863-15.972 6.4764 36.091-31.245 8.6082-15.499-9.7439 12.163-22.134 16.55-3.2963 0.75425 14.421-12.722 10.391-17.623-3.5396-2.0632-23.458 20.324 35.283-36.896 1.1486-8.2632-15.851 14.42 25.048-28.774 0.48049-6.7539-15.76 10.294-7.0254 25.655-23.447 35.217-8.3406 4.6968-21.183 24.555-3.0028 15.097 3.412 17.588-9.0938-5.6406-4.6624 17.003-1.9594 13.689-8.566 26.785-11.641 5.2004 3.6717-12.098-5.5633-26.889-2.7686-10.383-3.238 10.715 1.5445 42.708-6.5432 13.941 10.35-9.9771-8.4016-21.021 7.1412-30.417-5.7098-9.1257 8.3813-35.342-11.807-21.733 5.3119-24.594-15.203-31.497-20.002-5.0674-11.546 11.7 10.827 22.955-4.9052 27.756 4.751 18.138 18.196 23.682 25.946 43.562 14.178 7.491 14.562 26.971 15.427 44.144 3.2184 20.079 5.7047 29.537-10.744 36.809-12.23-17.818-33.514-1.429-13.747 16.18 13.373 16.924 20.379 27.869 41.13 29.62 15.348 11.741 29.339 7.7605 36.978 19.401-20.107-9.5717 17.191 12.737-3.8783 2.9808-19.859-15.525-14.551 0.10158-32.921 2.6628 9.8931 9.1224 11.111 21.051 24.446 22.691-2.3386 15.237 31.678 1.509 10.458 17.293-0.003 1.9392 1.7546 0.3799 2.2161-0.009zm29.793-11.336c-13.174 4.1179-34.686-25.903-13.943-6.05 1.3153 3.5038 32.655 4.8853 13.943 6.05zm29.758-3.5907c-7.7059-8.9093 10.411 4.7782 0 0zm-8.0388-7.663c-14.08-17.349-0.8454-11.388 0 0zm-60.182-3.363c-5.4518-12.502 4.3889 0.55698 0 0zm-11.919-8.7835c-9.0844-12.421 8.3045 6.5854 0 0zm5.4445-1.3523c-9.9659-14.641 12.344 11.534 0 0zm-10.57 0.72806c-2.108-3.0995 3.0113 0.58536 0 0zm50.874-17.338c2.0408-7.6548 1.5002 8.0346 0 0zm-20.532 0.79848c-14.688-5.0906-9.0905-11.315 0 0zm-19.163-6.6892c3.635-3.8697 4.9052 4.6153 0 0zm3.1287-3.3977c-3.041-4.8651 4.8651 3.041 0 0zm-7.254-0.78449c-14.722-15.804-19.592-34.711-31.85-50.497-6.9532-12.802 23.807 25.849 13.284 0.34202 8.0871 13.445 2.2874 26.511 15.766 44.299 1.427 0.9808 9.4594 9.8426 2.8002 5.8561zm3.5936-2.7545c-10.45-12.551 2.7694-5.0671 0 0zm-15.477-3.2786c-5.5236-7.9303-27.399-7.6184-29.47-14.476 17.37 16.602-19.187-28.745 3.1163-2.5739 14.019 9.4648 8.237-3.0837 7.6189-6.5123-0.46123 6.4379 25.424 24.224 18.735 23.562zm-15.951-9.8633c-3.7205-4.2171 0.48846 5.5339 0 0zm-17.193-7.715c-3.2393-4.3225 3.8102 2.2696 0 0zm21.091-4.6426c1.7486-2.4553 1.7486 2.4553 0 0zm-28.653-6.199c-2.132-8.6467 5.2205 8.2167 0 0zm21.809-62.242c1.7486-2.4553 1.7486 2.4553 0 0zm-2.8046-10.903c-5.6814-9.8181-3.2382-39.767 0.75143-13.473-2.6164 1.5653 8.8642 17.948-0.75143 13.473zm3.53-17.392c-7.5897-11.506 15.261-0.0452 0 0zm6.4757-9.176c-0.91016-20.677 8.4062-29.058 15.639-43.941-2.6048 14.143 17.661-1.8813 2.6942 12.378-6.6432 8.8779-12.661 26.461-18.333 31.563zm4.8683-12.272c8.0014-12.774 9.9323-22.465-0.20086-2.9682-3.0999-0.84865-1.0124 8.8826 0.20086 2.9682zm2.9876-13.906c-1.688-2.4381-0.82769 2.5023 0 0zm8.2129-7.2212c-2.1955-5.1796-2.6878 9.4139 0 0zm-52.108-3.5582c0.26514-8.7942-9.8428-20.596-0.96976-12.923-5.1182-10.857 6.4127-47.081 2.9683-16.841-1.9498 8.9042 0.35835 25.153-1.9986 29.765zm36.494-0.0183c-0.22987-11.117 25.625-19.671 7.9076-8.0702-4.6205-0.21473-2.848 9.6376-7.9076 8.0702zm180.78 233.56c-4.579-6.7491-3.0879 4.6769 0 0zm186.62-0.662c12.666-9.0823 30.858-34.405 8.7256-10.621-1.5165 0.25367-12.948 14.259-8.7256 10.621zm-330.12-1.553c4.5029-8.8447-8.6022 6.2977 0 0zm341.63-0.6984c10.121-8.3815 25.055-31.304 6.1042-9.6256-1.9178 1.1962-15.246 17.688-6.1042 9.6256zm-239.17-0.50496c-8.5672-6.6654-1.516 5.1108 0 0zm228.16-4.5421c11.705-16.293-16.207 14.684 0 0zm33.898 4.4684c24.621-19.342-10.991-5.2493 0 0zm-136.18-2.6174c15.996-16.681-12.022 8.8038 0 0zm-92.727 0.40708c-1.6456-3.1486-3.787 4.3587 0 0zm185.35-0.27685c11.887-9.1694 17.488-21.864 1.9846-4.3545-0.57957 2.7365-10.17 7.9158-1.9846 4.3545zm-326.87 0.17111c-1.7486-2.4553-1.7487 2.4553 0 0zm103.35 0.27376c-10.119-10.52-25.513-18.303-29.49-13.917 13.326 2.3058 14.93 14.605 29.49 13.917zm126.06-1.3004c7.9471-9.172-7.8159 5.5149 0 0zm-1.5238-2.9962c13.742-15.451-15.795 13.262 0 0zm-122.88 1.041c-3.6469-4.0011 1.3232 4.3572 0 0zm226.25-8.9998c-8.8572 4.4005-16.547 18.246 0 0zm-349.36 6.6775c-7.915-27.315-19.387 0.46374 0.1231 2.2225l-0.1231-2.2225zm13.514 0.51262c-4.1555-4.8211-0.24424 5.6514 0 0zm140.76 1.1766c-5.8657-11.401-7.9616 0.77816 0 0zm-166.28-1.176c-5.5436-4.7688-0.78298 4.8554 0 0zm397.26 0.32044c21.523-7.0114 10.21-24.669-2.2893-5.8131-6.0843 3.0481-2.1258 9.728 2.2893 5.8131zm-265.85-1.2672c-4.9327-5.5423-5.3032 0.521 0 0zm132.16-0.62475c-3.474-1.4853 0.69965 3.6656 0 0zm-268.36-0.46923c-11.818-19.328-13.034-2.8926 0 0zm271.37-1.3813c-1.6879-2.4381-0.82771 2.5023 0 0zm-105.19-1.5057c1.8954-7.1046-7.2107 2.1532 0 0zm109.64-2.0639c-4.847 1.0341-4.9168 5.2152 0 0zm83.577-1.3693c0.82189-4.0077-7.1767 9.1637 0 0zm21.613 1.9173c4.9174-8.2487-9.8132 6.5849 0 0zm43.798-6.1541c8.6171-23.542-19.448 18.615 0 0zm-262.24 2.9645c0.17972-6.8615-4.4034 6.3344 0 0zm-161.34-3.91c1.1391-16.549-19.288-20.85-5.7031-1.3029 1.1366 0.66142 8.2859 8.3593 5.7031 1.3029zm79.682 1.4288c-2.4795-11.893-24.353-24.061-28.26-21.748 9.4517 7.3307 19.644 14.708 28.26 21.748zm243.48-0.27153c-1.9712-1.3042-1.5972 2.3508 0 0zm-200.41-1.0923c-8.4002-5.9682-15.293-19.408-13.805-31.034-19.492-18.874-17.673 23.297-2.1364 29.285 3.3841 4.6587 11.279 3.1447 15.942 1.7491zm-20.27-11.19c-4.3295-10.996 4.9165 4.9246 0 0zm172.77 10.907c-2.1259-2.482-1.2987 3.4463 0 0zm-43.813-2.8469c-3.0198-0.60951-0.4963 4.2642 0 0zm101.88-2.4696c15.377-15.768 1.4802-5.4632-5.4404 4.6725l1.962-1.3725 3.4784-3.3zm-319.95 1.5927c-0.42985-3.7705-2.3847 3.7117 0 0zm402.18-0.3422c14.391-2.7473 12.18-23.157 14.604-5.2318 27.329-23.668-26.391-7.5068-15.631 5.9162l1.0266-0.6844zm-183.11-1.2561c13.85-7.6135 21.178-22.531 1.1906-7.2848 16.437-23.215-17.199 4.2781-1.1906 7.2848zm-223.42-2.5919c-3.5291-3.4706-2.285 6.3569 0 0zm185.92 1.4231c-0.15156-5.9853-4.379 5.1535 0 0zm136.31-2.7882c4.9331-9.5818-8.8449 9.3562 0 0zm-348.25 1.62c-7.9644-24.909-19.945-4.9816 0 0zm174.78-1.9318c6.1653-9.3491-11.551 4.7459 0 0zm37.63-1.4902c15.253-8.0223 14-14.578 0.50382-4.2823-4.3087 1.5322-8.3892 12.364-0.50382 4.2823zm-7.0821-0.1711c21.813-10.641-11.633-9.7529-10.805 0.26602 10.99-10.03 5.2597-1.5782 10.805-0.26602zm11.364-0.84126c-1.5422 0.63971 1.4383 2.71 0 0zm-195.05-0.0142c3.7817-6.6056-5.5528 4.0512 0 0zm-18.184-1.8499c3.4094-14.638-20.873-40.25-10.308-10.13 1.3208 2.9874 9.4153 11.666 10.308 10.13zm170.33-0.31743c5.6638-5.1941 23.016-0.62409 6.9897-9.9491-16.065-1.2269-4.3706 4.5054-6.2998 4.441-4.1588 0.61431-9.2486 10.202-0.68991 5.5081zm20.956-2.3163c3.4409-10.227-18.554 9.6986 0 0zm50.531 0.64255c9.8397-15.203-13.245 8.5254 0 0zm-226.22 0.59029c8.6795-8.8245 20.906-24.631 2.4206-7.0998-0.88834 0.71071-9.1673 8.7194-2.4206 7.0998zm272.36-2.9664c17.916-15.642-6.1946-4.3936-2.5608 2.5612l2.5608-2.5612zm65.466 0.14786c-0.2167-6.8443-5.1349 6.5218 0 0zm-86.227-0.51769c5.522-6.8791-11.062 6.4185 0 0zm7.5942 1.1013c13.397-13.128-9.2091 0.5252 0 0zm5.4423-0.84503c1.9049-5.0304-5.723 5.0732 0 0zm-41.371-2.0885c4.1301-13.184-13.099 7.7531 0 0zm55.35 1.1228c0.88086-4.7715-3.9532 3.6516 0 0zm-281.83-1.772c13.239-11.801 11.722-18.057-1.9648-1.3023-3.8127 3.13 0.25837 3.3824 1.9648 1.3023zm17.664-2.7517c13.97-15.065-0.46811 3.9021-4.9378 4.2799l4.9378-4.2799zm75.66 2.0673c-1.688-2.438-0.82767 2.5023 0 0zm126.06-1.4881c6.2199-7.5774-12.633 5.9007 0 0zm53.115 0.79102c14.769-8.4034 17.928-26.973 5.0797-6.9305-0.35536 0.6522-11.155 10.256-5.0797 6.9305zm67.804-1.0139c-0.59229-3.6151-1.6245 3.5911 0 0zm-344.91-1.3688c16.562-16.541 3.0974-9.8616 0 0zm259.39 0.43903c24.309 6.2713 27.64-42.712 6.624-20.629 11.239 21.892-49.085 6.5233-25.043 20.142 6.0218 0.90911 12.389 1.6439 18.419 0.48702zm180.6-0.72525c4.6282-1.9276 17.578-3.8669 15.225-17.851-8.644 2.2618-16.465 4.9742-19.512 19.032l4.287-1.1813zm5.3299-9.2384c0.30532-2.9507 0.98768 1.8228 0 0zm-285.93 6.678c-3.5566-3.3631 0.38479 6.1464 0 0zm-125.74 0.45124c0.86251-4.5639-5.4285 2.5476 0 0zm-35.082-3.9353c15.287-18.204-10.624 6.9292 0 0zm346.09 1.1573c-1.9712-1.3042-1.5972 2.3508 0 0zm87.247-3.7238c7.8239-10.971-9.1895 10.631 0 0zm-84.646 1.5741c3.714-6.38-5.4973 3.0778 0 0zm-375.18-1.0608c-8.4149-21.76-16.269-3.2742 0 0zm24.848-3.7611c1.5014-6.438-6.912 7.7368 0 0zm196.46 1.0148c6.5594-10.136-16.555 5.8181-0.7236-6.2721-16.177-20.196-18.384 19.904 0.7236 6.2721zm8.9139-0.57647c-6.3981-4.3525-8.1013 6.8472 0 0zm197.09 1.1435c2.6186-6.365-5.1814 5.3982 0 0zm-342.86-2.4404c-2.862-10.993-2.5745 9.6296 0 0zm202.24 2.556c10.793-14.247-14.249 2.7584 0 0zm-6.3019-1.5401c15.448-11.981-11.335 2.603 0 0zm93.462-2.0477c-0.0553-4.9811-4.5451 6.7864 0 0zm-369.76-1.5348c2.2216-11.735-16.376-39.847-10.104-11.464-1.6286 3.8684 9.5431 17.894 10.104 11.464zm76.826-1.1069c21.526-22.041-1.9303-8.9651 0 0zm380.27-0.0908c8.1525-7.5285-5.4652 2.6618 0 0zm-17-1.1662c9.716-11.055-6.3049 1.956 0 0zm-123.9-2.7691c8.991-5.5108 27.207-28.727 7.5539-8.5578-11.281 7.1715 10.96-17.427-7.5634-1.7399 5.5823-11.65-21.464 11.396-2.9299 1.3975-8.0057 13.752 5.9563-0.67783-0.47537 12.151l3.4147-3.2509zm50.1 2.4296c1.6233-5.8117-5.98 2.424 0 0zm85.689 0.30799c11.398-13.873-4.6233 1.7562 0 0zm-379.85-1.1977c17.632-14.811-10.67-3.355 0 0zm404.57-0.80325c17.234-23.761-12.128-8.1427-4.5286 1.4966l4.5286-1.4966zm-464.11 0.46104c-1.7486-2.4553-1.7486 2.4553 0 0zm400.45-0.85551c8.3961-8.539-3.6261-4.4648-1.8083 1.4409l1.8083-1.4409zm-327.01-0.5539c-1.0616-5.0663-4.7946 5.4468 0 0zm162.68-0.98601c10.637-5.5793 27.228-16.506 40.113-31.605 2.5178-9.175 17.604-20.464 23.474-34.44-6.342 8.0258-30.662 31.214-10.732 8.9497 8.136-8.171 21.747-29.317 4.6286-11.003-7.7128 10.951-21.295 18.123-5.6427 3.46 12.222-9.8332 25.833-34.227 5.3068-11.331-29.783 29.141 8.0749-20.502 12.651-19.677-10.093 12.872-36.051 29.966-39.685 33.365-9.3844-0.48341-16.816 16.278-16.113 5.4439-12.1 10.864-10.541-1.8917-24.952 5.4508-16.252 16.583-11.718 10.687-1.5999-1.4903-12.875-11.726-45.279 22.292-20.051-0.53104-1.1584-11.212-29.128 16.178-13.175 11.317-6.9002 16.138 16.311 14.956 20.122 3.7814-23.771 19.903 0.67124 9.2114-3.0841 12.639-12.794 19.357 16.4-5.2155 2.2864 10.593 11.518-5.2002 5.4274 17.343 26.453 15.078zm-5.4752-2.9916c8.133-11.063 6.9209 0.94431 0 0zm-6.1597-1.6945c5.9766-8.6995 5.8069 0.94988 0 0zm17.11-6.6393c6.1083-10.231 5.5274 1.5227 0 0zm9.0681-1.5072c3.8148-4.1651 1.6115 2.6785 0 0zm-12.49-3.8052c2.1103-5.1561 4.3636-0.34159 0 0zm21.217-4.2855c3.6409-7.5196 4.8432 2.3026 0 0zm-28.061-0.25292c1.5972-2.3508 1.9712 1.3042 0 0zm24.068-2.5307c3.7421-6.2439 3.1554 3.2181 0 0zm-37.756-0.88285c3.7358-6.9765 4.6312 2.0888 0 0zm29.151-0.28745c3.246-8.3734 6.4991 0.47506 0 0zm17.388-3.8275c1.5972-2.3508 1.9712 1.3042 0 0zm-29.735-2.3762c-0.89315-4.2756 3.97 0.53387 0 0zm9.2026-0.0596c2.631-2.4537 1.7543 2.5349 0 0zm28.745-0.29332c4.1726-13.318 6.2905 9.5326 0 0zm-46.103-0.73329c1.531-3.7247 4.6296 3.5667 0 0zm-12.072-0.58447c7.4393-9.9939 9.2524-2.6261 0 0zm-19.9-2.293c8.2115-11.86-1.0894 4.7515 0 0zm62.333 0.21302c4.5013-6.3672 2.2809 3.9378 0 0zm16.426-4.2286c4.6001-9.0371 3.2847 3.0642 0 0zm-37.642-0.33795c15.452-18.377 16.797-10.603 0 0zm31.192-0.55689c1.3559-3.2333 2.9738 1.1957 0 0zm-8.5911-5.0448c5.8976-11.864 5.6712 1.4334 0 0zm-7.5437-0.18039c6.5728-13.571 5.3438 0.85168 0 0zm-17.795-0.73652c3.3971-5.27 4.6911 0.28288 0 0zm-21.559-3.0184c2.4559-2.6056 0.84991 2.6982 0 0zm62.623 0.39109c4.1777-7.4562 3.467 2.0786 0 0zm-3.2652-3.257c2.1891-3.7656 1.3936 3.1567 0 0zm-9.6093-3.8016c4.1043-4.7813 1.0888 3.2526 0 0zm8.9388-4.4541c4.8949-4.3387 0.73779 3.5653 0 0zm7.3577-0.1711c2.6229-3.6829 2.6229 3.6829 0 0zm-0.68441-5.9964c4.7662-10.4 5.3032-0.26309 0 0zm174.19 63.953c-3.7532 1.7709-2.6637 6.2126 0 0zm21.076-0.77251c10.605-9.1941 7.1884-25.218-1.3839-4.5687-2.8988 2.6644 0.40539 13.08 1.3839 4.5687zm-475.48 2.4083c2.6712-5.5021-4.8303 2.7748 0 0zm361.73-0.98116c12.625-14.678-8.1515 6.149 0 0zm-301.21-1.5364c-2.8628-2.4227-2.4557 3.3859 0 0zm185.83 0.20541c-2.9769 0.81294-1.323 1.9369 0 0zm158.66-4.8306c1.9686-7.4182-9.5874 12.084 0 0zm46.313 2.3861c11.41-12.214-9.3004 5.5372 0 0zm-92.8-0.1c-1.3092-3.209-2.2166 3.7857 0 0zm105.68-7.03c3.7858-7.3264-14.635 17.213 0 0zm-123.21 3.0361c7.7984-11.193-11.194 8.448 0 0zm19.651 1.6599c-1.7321-1.2516-2.7248 2.2047 0 0zm-1.6169-3.601c16.831-19.481-14.544 10.531 0 0zm-11.04 1.5399c-2.6714-2.5002-2.6713 2.5002 0 0zm101.69-1.3688c1.6223-3.4377-4.439 3.9096 0 0zm-119.51-0.81346c4.2044-8.1085-8.7172 5.488 0 0zm6.819-0.74212c1.595-4.046-3.7613 4.7671 0 0zm-281.67-3.9197c15.312-19.029-13.224 6.6673 0 0zm342.63 1.3284c-1.9712-1.3042-1.5972 2.3508 0 0zm71.178-3.1513c-3.5028 0.96942-3.9436 4.6856 0 0zm8.9637 0.47489c0.45473-17.538 17.647-21.503 13.302-40.984-6.2991 3.7356-24.291 39.434-13.302 40.984h0.00002zm-114.13-6.651c-5.6685 0.29355-11.244 12.428 0 0zm-311.53 3.8612c10.952-8.8589 15.161-24.343 2.3632-5.8458-2.2685-0.0763-10.595 14.84-2.3632 5.8458zm64.227 1.8656c7.8494-7.0099 41.95-44.274 15.677-22.607-2.7828 3.2081-29.467 23.696-15.677 22.607zm-138.93-1.1096c-1.2987-3.4463-2.1259 2.482 0 0zm-3.0798-1.1189c8.0657-15.016-10.107-34.257-6.0009-6.9758 1.4499 1.0291 2.876 10.55 6.0009 6.9758zm394.23-1.4966c11.353-10.691 15.754-20.602 1.504-3.7709-2.0859 1.7081-8.7841 10.322-1.504 3.7709zm-322.53-0.84185c1.4585-11.219-5.5646 9.5342 0 0zm349.94 1.7548c3.0212-7.8687-6.6955 4.3405 0 0zm69.705 0.5623c-1.8499-2.3052-0.6915-1.0975 0 0zm-351.91-4.7689c9.6518-7.0617 44.656-48.764 15.282-22.876-3.7972 2.036-32.92 33.778-15.282 22.876zm282.5-3.884c-4.9532-1.6207-3.7388 9.6088 0 0zm90.641 3.5214c15.125-20.983-6.3629-14.476 0 0zm-125.58-2.7916c8.5247-11.477-11.418 10.11 0 0zm-304.43-5.33c18.566-22.018-6.6192 0.68633-6.1015 6.5019l2.1508-2.4666 3.9507-4.0353zm312.41 3.4027c10.051-10.212 18.771-22.535 1.923-4.1064-4.4261 1.7362-9.4309 12.8-1.923 4.1064zm-14.301 1.5399c8.7793-7.6916 27.776-34.095 7.15-10.802 0.57161 0.22006-17.315 17.309-7.15 10.802zm117.92 1.1977c-1.7487-2.4553-1.7486 2.4553 0 0zm-82.121-2.7777c14.091-13.522-3.415-5.8443-2.5547 2.073l2.5547-2.073zm-282.23-0.0157c8.3679-6.8364 47.63-48.059 18.898-25.952-2.8324 4.8522-32.507 28.017-18.898 25.952zm-145.11-0.31c3.1172-16.285-18.333-24.538-3.1658-4.4502 1.2465 0.97051 1.5322 8.4113 3.1658 4.4502zm421.14-1.3065c15.076-11.017-4.933-3.51-1.9684 1.8038l1.9684-1.8038zm-32.429-1.5929c10.081-8.9222 31.393-38.244 8.3847-12.602-1.4834 1.7239-19.211 20.059-8.3847 12.602zm-300.17-3.851c-4.6767 2.7738-2.8592 5.7557 0 0zm57.625-3.4198c9.3054-8.8864 42.547-44.546 15.56-20.777-4.1489 3.5002-36.289 36.987-15.56 20.777zm262.37 0.41937c12.303-18.146-15.457 15.216 0 0zm12.346 1.0472c5.2641-7.982-7.4092 5.0412 0 0zm-30.31-3.7642c9.8177-8.9556 23.346-29.007 4.2607-8.3383-2.2859 1.1714-16.535 20.12-4.2607 8.3383zm-297.93 1.909c16.411-15.436 0.91451-10.522-0.65718 0.95705l0.65718-0.95705zm232.92 0.45993c6.657-8.5958-5.1057 2.6485 0 0zm-186.38-1.7697c7.5411-7.6648 48.645-48.697 21.322-26.868-2.5049 6.6578-31.137 23.32-21.322 26.868zm-135.52-1.76c2.3476-15.446-7.9104-35.77-8.1858-9.2267-1.1982 2.3616 7.0194 12.305 8.1858 9.2267zm34.263-2.6069c8.7247-11.353-8.6343 7.4263 0 0zm187.57-0.003c32.708-23.608-19.587 1.0554 0 0zm-150.38-1.3658c3.1399-22.704-4.9857 5.7008 0 0zm311.14 2.3719c11.859-9.6433 23.473-30.535 5.1582-9.0448-1.2928 0.0483-11.723 10.704-5.1582 9.0448zm-293.42-2.9993c2.7598-6.5159-6.8158 6.9498 0 0zm-67.948-0.57034c1.0964-5.0835-4.3301 4.9974 0 0zm12.875-6.0883c-10.422 7.6499-6.1274 10.781 0 0zm10.013 3.9231c-3.0691-22.161-6.4202-35.366-6.843-56.536-15.336-6.6627-10.685-19.648-22.997-11.792-16.263-18.881-18.124 25.367-9.4658 30.999 7.986 14.113 33.56 34.008 39.306 37.33zm-12.46-19.99c-14.515-4.2844-8.6996-22.945 1.1793-2.4447 1.7769-0.19218-0.58281 6.6411-1.1793 2.4447zm-2.3711-4.5244c-4.0759-5.0416 1.677 4.9044 0 0zm-2.8929-3.3765c-3.1872-2.9427 0.68099 3.671 0 0zm-11.708-5.3602c-13.755-14.309 1.9238-21.765-1.8009-23.47 6.8364-5.1878 16.244 3.9787 4.0419 13.148-9.9518-0.9539 10.166 11.075-4.5685 5.2725-0.39993 0.93992 9.3027 7.6182 2.3275 5.0488zm12.707-18.982c2.6229-3.6829 2.6229 3.6829 0 0zm-18.491-8.9286c-2.2341-12.767 3.6992 7.2778 0 0zm7.376 61.873c27.124-25.3-9.8551 0.65559 0 0zm-26.538-1.4425c-2.6499-1.9976-0.71489 5.2275 0 0zm144.67 1.1977c9.4229-7.163 46.268-48.494 18.442-21.917-3.4031 4.8436-23.637 21.332-18.442 21.917zm396.02-4.0997c15.127-37.176-16.165 15.16 0 0zm-314.39 3.4153c22.847-11.397-10.165-10.05-0.93915 0.88482l0.93915-0.88482zm-205.4-1.1968c16.049-15.166 5.9243-11.667-2.4145 1.1189l0.7203 0.32522 1.6941-1.4441h0.00005zm13.327 0.12979c-1.9712-1.3042-1.5972 2.3508 0 0zm72.468-4.4231c6.4035-11.896-12.09 11.728 0 0zm292.08-2.7372c18.078-20.098-11.806 7.069-4.6478 4.6021l4.6478-4.6021zm-361.56 4.7894c-0.2077-2.7201-4.0131 3.763 0 0zm184.54-0.96465c20.597-11.887-13.817-4.7248 0 0zm-201.22-4.6294c6.9672-11.09-11.806 13.873 0 0zm250.35 3.3117c14.031 0.78972 25.663-5.0326 38.907-9.4962 11.744-11.523 27.027-22.924 30.788-39.194 3.3162-13.636 7.2747-30.629 0.19119-48.152-5.5936-10.945-11.563-32.726-31.69-40.556-35.345-23.031-88.551-8.2809-106.84 30.1-11.852 21.961-10.833 49.775 1.1946 71.478 13.058 22.688 40.786 39.594 67.452 35.82zm-17.624-8.6233c-26.151-5.8718-49.198-28.732-51.512-55.946-1.7883-11.25 0.05-24.383 5.6741-35.807 3.1339-9.6489 11.972-17.237 18.457-24.531 12.314-7.6448 23.488-15.478 38.525-15.522 29.568-2.6045 56.993 17.718 67.187 44.737 7.8769 13.574 6.2319 43.593-7.2176 58.636-14.836 24.096-44.282 32.799-71.114 28.432zm13.078-1.9112c31.798 3.0783 66.457-23.893 66.863-57.477 1.6201-26.002-13.026-51.631-36.465-63.171-23.802-10.419-53.684-2.9971-72.649 15.592-15.797 15.339-19.356 34.254-15.583 55.601 3.0985 14.358 11.708 29.84 24.522 37.992 8.8634 7.5805 22.478 12.114 33.313 11.464zm62.867-97.252c5.0255-9.2344 3.2688 1.964 0 0zm-4.0847-6.4355c3.6372-8.947 4.2939 3.6555 0 0zm-4.1282-5.9315c2.4268-3.6541 2.3912 3.0461 0 0zm-243.22 117.8c-1.2438 0.82316 1.2484 4.561 0 0zm25.497-1.091c-7.4124 4.0768 0.36571 4.2661 0 0zm42.239 1.4395c10.176-8.3775 42.282-44.7 15.342-19.571-1.9088 1.6704-27.693 26.438-15.342 19.571zm245.96-0.0265c12.28-10.767 17.998-25.636 1.7942-5.3681 0.0323-3.2474-5.4646 8.4233-1.7942 5.3681zm-393.15-2.1315c-2.9349-2.7922 0.07611 4.7639 0 0zm219.71 1.0159c15.52-16.451-10.273-4.103 0 0zm317.74-1.8105c19.839-20.542-11.779-19.267-2.0497 1.0706l2.0497-1.0706zm-455.7-2.6466c-2.3729-8.1656-1.9686 7.1519 0 0zm-60.061-2.132c9.5995-13.711-14.207 12.187 0 0zm508.31 0.14096c-6.4536 3.2767 1.1704 3.4867 0 0zm-385.53 1.6084c7.4934-7.2546 43.192-42.979 14.793-18.792-2.0421 3.2669-22.228 19.513-14.793 18.792zm-147.22-7.61c-10.42-18.129 2.9216 19.678 0 0zm30.414 5.8143c-2.3753-1.1798-1.1293 3.1953 0 0zm190.92-1.4171c2.8514-9.8753-10.407 5.5079 0 0zm176.31-0.96677c8.4835-7.937 39.074-45.582 14.813-19.949-2.3048 3.1345-25.729 25.922-14.813 19.949zm90.328-0.80486c-3.3477 0.74152-0.7241 4.4378 0 0zm41.71 1.9007c12.615-14.226 4.2605-9.1801 0 0zm-117.69-1.4143c-0.20162-4.0038-3.8848 2.6773 0 0zm100.92-3.4231c-4.4361-0.55839-4.4232 6.2894 0 0zm-504.75-0.8089c2.4711-14.228 1.6338-17.166-8.5566-11.085-10.64-27.558-4.8549 8.4222 5.8339 13.264l1.0466 0.0445 1.676-2.2231h-0.00003zm208.39 1.0456c-2.5208-4.816 0.40337-1.6011 0 0zm305.92-4.5741c-8.2122 6.4009 0.76371 2.5086 0 0zm4.4704 3.8543c12.15-11.37-5.2316 1.8699 0 0zm-508.86-1.9174c-3.1636-2.2643-2.1198 4.155 0 0zm50.646 1.0784c13.833-12.231 15.899-25.578 0 0zm79.498-0.85551c10.19-4.6324 36.693-37.704 11.772-13.544-0.26309 1.5248-20.299 18.559-11.772 13.544zm366.73 0.85551c-1.7486-2.4553-1.7486 2.4553 0 0zm-179.14-2.942c-3.8513 0.57095-1.2774 4.7002 0 0zm153.33 0.95425c3.7182-11.65-6.6577 7.1301 0 0zm63.059-1.1202c6.1828-10.209-11.065-39.176-10.835-10.399 1.4163 10.453 10.377-5.2082 7.403 11.795l1.9482 1.1614 1.4835-2.5569v-0.00003zm-154.81 0.75839c8.5333-8.8171 37.84-43.294 11.486-16.877 0.42528 2.6988-23.155 22.766-11.486 16.877zm119.62-0.0863c-1.9713-1.3042-1.5972 2.3508 0 0zm-303.63-1.3284c0.87958-9.707-6.5081 5.1816 0 0zm305.68-0.72481c-1.9713-1.3042-1.5972 2.3508 0 0zm-369.89-4.066c11.287-7.9877 29.409-31.695 7.4822-9.7289-2.0369 1.2338-22.033 20.828-7.4822 9.7289zm384.45 2.5227c12.837-13.258-5.2496 2.3505 0 0zm-45.044-2.7811c-4.0428 1.6577-1.3498 5.0288 0 0zm-91.675-0.56766c11.111-9.6839 31.13-40.02 8.2081-13.542-1.5286-0.0101-17.782 20.833-8.2081 13.542zm-186.9-0.4283c-4.4196-4.5033 0.97885 6.554 0 0zm133.61-0.16744c7.4698-10.161-10.523 8.5431 0 0zm104.14 0.94272c2.2248-5.7327-5.4646 2.9068 0 0zm84.598-2.233c11.213-13.872-13.6 11.581 0 0zm-45.477 0.18762c1.9613-3.6936-0.55901-3.0053-1.8171 1.4979l1.8171-1.4979zm-375.83-1.3064c2.4243-5.8381-4.3887 5.276 0 0zm317.18-0.78886c12.973-16.228-10.589 5.1585 0 0zm-281.14-0.3422c12.438-9.7463 26.906-29.889 7.0406-10.266-0.7539 0.35635-15.762 14.242-7.0406 10.266zm297.4-0.0404c13.322-10.685-7.4922-1.5361 0 0zm-363.43-8.0014c9.1097-13.291-20.536 21.153 0 0zm357.42 6.2879c8.6394-11.543-12.55 7.8726 0 0zm-232.11 0.0112c-3.474-1.4853 0.69963 3.6656 0 0zm142.46-0.0656c9.4231-9.9721-6.5728 2.0508 0 0zm75.14-1.2051c12.175-13.575-11.092 5.5166 0 0zm-27.433-0.87362c9.4856-10.401 27.569-34.256 6.4644-10.56-1.8637-0.0662-14.385 18.535-6.4644 10.56zm55.467 1.6626c-1.7486-2.4553-1.7486 2.4553 0 0zm-352.49-18.9c-9.7675 4.4914-24.231 27.343-5.024 5.9662l2.6114-2.8574 2.4125-3.1088zm-6.174 14.984c11.887-10.09 28.358-35.983 6.052-9.9449-1.7174 0.7033-15.916 18.258-6.052 9.9449zm-88.274 0.0182c12.386-18.733-11.493-17.955-3.7655-1.5575-1.4396 1.861 4.2666 4.7248 3.7655 1.5575zm198.48-0.86901c-4.2283-8.1867-2.9748 7.0337 0 0zm286.22 0.70427c3.4325-5.6588-7.8882 4.6357 0 0zm50.51-0.0603c-1.9713-1.3042-1.5972 2.3508 0 0zm-93.999-3.7238c11.186-7.3374 16.707-25.635 2.6303-6.7984-2.4142 1.7526-11.044 15.158-2.6303 6.7984zm5.6789 0.50863c16.036-19.224-9.4378 7.2415 0 0zm32.198 1.8868c-2.6713-2.5002-2.6714 2.5002 0 0zm-376.42-1.067c-1.9712-1.3042-1.5972 2.3508 0 0zm39.696-0.64401c13.992-7.0679 18.498-21.827 2.9365-3.6074-1.3408-0.47959-9.0607 8.8641-2.9365 3.6074zm202.83 0c-0.41099-3.9722-3.8386 4.3229 0 0zm5.4972-0.0572c-1.3092-3.209-2.2166 3.7857 0 0zm-251.03-2.3503c20.634-22.304-7.9236 1.8562 0 0zm6.4627-1.915c-4.6175 1.4052-2.4121 7.8098 0 0zm428.4 2.1855c-2.5406-0.40532-1.825 3.4623 0 0zm-545.82-1.62c-4.7468-3.1737 2.6853 6.2126 0 0zm206.38 1.2698c0.53367-6.7718-5.1216 4.3466 0 0zm158.05-5.8082c8.9203-16.124-16.762 18.97 0 0zm38.305 4.3553c-5.1445-2.4228-1.154 6.2641 0 0zm-38.305 1.1573c-1.9712-1.3042-1.5972 2.3508 0 0zm197.29-2.9602c6.5376-30.475-14.938 14.713 0 0zm-195.92 1.974c-1.688-2.438-0.82766 2.5023 0 0zm-269.95-4.6301c-4.9525 2.0964-3.333 6.9712 0 0zm355.16 0.83428c10.224-7.2466 22.675-33.518 4.8508-9.6566-1.7459 2.56-16.252 19.096-4.8508 9.6566zm-298.06 1.4004c1.2265-3.555-3.6492 3.2605 0 0zm-150.57-1.57c-2.9241-9.309-3.5468 6.3141 0 0zm406.33-1.9579c25.034-26.844-14.132 9.4304 0 0zm-204.2 0.99539c0.0621-6.4394-5.7111 5.8069 0 0zm-42.6-5.1629c14.071-16.773-15.335 13.425 0 0zm200.53-0.13116c18.818-26.896-13.538 14.18 0 0zm86.096 1.7903c9.8997-9.6285 23.518-34.198 4.1801-11.758-1.6552 1.7357-15.737 19.857-4.1801 11.758zm25.126 0.40837c-1.5422 0.63969 1.4382 2.71 0 0zm7.838 0.32795c4.1127-8.0137-6.2052 4.9655 0 0zm-77.255-1.3404c6.0228-8.3411-7.981 7.2583 0 0zm150.38 0.20813c10.177-19.987-10.094-18.772-5.3808-1.4567l2.5591 3.4339 2.8217-1.9771zm-351.46-2.4085c-1.3368-6.3021-6.4744 10.249 0 0zm-45.764-2.2766c18.907-18.587-20.657 16.157 0 0zm-146.82-0.72c8.6303-13.108-0.86694-26.234-7.1459-13.832-1.8034-5.6756-5.789-39.855-5.5467-14.835 3.5157 10.969-6.3938 25.229 2.7596 29.068-0.90312-20.567 7.1096 15.72 9.933-0.40179zm-9.4171-7.663c-2.2576-8.8088 6.1602 3.0689 0 0zm102.15 10.257c-0.84993-2.6982-2.4558 2.6057 0 0zm11.44-5.634c14.914-18.956-16.622 15.257 0 0zm292.77-3.5122c-8.0375 5.5401-9.8494 13.483 0 0zm-390.38 5.2251c-1.5422 0.63971 1.4383 2.71 0 0zm183.03-0.56356c4.3827-9.2511-7.191 8.5867 0 0zm245 0.7204c9.2228-7.5863 20.073-29.863 4.5814-9.2633-2.0866 3.125-9.9867 7.2304-4.5814 9.2633zm23.863-1.769c5.4604-9.9133-10.473 9.8355 0 0zm-351.57-9.6097c4.6527-14.176-21.327 23.869-3.634 4.0795l3.634-4.0795zm248.01 4.7521c10.135-17.831-15.372 17.629 0 0zm46.842 3.8485c-1.9712-1.3042-1.5972 2.3508 0 0zm-215.8-1.1055c4.2519-8.0939-7.4464 4.2637 0 0zm364.97-7.4092c3.9963-24.919-10.923 1.7869-0.91277 8.1708l0.39165-2.6078 0.52112-5.563zm-405.52 5.5499c-3.8426 1.1384-1.2796 4.3849 0 0zm258.75-0.0746c2.926-5.6381-5.975 5.1508 0 0zm-394.15-3c11.128-17.276-11.084 8.6356 0 0zm19.017-0.23744c6.9239-10.205-10.564 8.5798 0 0zm153.19 1.221c7.2983-9.6268-6.7887 4.7362 0 0zm218.79-0.86848c7.0343-9.6658-8.9536 7.1338 0 0zm33.324-0.16339c11.245-9.2508 14.743-20.803 0.14249-4.4147-1.9082-2.3199-3.061 8.7114-0.14249 4.4147zm-409.92-2.7605c10.927-8.4693-9.778 3.4084 0 0zm331.32-3.501c9.922-16.14-13.962 14.083 0 0zm114.49 3.475c-3.205-3.6022-0.7588 3.5111 0 0zm-452.74-0.51331c14.685-11.473 2.398 2.8507 0 0zm525.83-3.0799c10.036-9.3993-4.8135-31.061 9.7072-9.1662 0.44934-8.0905-4.9172-39.261-7.5598-12.616-8.2374-12.099-9.8473 34.982-2.1475 21.782zm-535.22 1.326c-2.3011-3.0454-2.487 3.5904 0 0zm171.51 0.21388c-1.5583-3.8177-3.0395 3.6877 0 0zm7.281-0.3826c-1.9712-1.3042-1.5972 2.3508 0 0zm2.979-4.2292c-2.9925 0.008-1.4911 6.5183 0 0zm-14.367 1.5319c8.0952-6.8709 26.949-28.222 7.0857-9.2706-0.0651-0.68126-12.93 13.37-7.0857 9.2706zm260.95-1.1217c18.09-23.263-14.995 10.495 0 0zm-424.74-0.3758c6.9709-7.1905-8.913 5.1932 0 0zm174.38-1.8191c14.979-14.991-11.504 6.2352 0 0zm-127.53-0.0975c5.9574-16.81-2.6562-25.462-2.0083-3.4084-5.8195 2.3242 3.2055 8.0596 2.0083 3.4084zm48.245 0.86665c5.031-9.079-7.2558 4.2657 0 0zm248.33-3.2699c9.0082-16.705-11.238 13.389 0 0zm-182.1 1.4462c1.1037-5.0224-6.5573 5.8174 0 0zm-162.96-1.79c15.737-15.74-6.8981 4.0766 0 0zm-12.031-0.50373c9.6217-10.143 7.1592-31.137-5.2592-11.441 5.3174-2.2706-0.05707 18.837 5.2592 11.441zm19.26 0.33263c2.6791-6.121-8.0281 5.6041 0 0zm422.65-6.5748c2.9468-12.868-16.676 21.03 0 0zm65.493 3.9609c-2.1816-2.2769-0.24987 3.3708 0 0zm-403.79-2.8174c18.944-21.621-16.585 12.628 0 0zm69.549 2.1702c13.973-9.5643-0.0896-6.053-2.1999 1.3239l2.1999-1.3239v0.00002zm341.06-1.5245c-0.35444-14.257-13.813 9.5293 0 0zm-159.76 0.033c15.823-16.94-8.5135 3.6866-0.00005 0h0.00005zm81.713-2.2097c16.466-15.116-2.3677-9.0066-1.9328 1.5532l1.9328-1.5532zm95.548-1.4621c-1.9712-1.3042-1.5972 2.3508 0 0zm-180-0.38166c13.956-13.989 4.6639-9.2212-1.3688 0.0348l0.6844 0.7294 0.68441-0.76416zm-242.96-9.9406c3.3611-9.0209-18.651 20.962 0 0zm423.52 4.5977c9.8359-0.82922 21.882-9.681 10.218-24.007-3.8788 12.411-8.8739 19.587-14.454 27.783l4.2362-3.7758zm-350.16 2.9019c-3-0.98036-0.29675 1.3174 0 0zm300.6-0.61628c-1.3092-3.209-2.2166 3.7856 0 0zm6.1753-0.0408c0.79002-4.7585-3.0224 4.1264 0 0zm-85.351-2.9456c6.6981-9.3477 35.154-35.664 29.629-36.526-4.6536 6.2396-40.974 41.948-29.629 36.526zm121.34 1.6748c16.162-13.027 0.21962-8.5357 0 0zm-172.41-3.7642c14.382-13.752-1.7434-6.8246-2.1504 3.1309l2.1504-3.1309zm44.572 1.3115c15.647-13.543 1.6717-12.221-2.5249 2.0559l2.5249-2.0559zm15.271-2.0362c12.112-15.392-13.236 10.824 0 0zm-215.64-2.3551c16.254-20.089-17.484 15.65 0 0zm240.32 3.9353c14.317-13.976 5.661-15.241-1.5322-2.3021-2.8925 1.6091-1.0519 5.5865 1.5322 2.3021zm-443.22-1.6768c-1.0906-3.6698-0.95455 4.6715 0 0zm512.29-0.62318c-0.8699-11.642-3.8966 7.0205 0 0zm-15.416-3.1088c-4.7894 1.2937-3.089 4.8124 0 0zm-8.2129 1.8156c-1.7486-2.4553-1.7486 2.4553 0 0zm-87.946-2.0532c21.37-22.031-10.726 4.9797 0 0zm-399.75 0.76792c3.8329-28.62-10.414-11.942 0 0zm7.8107-0.59681c6.9188-12.76 12.848-29.705-4.4618-18.267-2.8281-7.6343 1.5988 22.918 4.4618 18.267zm8.2109-1.4984c-1.0815-4.4202-2.2006 6.2158 0 0zm426.87-1.8154c11.262-10.095 16.632-21.434 0.62195-3.6056-2.309 1.7398-7.7198 11.608-0.62195 3.6056zm90.658 1.0705c-2.8923-1.2212-1.4326 3.2033 0 0zm-420.28-1.4025c7.5778-11.513-8.927 6.2207 0 0zm89.541-1.8008c-3.0418-3.2035-4.4929 9.0446 0 0zm283.22 2.929c19.549-21.607-9.3019 2.7566 0 0zm-133.15-2.0152c10.622-9.9382 12.463-24.889 1.3579-5.4333-1.3137 1.2582-6.825 10.106-1.3579 5.4333zm-280.7-5.2637c24.584-25.881-22.021 12.473 0 0zm329 1.6271c6.9546-10.521 31.178-29.644 29.128-35.838-6.1638 7.6963-39.326 40.79-29.128 35.838zm73.008 1.8386c22.208-17.962-5.102-3.1123 0 0zm57.217-0.5133c18.356-17.224-10.08 4.9343 0 0zm5.5652 1.1977c6.7909-5.5023-5.4426 0.65467 0 0zm-95.221-2.3529c35.536-37.508-11.899 3.8847 0 0zm44.992-4.9864c-9.3066 6.7726-8.1914 11.368 0 0zm-72.964 5.644c10.609-8.7232 37.633-45.646 12.539-17.272-2.7487 4.0479-16.462 15.694-12.539 17.272zm55.308-1.2213c-2.9173-4.6114-4.3388 4.5636 0 0zm87.757-2.1875c-5.6318-4.3327 1.3175 5.8377 0 0zm-495.95 0.0166c13.95-17.337-9.1403-8.5878 0 0zm288.55-0.38784c11.475-9.3372 18.316-25.588 2.4902-6.4691-1.3894 0.18992-9.4612 14.028-2.4902 6.4691zm113.9 1.6378c-2.2287-5.9244-0.67922-0.9709 0 0zm-350.07-2.3748c13.962-17.419-11.935 9.2605 0 0zm98.413-3.3694c18.656-18.108-5.0038-1.3461-4.8069 4.7035l4.8069-4.7035zm244.18 4.1064c9.9848-5.2425-6.6926-0.0119 0 0zm-44.6-0.79c10.175-10.339 36.811-43.473 10.962-15.975-0.65118 4.4506-19.031 16.226-10.962 15.975zm132.74-1.9251c6.9679-20.169 3.0889-13.244 9.3038-0.16156 6.2319-15.751-15.618-32.639-18.807-9.6511 10.386-12.378 3.4371 19.483 9.5034 9.8126zm-143.85-1.148c5.8571-7.321 32.685-33.794 25.964-32.084-2.9921 4.9678-37.269 38.098-25.964 32.084zm33.785 1.1127c15.587-13.789 10.689-22.921 0 0zm8.3924-1.2167c14.029-12.836-2.9879-7.2932-4.1789 2.4984l1.0646-0.0583 3.1143-2.4401zm-95.596-0.0435c9.4692-9.4703 23.713-29.259 4.4299-9.3174-1.8486 0.96895-13.695 16-4.4299 9.3174zm133.55-2.8462c6.1984-16.249-9.8398 11.735 0 0zm-367.11-1.8714c5.2384-9.8993-8.8783 8.7296 0 0zm423.51 1.5781c3.8559-6.209-6.3069 3.6484 0 0zm-193.13-1.3092c9.0399-6.7918 25.363-32.076 8.3292-13.512-0.22572 0.67198-20.517 19.103-8.3292 13.512zm-270.19-0.0551c-0.64757-15.526 22.087-19.637 4.3749-6.4993 18.395-2.9524 1.3707-11.789-2.505-16.79 10.087-0.29639 16.498 6.3601 11.496-7.1698 7.2868 10.715 25.203-29.18 7.4341-6.0678-26.519 13.092 22.285-32.219-6.3356-6.4587-4.0767 13.151-25.209 24.799-10.775 1.184 9.2344-9.0563 11.321-40.943 31.701-28.991 6.3863 6.2764 12.044-20.039 8.3674 0.49854 11.965 1.148 6.0671-18.342 10.661-0.49298-3.491 7.3632-21.396 14.05-2.1163 7.4254 14.44-7.1134 30.573-29.62 5.6982-9.9723 11.238-8.9313-0.68002-10.954-11.709-8.6717-8.8571 2.533-35.967 12.428-11.12-1.9484 17.638-5.7376 22.392-3.7208 39.318-3.4194 7.1653-3.6821 18.937 13.582 29.48 1.4264 23.886-4.0123-0.39167-22.894-11.4-23.926-17.28-2.089-40.004 5.3136-54.16 18.604-10.681 3.0136-34.31 28.496-16.615 6.9387 6.3381-12.233 18.897-11.18 18.209-26.802 13.281 6.6945 15.364-9.5748 9.1931-13.853 19.528 0.0906 14.22-27.653 11.982-35.039 10.462-8.0638 38.53-29.17 9.8436-11.878-9.4752 8.5558-16.148 11.188-10.687 5.1044-19.62 6.6215-5.1556 13.846-7.0476 12.961-12.496-2.74-39.821 25.563-12.799 6.7681 15.826-9.9985-15.189 14.555-16.922 21.672-14.99 16.751-7.0927 51.155-18.054 73.854-8.2746 4.9911-16.558 47.337-12.494 36.625 12.386-15.924 1.7059 6.9274 2.3856 13.015 1.464-0.25783 3.2221 4.836 4.5943 1.9024zm31.066-85.815c12.475-9.341 11.794-1.3197 0 0zm57.927-3.8959c0.59229-3.6151 1.6245 3.5911 0 0zm-46.121-1.4456c10.947-6.5011 12.73-1.844 0 0zm41.953-2.2816c-16.282-7.4263 10.416 1.6019 0 0zm7.3239-1.2044c-13.75-6.6776 10.964-0.45652 0 0zm-33.707-1.1876c1.5972-2.3508 1.9712 1.3042 0 0zm42.857-1.4255c-3.6447-6.0489 5.1233 2.4104 0 0zm-6.5729-1.1814c0.52836-3.5847 2.0014 5.0045 0 0zm-22.254-0.42772c-5.4829-3.0981 13.549 0.65234 0 0zm-53.726-1.9818c2.8175-5.6655 1.264 3.5042 0 0zm2.778-2.7235c6.6006-5.707 9.156-20.817 16.385-23.954-2.6286 7.3923-8.2762 23.436-16.385 23.954zm2.1269-12.49c2.187-2.9046 2.3458 2.5253 0 0zm-0.12-3.73c1.6969-3.6061 1.6969 3.6061 0 0zm17.216-10.302c3.2743-5.1003 0.95677 3.534 0 0zm-6.2654-6.1918c5.158-9.0961 19.392-4.465 0.66604 0.37809l-0.66604-0.37809zm-4.1064 136.66c25.29-16.185 2.2962-8.8497 0 0zm296.42-3.3894c8.3267-8.3518 41.31-47.316 15.219-20.619-1.8434 4.9188-27.027 26.957-15.219 20.619zm77.5-0.43039c9.7496-13.935-9.8803 9.3746 0 0zm-473.41-0.79c5.6658-36.016-11.714 2.2789 0 0zm59.113-0.34387c-4.4796-2.3949-2.4706 6.4751 0 0zm-51.445-1.5528c18.544-14.381 3.0857-33.681-3.7255-9.9928 0.75205 1.0812 0.1837 17.978 3.7255 9.9928zm207.62-2.6341c17.44-16.794-2.1699-6.075-5.3042 4.9773l1.6843-1.4621 3.6198-3.5152zm124.89-0.33217c8.2326-5.3032 19.873-27.64 4.4995-9.6542-5.7499 4.2898-19.234 22.681-4.4995 9.6542zm-6.1746-1.5822c12.215-11.949 25.365-31.927 5.9272-11.104-3.2489 1.3865-19.679 24.088-5.9272 11.104zm134.38 3.4696c-1.7487-2.4553-1.7486 2.4553 0 0zm62.25-1.52c11.239-17.02-8.6839 6.8053 0 0zm-135.89-0.31111c0.76448-4.8398-5.8807 4.6607 0 0zm-337.14-4.9736c0.84878-21.355 13.763-37.329 17.381-57.87-3.8212-10.409-3.0789-42.009-18.722-17.477-19.232 17.495-17.6 48.745-5.237 70.551 2.9841 3.0555 4.5488 16.4 6.5782 4.7948zm-3.9825-7.321c2.2486-3.0303 3.3118 3.2572 0 0zm-0.42537-6.5997c-0.0897-11.005-2.6846-45.232 1.3005-38.654 1.6989-12.68 15.499-28.408 5.5966-5.505-6.1 12.511-5.5687 36.702-6.8971 44.159zm-5.1784 16.581c9.2418-9.3587-10.769 4.0096 0 0zm278.39 0.861c10.43-10.373 34.121-41.157 9.5978-15.378 0.0513 3.3255-18.453 15.996-9.5978 15.378zm150.62-1.1872c6.0854-5.5325-1.0488-9.0739 7.0885-8.8569-4.1196 0.001 0.22916-6.7041-7.1863-10.478-3.1728 22.095-9.1975-16.665-13.302 7.1863 2.5676 5.5024 4.6298 16.755 13.399 12.148zm-4.2042-3.7642c3.1613-6.6117 9.7645 3.7325 0 0zm-248.89 2.8284c5.3437-7.3461-7.1996 4.8285 0 0zm173.94-0.83755c-3.2713-0.72631-1.5959 4.3601 0 0zm-75.969 0.18477c9.6643-8.978 36.819-44.452 11.806-17.343-1.589 4.948-18.007 14.179-11.806 17.343zm142.36-0.12245c-1.7487-2.4553-1.7486 2.4553 0 0zm82.433-1.9704c0.28564-11.909-9.4001-26.364-6.7482-4.7176-0.16159 0.96394 7.7341 9.6027 6.7482 4.7176zm-499.78-2.372c4.6302-8.5046-10.149 7.1492 0 0zm349.36-1.6461c8.9214-8.0218 29.6-35.834 8.0939-12.159-1.7941 2.1966-20.725 23.369-8.0939 12.159zm10.844-4.3162c11.726-17.2-19.292 21.332 0 0zm-87.959 4.6988c10.873-9.3448 34.557-41.837 10.39-14.409-1.1654 1.6962-24.155 22.907-10.39 14.409zm143.71-0.38256c-3.3775-3.7228-0.43977 6.6876 0 0zm-232.09-2.4051c13.75-4.5621 24.998-23.25 29.494-28.456-20.298 33.889 24.949 8.4838 28.955-8.115 13.63-8.9914 25.199 12.561 41.881 12.463-10.89-16.143-9.2557-19.846-1.699-31.821 4.4232-16.672 15.823-12.403 10.403-30.628 8.8465-12.198 3.5618-4.2353 2.3986-21.418-3.6294-16.43-0.36757-35.718-20.157-44.467-17.118-14.695-39.172-21.881-61.391-26.225 11.378-10.605 12.118-12.556-1.3691-7.3111-6.0188 13.128-40.438 7.3221-45.897 29.904-6.5626 22.015 29.133 6.6543 39.296 1.7714 10.641-8.7394 11.371-5.8534 5.3276 2.6742 13.813 5.7882 42.968-6.5309 34.014 2.4101 21.221-12.975-12.576 13.262 9.2238 1.988 18.459 7.3279 35.434 10.77 35.769 35.853-2.8292-27.451-34.169-26.543-51.097-33.918-10.17-8.6383-43.33 1.703-61.236 2.9483-15.267 8.5408-44.913 32.035-35.417 49.07 17.686 7.3847 34.411 16.249 48.439 29.552 17.617 20.795-4.1084 47.661-11.129 67.47 1.5346-1.0837 3.3297-1.8561 4.1904-3.7458zm20.619-35.457c4.2835-9.9866 1.2287 4.1812 0 0zm16.125 0.11543c-2.2859-18.485 6.1522-3.4515 0 0zm-4.7036-1.193c-8.3117-1.9153-10.82-20.774 0.65876-18.037 1.6623 3.9278 3.0139 16.901-0.65876 18.037zm-1.8498-12.431c-0.79466-4.9755-1.8579 7.2827 0 0zm58.494 1.1745c-4.0885-11.655 6.0523 8.4258 0 0zm-4.5839 0.5769c-0.53878-6.014 3.75 3.1922 0 0zm-5.997-3.7642c-6.5603-35.083 6.1479 2.0733 0 0zm4.6253 0.12269c-2.9092-8.5004 3.0804-2.5101 0 0zm-10.175-3.8869c-2.4482-13.366-0.82539-26.386 1.0942-5.818l-0.50139 5.9886-0.59282-0.17051zm-18.789-2.4406c-4.8551-9.2212 4.7116-1.6122 0 0zm-31.093-2.1792c1.6521-4.7575 1.6521 4.7575 0 0zm5.6753-2.0532c-6.055-14.61 5.8105 7.9281 0 0zm33.849-0.39487c-3.2804-4.223-0.191-8.267 0 0zm5.8175-0.79781c-4.0418-11.694 4.5133-7.1403 0 0zm21.6-3.4271c-6.8988-12.894 11.476-16.528 7.7284-2.9639-8.0686-16.32-2.8728 0.32974-7.7284 2.9639zm-40.592 0.5133c-0.32168-5.3046 4.214 2.5119 0 0zm6.5019-0.39923c2.3912-3.046 2.4268 3.654 0 0zm-47.394-3.8783c-10.005-7.1199-26.831-18.631-5.3979-8.0418 4.3018 0.36133 19.116 15.693 5.3979 8.0418zm12.489-1.1977c2.6714-2.5002 2.6714 2.5002 0 0zm21.402-0.4135c2.71-1.4382 0.63962 1.5422 0 0zm20.395-2.8374c-7.524-14.512 3.0694-6.0828 1.4652 3.1615l-1.4652-3.1615zm3.7043-1.6123c-7.3298-16.277 6.9211 8.4008 0 0zm-52.04 0.0127c-0.2148-6.7773 5.2984 4.2287 0 0zm93.886-1.8551c0.0449-4.9347 2.2095 1.4526 0 0zm-3.268-5.6137c0.18724-10.73 3.0403 4.93 0 0zm-120.01-1.36c-5.477-10.204 8.5533 3.7848 0 0zm18.463-0.73599c-0.22104-8.2513 4.2228 6.745 0 0zm-4.4323-3.7697c2.3105-3.0511 2.4278 3.645 0 0zm101.29-1.3118c0.44477-5.9614 1.4971 5.9721 0 0zm-122.8-0.0489c-0.00023-10.105 14.293-1.0185 0 0zm15.182-0.46443c-0.22081-8.9474 4.2079 5.3536 0 0zm112.14-0.22708c-1.8336-7.5919 3.8468 3.8401 0 0zm-62.012-0.88163c-22.174 2.7103-16.287-36.512-12.326-27.465-6.2472 11.191 17.98-10.996 4.0715 2.5218-2.432 20.107 3.046 24.715 19.199 11.519 1.6092-24.974-1.0823-4.1322 7.6411-4.8279-0.49883-10.47-10.593-19.285-12.383-13.32-2.1266-7.3272-11.833-3.9086 5.3097-6.1584 21.646 8.4275 10.32 41.735-11.513 37.73zm6.8441-4.9531c15.855-8.3544-14.073 2.4592 0 0zm-17.52-5.8c0.25923-29.252-7.4092 2.8578 0 0zm27.664-2.5058c-4.8326-8.1345-2.7668 8.1205 0 0zm-89.53 11.307c-32.269-10.272 10.434-2.0602 0 0zm15.741-0.53274c2.6229-3.6829 2.6229 3.6829 0 0zm116.59-4.8204c-0.38072-6.1078 4.7753 4.448 0 0zm-2.7484-3.581c-5.9941-9.9906 5.9096 0.72868 0 0zm-57.716-1.5226c-9.434-7.8126 1.2551-18.761 1.366-3.4338 6.6541-3.5982 4.5378 5.8842-1.366 3.4338zm-45.998-3.7929c-14.88-6.3592 10.888-10.354 1.226-0.61753l-1.226 0.61749 0.00001 0.00004zm96.563-2.8212c-20.94-14.824 5.1369-7.346 0 0zm-74.747-0.68626c-3.1011-6.9414 6.9736 2.4255 0 0zm-7.7549-1.3008c0.66338-6.3546 4.5922 3.8966 0 0zm39.466-1.3228c1.6969-3.6061 1.6969 3.6061 0 0zm-3.422-2.778c2.1258-2.4821 1.2988 3.4463 0 0zm-3.422-5.4349c1.6969-3.6061 1.6969 3.6061 0 0zm34.607-0.14159c-0.85628-2.9955 2.3766 3.1997 0 0zm4.0741-1.1669c-5.3695-13.621 5.938 7.0817 0 0zm-47.198-1.0251c-0.33157-6.5784 5.0752 2.0057 0 0zm40.13-2.2457c-5.0623-11.878 6.4594 5.5876 0 0zm-6.9034-1.8113c-7.9997-15.113 10.89 12.14 0 0zm-29.159 0.57322c2.631-2.4538 1.7542 2.535 0 0zm23.363-1.8043c-13.094-15.579 11.911 8.2384 0 0zm-25.759-29.638c1.2987-3.4463 2.1259 2.482 0 0zm38.512-1.8227c2.7101-1.4382 0.63962 1.5422 0 0zm-10.623-1.5056c-11.319-2.7104 12.887-0.10044 0 0zm-15.57-0.81849c-14.552-9.5438 15.954 1.8392 0 0zm-41.064 166.95c-1.9712-1.3042-1.5972 2.3508 0 0zm298.53-2.1839c10.796-18.146-15.254-23.191-4.2327-2.5578l2.7204 5.4665 1.5122-2.9087zm-316.32 0.81511c-1.9712-1.3042-1.5972 2.3508 0 0zm20.654-0.13958c14.465-11.42-9.1494 3.0713 0 0zm-195.88-3.4132c-4.906-1.285-2.2942 6.8406 0 0zm269.08 1.711c0.74864-6.8958-17.067-37.101-16.153-26.605 0.98602 6.4989-8.319-14.904-3.7834 4.9994-6.1958-16.031-21.782 16.709 2.8834 12.537 5.7535 0.10343 11.366 12.61 17.053 9.0684zm-6.248-8.0988c2.3912-3.0461 2.4268 3.6541 0 0zm-3.422-2.3384c1.7486-2.4553 1.7486 2.4552 0 0zm-7.5285-2.4456c3.0623-3.2385 3.5387 3.7403 0 0zm3.8011-2.97c-0.89315-4.2756 3.97 0.53387 0 0zm-2.8366-4.4234c0.0321-4.9526 3.1576 2.5352 0 0zm-292.44 15.95c7.2546-14.02 0.7039-29.07-2.513-5.0903-1.613 1.4775-1.0481 15.924 2.513 5.0903zm388.61 2.9515c11.678-13.252-9.5937 5.0568 0 0zm-369.18-1.2387c7.8333-7.6561 24.472-24.722 5.1127-7.3975-1.2687-0.0125-12.173 13.514-5.1127 7.3975zm200.51-0.70282c2.9749-7.307-7.1581 6.7174 0 0zm74.282-0.75504c-2.4484-3.038-3.5421 4.7855 0 0zm161.52 0.13001c-1.6521-4.7575-1.6521 4.7575 0 0zm-200.52-1.7188c9.5872-12.963-14.74 11.416 0 0zm59.752 0.52108c11.162-14.91-9.8338 6.5448 0 0zm-53.505 0.24477c9.6834-10.193-9.4722 2.7424 0 0zm9.9994-2.7312c15.044-16.478-20.439 13.267 0 0zm4.148 2.7871c12.378-14.545-9.544 4.3525 0 0zm-238.15-1.1206c-0.94553-3.7279-3.1459 5.2804 0 0zm252.31 0.30663c-1.8155-2.6395-3.414 2.4845 0 0zm-66.73-1.3688c-1.7486-2.4553-1.7486 2.4553 0 0zm186.4-3.0264c15.51-20.9-11.999 7.7512 0 0zm-390.08-0.0427c2.5039-5.3106-6.9204 5.8347 0 0zm15.776 0.082c5.37-7.6451-7.3402 4.923 0 0zm57.868 0.59177c18.535-21.505-17.007 3.3887 0 0zm-83.498-2.2507c17.146-9.9725 6.8219-32.843-3.1314-8.5697 1.0581 1.2278-0.98928 16.148 3.1314 8.5697zm445.78 1.0828c0.31335-6.1282-4.5896 5.5001 0 0zm-228.14-0.62397c-2.3753-1.1798-1.1293 3.1953 0 0zm170.66-1.6402c16.969-17.973-13.243 10.329 0 0zm-83.977 1.3493c0.67572-4.6184-4.3854 4.3672 0 0zm77.574-2.1188c3.6582-5.5533-6.8385 7.6394 0.00003 0h-0.00003zm70.786 0.6463c4.6189-7.1781-7.96 6.3948 0 0zm8.0469-1.2385c1.5182-7.5042-7.3174 6.4928 0 0zm-159.06-1.2539c9.4045-14.158-8.6542 8.3414 0 0zm-83.915-0.57748c10.484-12.725-11.116 6.8236 0 0zm-198.88-2.7635c14.941-17.729-15.984 13.224 0 0zm493.32 3.2289c-1.6273-3.6956-2.399 3.6222 0 0zm-59.106-5.1818c5.1683-7.9991-11.742 13.587 0 0zm-377.6 3.4629c19.966-21.332-11.895 2.7486 0 0zm304.37 0.35002c-1.6969-3.6061-1.6969 3.6061 0 0zm7.1375-1.2785c8.5117-10.584-9.4178 7.9351 0 0zm60.619-2.4086c9.4728-14.8-11.074 13.075 0 0zm-149.89 2.9813c12.166-11.641-5.3332-1.2234 0 0zm19.399-0.51362c5.776-7.4203-7.9975 4.8585 0 0zm207.82 1.0484c-3.2968-26.332-15.224-9.8562-1.7036 0.51331l1.7036-0.51331zm-309.76-3.08c16.46-13.054-2.1057-6.952-2.7343 2.113l2.7343-2.113zm298.87-3.3514c-1.4214-28.531-10.962-2.4653-1.9622 5.2212l0.73002-0.3933 1.2322-4.8279h-0.00002zm-217.65 0.1005c-0.58032-7.9898-7.2701 9.7256 0 0zm-82.218-2.2243c-6.2775-0.37638-4.6517 8.7143 0 0zm-193.23-1.8821c7.1925-12.992-13.989 14.8 0 0zm272.64-0.41232c-4.8512-0.60304-3.5686 8.6427 0 0zm151.94 3.9505c13.187-13.775-4.1987-3.2268 0 0zm-236.8-1.3625c7.4607-6.0389 31.152-31.459 9.3822-12.655-0.42807 0.95853-19.145 15.652-9.3822 12.655zm114.81-0.63574c-1.2979-3.4842-3.6238 4.2834 0 0zm170.93-3.2931c14.922-19.198-15.703 12.995 0 0zm-418.31-0.99629c15.507-18.783-16.037 11.575 0 0zm141.7 0.52513c19.278-11.853-4.7196-2.1713-1.3284 1.743l1.3284-1.743zm287.52 2.296c-2.2743-4.7092-4.7807 3.126 0 0zm-299.51-2.99c10.262-5.8787 31.632-32.653 8.9584-11.703-2.5093 0.37058-19.67 19.434-8.9584 11.703zm114.42 0.47291c-2.0999-2.4262-0.40333 3.3728 0 0zm-320.08-2.94c3.6592-11.818 19.907 2.4591 21.548-20.256-0.48657-7.9145 25.104-27.957 1.5172-14.747-5.1645 8.2758-16.699 32.633-20.084 17.037-0.61923 1.8537-11.19 30.019-2.9814 17.966zm290.9 2.2973c-3.6763-1.0833-0.39075-0.74327 0 0zm-268.36-4.7479c15.505-17.776-17.753 14.772 0 0zm178.01 1.497c11.006-4.5798 36.833-36.022 11.816-13.165-2.8661 1.9473-22.655 20.719-11.816 13.165zm-124.26-2.528c8.1471-10.675 27.319 1.1409 7.2102-10.295-0.97643 2.2731-22.112 17.282-7.2102 10.295zm118.11 0.98803c10.178-5.5886 41.316-40.062 13.426-14.715-0.67472 1.8962-26.571 18.03-13.426 14.715zm-72.847-1.3017c12.979-7.0109 32.85-29.915 8.1531-11.506-0.98711 2.3238-24.596 16.14-8.1531 11.506zm10.159-0.47649c10.33-4.3394 37.535-30.963 11.915-14.624-0.42853 2.6511-29.024 19.653-11.915 14.624zm362.21 0.25724c4.5689-6.0947-5.539 3.7177 0 0zm-306.42-0.87451c11.791-3.2653 42.776-40.266 16.991-17.148-0.25658 1.5251-31.024 22.597-16.991 17.148zm330.59-0.70132c-5.1767-10.077-16.842-46.483-26.998-37.201 8.9483 13.887 17.707 22.187 22.82 37.697l2.4804 0.83135 1.6975-1.3274zm-373.2 0.14858c15.478-16.119 36.355-24.797 51.737-40.594-8.7399 1.1576-26.722 16.87-6.5658-1.6862-15.402 6.0421-23.158 23.674-40.38 32.909-0.8018 3.5718-17.4 12.281-4.7908 9.3712zm31.483-30.515c0.31193-1.8377 4.0471 0.61337 0 0zm0.91043 30.613c11.298-0.23391 46.784-39.5 25.134-22.16-0.048 8.8611-36.359 20.421-25.134 22.16zm327.97-6.9814c-7.233-37.426-7.4558 24.016 0 0zm-346.09 4.8691c10.898-11.19 32.765-25.012 9.9212-4.9621-14.249 14.241 24.087-7.1786 29.063-13.688 20.799-17.108-1.8224-14.194-13.312-0.68438-6.7752 3.2 32.91-27.839 6.5959-10.951-9.8431 8.8274-38.338 22.156-36.729 31.51l4.4604-1.2252-0.00002-0.00002zm21.318-9.7337c8.0057-11.634 31.555-23.235 6.9778-3.9602-2.2737 0.006-4.1714 5.259-6.9778 3.9602zm311.8 9.2693c8.2859-10.657 4.3145-0.47627 0 0zm-158.67-0.13603c8.6391-5.9087 42.307-41.273 18.646-20.832-1.502 3.4019-30.69 22.813-18.646 20.832zm-16.11-1.4528c5.9591-9.0201 38.829-28.21 29.854-30.628-7.6001 8.5034-32.543 23.958-29.854 30.628zm35.686-0.85551c9.7107-6.534 31.761-30.837 8.5974-10.951-1.8648 0.43638-19.283 18.015-8.5974 10.951zm-26.093-0.34221c10.956-6.9663 43.016-42.547 16.725-18.788-0.82247 2.0168-32.098 25.63-16.725 18.788zm19.556-0.75301c7.4378-7.2483 35.407-32.414 11.489-15.683-1.3574 1.6902-28.773 25.166-11.489 15.683zm17.627-0.4447c24.325-19.404-2.0077-6.6497-3.5819 2.1229l3.5819-2.1229zm8.5766-0.46066c9.772-8.3062 27.697-28.063 6.5884-9.3454-0.76244 1.9971-19.928 16.043-6.5884 9.3454zm8.7538-0.56595c11.062-7.8432 32.497-32.958 8.6123-10.095-1.9975 0.0255-19.027 19.922-8.6123 10.095zm-355.8 0.51331c1.0964-5.0835-4.3301 4.9974 0 0zm365.82-1.7324c17.855-15.316 0.068-6.9704-3.7254 2.4168l1.7749-0.62528 1.9505-1.7916h-0.00004zm14.255 1.048c20.1-18.758-7.3838 0.69905 0 0zm-6.7436-1.242c18.294-15.901 0.42155-8.6668-1.3894 1.673l1.3894-1.673zm16.09-0.46634c5.1029-6.7096-8.5477 6.1607 0 0zm9.2727-2.9378c-4.7998 2.0917-3.5818 6.8861 0 0zm-414.25-2.2058c10.264-13.543 4.0015-25.426-1.2571-3.615 0.21253 0.7201-2.9389 8.5833 1.2571 3.615zm425.23-1.361c-9.2972 4.1354-1.5159 1.4139 0 0zm-112.66 0.0268c1.9132-5.4331-5.1738 3.6543 0 0zm173.81-2.8147c0.61575-13.893-12.313-4.9345-1.5435 3.4639l1.5435-3.4639h0.00003zm-431.91-1.1652c2.1327-14.392-6.9669 11.544 0 0zm361.97-0.61986c9.7455-18.097-28.889-8.3139-13.514-5.6768-6.065 12.394 13.506 5.9786 6.8786-2.754 4.7618 0.81935 1.3842 16.469 6.6352 8.4308zm-21.415-2.3796c2.2182-7.3795-6.7144 9.2666 0 0zm-22.494-0.91753c5.6314-9.0854-10.577 8.2502 0 0zm-211.6-3.4724c-0.5635-3.5825-3.9707 4.0255 0 0zm-106.38-0.60181c2.0311-10.402-8.6361 4.5796 0 0zm-43.537-3.9954c10.385-10.637 6.6388-30.491-0.86646-7.5762-0.93784 0.60913-3.0036 15.189 0.86646 7.5762zm20.001 1.2737c3.1958-8.1608-5.6527 3.1211 0 0zm445.9-5.8817c-8.4702-17.245 20.471 2.2366 0.62376-18.289-5.8731-7.0588-34.124-44.642-24.669-16.551 16.062 9.0006 16.888 20.615 13.905 28.295 2.1911 3.1735 12.467 21.738 10.14 6.5444zm-5.5359-10.251c1.7486-2.4553 1.7486 2.4553 0 0zm-420.33 13.688c14.679-13.633-10.177 5.143 0 0zm395.01-2.1319c-5.5942 2.8237-2.3248 1.1153 0 0zm-118.39-2.1456c8.4678-10.791 34.751-23.739 33.281-33.318-12.988 10.838-31.256 24.081-37.534 36.665l4.2532-3.3468zm-278.39-0.45019c22.676-19.93-4.296-3.2762 0 0zm-27.212 0.62129c15.318-5.3955 21.478-27.7 1.0491-12.337-3.115 0.13264-5.2447 15.529-1.0491 12.337zm142.01-0.1751c18.544-9.8183 4.4087-12.938-2.597 0.18357l1.2282 0.67594 1.3688-0.85951zm249.81 0.25382c-7.7617-7.6761-2.3554 1.4913 0 0zm30.099-4.4321c-3.916 2.1066-1.9427 5.2808 0 0zm-354.19 1.6974c9.6156-13.371-10.83 4.0388 0 0zm-53.435-0.45945c-0.67844-2.5172-1.4086 3.4843 0 0zm123.73-0.14065c26.461-17.429-14.933-3.799 0 0zm-119.8-2.9036c22.977-27.894-8.8898 3.3821 0 0zm9.7988-2.3954c16.264-11.328-2.659-5.9871-4.0683 3.1193l4.0683-3.1193zm278.79 0.16273c6.911-8.0624 46.283-37.944 17.589-21.712-2.9328 1.0141-29.649 26.827-17.589 21.712zm-10.555-1.1038c-2.3832-6.8802 1.0329 8.2005 0 0zm129.1-3.985c-6.7788 3.2873-5.2905 9.2775 0 0zm1.6382 5.5532c-1.3092-3.209-2.2166 3.7856 0 0zm-347.91-0.46c27.527-21.7-4.2462-2.1553 0 0zm293.42-0.58838c-8.4375-3.5496 2.388 3.2588 0 0zm-236.75-0.75229c12.884-11.816-14.632 4.2053 0 0zm187.33-0.91317c-0.48846-6.7882-4.2233 5.8708 0 0zm-230.19-0.76c-2.8703-5.2712-11.68 3.0381 0 0zm35.371-0.2385c22.299-13.881-7.2244-4.3716 0 0zm-6.9407-1.1099c22.006-11.944 7.7536-15.827-2.7652 0.42553l2.7652-0.42553zm-118.25-2.7225c6.669-7.2305 13.138-29.743 2.3543-10.553 0.35173 2.6739-9.8137 14.316-2.3543 10.553zm425.78-1.1146c2.385-6.3878-6.6614 5.6747 0 0zm10.964 0.73461c4.5572-23.777-31.798-11.147 0 0zm-407.6-2.3701c10.883-16.994-12.182 7.9638 0 0zm79.202 0.0278c15.073-11.46 3.7214-3.8918 5.2248 1.7771 19.481-8.2803 21.664-20.473 33.005-30.808 14.344-19.416-24.888 15.38-31.155 15.003-1.1205-3.267-30.544 23.45-7.0755 14.028zm-2.9864-3.5402c4.1559-9.6946 12.422-4.5626 0 0zm18.158-8.02c6.0161-3.3531-3.1313 3.6945 0 0zm3.724-2.0346c1.6378-2.3369 2.7708 1.3109 0 0zm287.45 13.961c12.486-15.996-5.8505 1.2512 0 0zm-109.75-1.6837c12.202-6.5388 30.197-29.963 7.1689-10.607-1.2554 1.8147-12.814 11.828-7.1689 10.607zm-289.74-2.1425c11.189-7.0486 20.512-21.878 0.14455-14.434 8.2141-9.5997 19.247-29.55 2.3319-6.8688-1.7774 3.5847-15.515 28.916-2.4764 21.303zm72.818-0.9086c17.416-5.6971 21.26-17.585 40.486-20.987-3.633-9.79 24.225-18.365 9.5306-30.44 17.368-10.765 33.057-24.487 53.206-29.784 27.69-17.713-23.485 10.267-4.404-3.6731-18.362 8.6025-36.887 21.156-52.018 33.466-13.608-0.48765-25.019 8.7087-33.767 6.6122-10.168 12.17-15.906 34.107-18.838 39.124-5.9609 7.5807 2.0311 1.3199 3.3704 8.184l2.4336-2.5023zm2.9531-12.347c1.7486-2.4553 1.7486 2.4553 0 0zm7.5285-12.174c10.978-18.202 13.512-6.8388 0 0zm-3.845-1.6444c7.7494-18.712 18.331-12.442 0 0zm12.058-1.8507c9.7128-15.855 4.1664 3.2839 0 0zm4.7908-0.41404c9.9566-11.645 23.253-15.839 4.015-1.6006 1.7954-0.3203-4.4313 4.5188-4.015 1.6006zm21.217-14.03c1.7486-2.4553 1.7486 2.4553 0 0zm-34.89 43.369c9.9934-10.257-11.128 6.5952 0 0zm240.34-1.6911c19.267-14.501-16.547 2.5279-6.2584 3.3421l3.1171-0.86251 3.1413-2.4796zm16.907-1.8521c-15.513 4.1396 7.6038 1.4311 0 0zm59.906 0.42449c3.3215-5.9891-5.822 5.1737 0 0zm-385.21 0.12981c0.86638-5.7509-5.1247 2.9101 0 0zm274.73-0.64415c10.326-7.4483 24.647-25.933 5.1266-9.8845-0.76269 1.3286-14.018 14.558-5.1266 9.8845zm-7.8707-0.0402c-2.631-2.4537-1.7542 2.535 0 0zm-261.26-1.9249c-1.3936-3.1567-2.1891 3.7656 0 0zm-0.40874-2.9848c6.2539 3.1932 18.498-14.58 3.0557-2.961 0.73644-4.4813-13.027 11.091-3.0557 2.961zm268.17-1.442c9.5616-6.7193 19.368-23.36 2.9924-8.0208-2.9536-0.28903-10.144 14.703-2.9924 8.0208zm116.6-2.8944c8.6933-18.297-27.665-19.992-6.9178-2.1878 2.3104-0.44391 4.9756 5.1321 6.9178 2.1878zm-379.41-1.02c13.606-11.368-4.6038 0.5623 0 0zm78.151 0.21688c-3-0.98036-0.29675 1.3174 0 0zm187.04-6.6376c19.636-16.394-12.24-0.81028-5.8398 4.8061l2.4616-1.6711 3.3782-3.135zm-269.86-2.437c24.72-10.291 0.80937-16.152-7.603-0.83641-2.717 1.6987 6.9754 3.5707 7.603 0.83641zm99.415-1.3366c-1.1691-3.8767-5.9794 3.6708 0 0zm244.04-2.1249c-1.6879-2.4381-0.82772 2.5023 0 0zm42.634-0.85551c4.1484-10.85-32.619-26.418-13.597-3.88 4.4756 1.1114 9.0869 5.7656 13.597 3.88zm-275.59-4.962c16.129-5.1432 13.684-17.325 9.7542-18.951 6.3483-12.579-18.667 9.7588-3.8881 4.3848-20.029 16.79 17.319-6.0076-3.5034 8.7488-4.1402 1.1484-14.809 16.323-2.3627 5.8175zm158.72-2.0998c13.476-15.192-18.737 6.0325-3.8103 3.3878l3.8103-3.3878zm71.747 2.7842c-2.399-3.6222-1.6273 3.6956 0 0zm23.389-3.4825c1.2471-15.662-32.955-15.519-8.4351-4.1426 1.8691 0.0139 8.604 14.367 8.4351 4.1426zm-370.29 0.40265c-1.6879-2.4381-0.82772 2.5023 0 0zm6.5019-1.3534c11.686-7.6792 13.375-21.073 0.70718-5.5392-0.41248-0.67571-4.745 9.5131-0.70718 5.5392zm326.46-2.8723c-4.9363-3.2666-4.2302 9.4474 0 0zm-310.67 0.0724c7.4623-3.7286 23.518-10.221 5.9456-11.853 11.101-9.7054 13.987-20.898 1.0696-6.9215-14.683 10.926 2.201 5.7002-13.789 19.305 1.3371 2.5919 5.6565 2.1883 6.7743-0.53112zm249.62-0.70919c15.236-19.072-22.094 10.726 0 0zm-206.91-0.7493c11.75-13.985-19.108 11.869 0 0zm-9.2322 0.29219c9.8957-4.824 37.308-30.017 26.42-11.099 12.582-4.723 49.851-27.025 44.193-28.768-9.4126 5.2814-14.562-0.76582-29.046 13.02-28.175 19.315 21.166-16.119-4.1958-3.4426-9.8492 9.2355-39.043 24.211-37.372 30.29zm28.204-13.932c8.1616-6.0134 47.615-33.518 19.512-11.144-6.4528 2.8231-12.633 12.027-19.512 11.144zm244.98 12.92c21.34-21.091-13.385-0.17619 0 0zm21.795-1.1977c-1.7486-2.4552-1.7486 2.4553 0 0zm-84.728-1.5399c19.527-12.242 2.6914-14.903-3.9335 1.2828l0.87331 0.1949 3.0602-1.4778zm61.64-4.514c10.698-20.814-19.941 13.992 0 0zm46.863 1.3916c-7.4115-15.403-39.537-10.58-12.636-0.61881 2.4191 0.18799 12.398 3.6931 12.636 0.61881zm-111.49-1.4973c10.825-8.0127 43.697-38.841 14.046-17.452-22.154 14.799 24.263-20.984-2.1636-4.817-18.611 15.701-11.033 4.2044 2.8533-5.9361-10.451 2.3271-39.71 29.453-16.819 7.3758 28.414-21.596-35.071 5.5316-13.051 13.986 10.643 11.697 25.878-12.962 10.109 8.2082l1.9484 0.56852 3.0772-1.9327v-0.00022zm-11.694-5.6402c7.6229-10.664 11.163-1.2854 0 0zm96.35 4.4553c-5.4761-21.775-25.192-3.0802 0 0zm-308.35-0.80811c10.066-3.7817 27.296-9.9993 6.2173-11.717 11.772-11.297 13.429-17.969-0.90399-5.3258 1.0078 4.3475-15.211 19.179-5.3133 17.042zm76.771-0.83648c15.255-6.9156 23.96-22.85 2.9793-5.9802-1.5764 1.6268-16.394 11.004-2.9793 5.9802zm206.3-1.5517c10.125-10.416-13.861 2.7263 0 0zm-220.34-3.51c11.301-8.0963 38.206-18.798 39.737-26.715-10.459 4.4514-49.898 28.709-39.737 26.715v0.00004zm215.59-0.69357c7.1611-7.4695-11.891 3.689 0 0zm-3.8465-3.541c3.2244-11.385-16.754 10.535 0 0zm17.458 1.8c0.19744-22.148-38.582-11.748 0 0zm22.8-1.6955c-3.992-14.506-38.503-11.699-12.706-0.72542 3.7402 2.6929 8.5728 1.0804 12.706 0.72542zm-66.963-1.0919c36.549-27.499-23.645 4.9488 0 0zm11.433-0.52336c22.593-15.293-20.642 4.8257 0 0zm7.0463 0.60315c21.068-13.471-16.437 3.9286 0 0zm-227.39 0.25303c6.4154-6.3739-7.2355 2.622 0 0zm163-2.5813c12.282-6.784 38.439-28.156 10.322-12.775-15.83 16.01-15.951 6.587 0.28963-2.1043 14.061-16.725-40.548 15.743-10.611 14.879zm-178.81-0.44872c12.14-0.21593 19.782-7.3908 5.3674-10.74 5.328-4.6174 28.753-19.674 7.7951-10.907-3.9133-0.3721-32.405 25.838-13.162 21.647zm247.31-5.4631c-2.6287-19.763-33.131-3.722 0 0zm-77.792-3.0526c14.021-6.348 21.511-22.475 2.5502-5.8175-6.0177 0.76554-13.639 13.9-2.5502 5.8175zm81.533-0.23964c-4.6514 1.7756 0.33273 1.7861 0 0zm-82.424-4.8416c27.553-24.857-31.812 17.097 0 0zm103.59 4.8611c-10.567-13.129-36.521-6.4915-11.119-1.5127 2.9352 3.0971 7.4054 2.0296 11.119 1.5127zm-242.68-1.4454c15.788-12.604-26.114-11.59-11.556 1.0875 3.8174-0.18397 7.9127 0.41975 11.556-1.0875zm126.06-0.38917c16.672-9.9489 14.357-17.604 0.0815-5.1384-4.6263 1.5854-6.8522 8.6113-0.0815 5.1384zm-6.8783-3.0881c9.5243-4.5823 22.154-15.924 8.6505-11.967-12.91-5.026-28.066 21.042-5.8851 4.3486 16.317-8.0465-16.905 10.666-2.7653 7.6188zm79.425-0.97471c-17.838-16.395 25.083-5.0252 9.2053-3.0641 36.548 1.2256-15.676-15.664-27.685-17.497-28.706 3.7807 34.1 9.8534-0.98066 10.993 0.50239 7.6182 13.068 11.004 19.46 9.568zm-95.817-2.3916c26.233-12.565 0.24948-11.604 0 0zm-83.498-0.80145c18.594-2.4056-15.178-12.881 9.2178-13.182 36.975-22.068-44.142 9.2282-13.324 13.463l4.1064-0.28049zm62.452-2.9724c5.769-9.5981-13.815 7.7108 0 0zm16.33 1.1612c29.994-16.609-19.486 0.93682 0 0zm77.263-2.632c-7.6781-23.461-31.235 0.29881-3.7642 0.40771l3.7642-0.40771zm-130.41-1.732c14.029-1.2029-12.084-14.465 9.437-13.022 10.946 2.7793 52.706-10.079 21.042-7.2188-10.819 7.01-23.638-6.5527-33.75 9.9564-10.394 6.2347-24.512 11.909 3.2714 10.284zm28.036-4.7651c-6.0554-15.977-32.546 2.4837-6.054 0.82054l2.8395 0.36355 3.2144-1.1841zm80.05 0.42896c-9.0901-15.65-29.617 1.8881-5.5831 0.89801l4.7796-0.1037 0.80351-0.79431zm-50.189-3.1305c-22.984-16.184 17.623-0.18868 18.062-14.364-19.194-10.388-59.839 21.067-18.062 14.365v-0.00028zm27.347 1.147c-10.411-17.465-34.34 1.4491-13.776-1.8068 4.3517 1.6831 9.1394 2.2448 13.776 1.8068zm-53.384-3.5178c0.81399-3.6744-4.6107 3.3328 0 0zm88.288-1.0266c32.239-3.5381-38.315-7.9804-3.422 0l1.711 0.68441 1.711-0.68441zm-24.639-2.0532c30.924-7.7777-30.715-10.376-3.2831 0.68441l3.2831-0.68441zm-44.036 560.84c2.792-3.1705 0.34794 2.6182 0 0zm56.698-5.7826c0.29629-4.6839 4.8885 2.5918 0 0zm10.27-2.7418c4.6763-4.08-2.2752 4.8149 0 0zm18.972-2.4416c5.0668-3.2383-3.0235 3.3021 0 0zm-172.63-2.9562c2.7571-3.9861 3.6936 2.2137 0 0zm193.76-4.6618c3.8834-4.3174-2.3183 3.9578 0 0zm10.882-4.9931c1.7486-2.4553 1.7486 2.4553 0 0zm19.163-7.8303c1.2988-3.4463 2.1258 2.4821 0 0zm-272.66-3.4052c2.2166-3.7856 1.3092 3.209 0 0zm-7.9434-3.137c5.0156-2.8696-1.697 2.6956 0 0zm292.48-0.31856c2.8407-5.4552 2.5508 2.8398 0 0zm12.765-8.1366c6.0717-9.5378 3.456 1.8588 0 0zm108.82-130.14c3.6492-3.2605-1.2265 3.555 0 0zm19.163-59.907c2.672-2.2316 2.7431 1.2149 0 0zm2.7376-22.222c2.6229-3.6829 2.6229 3.6829 0 0zm2.7376-28.448c2.8332-8.3343 4.7076 0.40781 0 0zm-0.94838-8.0413c2.3914-6.1131 5.0661-2.568 0 0zm0.1324-9.7147c4.6352-6.302-1.1364 4.7491 0 0zm-1.9216-8.8909c1.7486-2.4553 1.7487 2.4553 0 0zm-6.4684-42.379c5.8359-9.3194 3.3282 1.7868 0 0zm-1.7445-7.5445c3.3793-7.8189 5.1814-0.0426 0 0zm-65.7-121.79c5.1047-9.3508 2.4425 5.0415 0 0zm-6.1597-3.4059c6.3597-9.6287 5.0358 0.85436 0 0zm-8.0034-11.05c5.9494-7.9295-0.79685 7.9017 0 0zm-10.637-7.6821c-0.10123-7.0898 4.9211 1.6214 0 0zm-3.945-4.9794c3.7416-3.7779-2.1514 3.6766 0 0zm-10.951-9.1991c1.5972-2.3508 1.9712 1.3042 0 0zm-5.133-4.8312c2.6311-2.4537 1.7542 2.535 0 0zm-9.2395-2.6972c1.5972-2.3508 1.9712 1.3042 0 0z"/>
  </g>
  <metadata>
    <rdf:RDF>
      <cc:Work>
        <dc:format>image/svg+xml</dc:format>
        <dc:type rdf:resource="http://purl.org/dc/dcmitype/StillImage"/>
        <cc:license rdf:resource="http://creativecommons.org/licenses/publicdomain/"/>
        <dc:publisher>
          <cc:Agent rdf:about="http://openclipart.org/">
            <dc:title>Openclipart</dc:title>
          </cc:Agent>
        </dc:publisher>
      </cc:Work>
      <cc:License rdf:about="http://creativecommons.org/licenses/publicdomain/">
        <cc:permits rdf:resource="http://creativecommons.org/ns#Reproduction"/>
        <cc:permits rdf:resource="http://creativecommons.org/ns#Distribution"/>
        <cc:permits rdf:resource="http://creativecommons.org/ns#DerivativeWorks"/>
      </cc:License>
    </rdf:RDF>
  </metadata>
</svg>
